G75*
%MOIN*%
%OFA0B0*%
%FSLAX25Y25*%
%IPPOS*%
%LPD*%
%AMOC8*
5,1,8,0,0,1.08239X$1,22.5*
%
%ADD10C,0.08200*%
%ADD11C,0.08200*%
%ADD12C,0.06350*%
%ADD13C,0.06350*%
%ADD14C,0.07900*%
%ADD15C,0.06400*%
D10*
X0017900Y0211600D02*
X0025300Y0211600D01*
X0025300Y0221600D02*
X0017900Y0221600D01*
X0017900Y0231600D02*
X0025300Y0231600D01*
X0025300Y0241600D02*
X0017900Y0241600D01*
D11*
X0046600Y0201600D03*
X0046600Y0171600D03*
X0046600Y0151600D03*
X0046600Y0121600D03*
X0061600Y0086600D03*
X0061600Y0056600D03*
X0051600Y0056600D03*
X0071600Y0056600D03*
X0101600Y0056600D03*
X0111600Y0061600D03*
X0141600Y0061600D03*
X0141600Y0046600D03*
X0171600Y0046600D03*
X0191600Y0056600D03*
X0191600Y0086600D03*
X0191600Y0101600D03*
X0191600Y0131600D03*
X0191600Y0151600D03*
X0176600Y0176600D03*
X0191600Y0181600D03*
X0176600Y0206600D03*
X0021600Y0056600D03*
D12*
X0078825Y0096600D02*
X0084375Y0096600D01*
X0084375Y0106600D02*
X0078825Y0106600D01*
X0078825Y0116600D02*
X0084375Y0116600D01*
X0084375Y0126600D02*
X0078825Y0126600D01*
X0078825Y0136600D02*
X0084375Y0136600D01*
X0084375Y0146600D02*
X0078825Y0146600D01*
X0078825Y0156600D02*
X0084375Y0156600D01*
X0084375Y0166600D02*
X0078825Y0166600D01*
X0078825Y0176600D02*
X0084375Y0176600D01*
X0084375Y0186600D02*
X0078825Y0186600D01*
X0078825Y0196600D02*
X0084375Y0196600D01*
X0084375Y0206600D02*
X0078825Y0206600D01*
X0086600Y0213825D02*
X0086600Y0219375D01*
X0096600Y0219375D02*
X0096600Y0213825D01*
X0106600Y0213825D02*
X0106600Y0219375D01*
X0116600Y0219375D02*
X0116600Y0213825D01*
X0126600Y0213825D02*
X0126600Y0219375D01*
X0136600Y0219375D02*
X0136600Y0213825D01*
X0138825Y0206600D02*
X0144375Y0206600D01*
X0144375Y0196600D02*
X0138825Y0196600D01*
X0138825Y0186600D02*
X0144375Y0186600D01*
X0144375Y0176600D02*
X0138825Y0176600D01*
X0138825Y0166600D02*
X0144375Y0166600D01*
X0144375Y0156600D02*
X0138825Y0156600D01*
X0138825Y0146600D02*
X0144375Y0146600D01*
X0144375Y0136600D02*
X0138825Y0136600D01*
X0138825Y0126600D02*
X0144375Y0126600D01*
X0144375Y0116600D02*
X0138825Y0116600D01*
X0138825Y0106600D02*
X0144375Y0106600D01*
X0144375Y0096600D02*
X0138825Y0096600D01*
X0126600Y0099375D02*
X0126600Y0093825D01*
X0116600Y0093825D02*
X0116600Y0099375D01*
X0106600Y0099375D02*
X0106600Y0093825D01*
D13*
X0126600Y0161600D03*
X0126600Y0171600D03*
D14*
X0041757Y0025150D02*
X0041757Y0018050D01*
X0061443Y0018050D02*
X0061443Y0025150D01*
X0086757Y0025150D02*
X0086757Y0018050D01*
X0106443Y0018050D02*
X0106443Y0025150D01*
X0166757Y0025150D02*
X0166757Y0018050D01*
X0186443Y0018050D02*
X0186443Y0025150D01*
X0211757Y0025150D02*
X0211757Y0018050D01*
X0231443Y0018050D02*
X0231443Y0025150D01*
X0225150Y0056757D02*
X0218050Y0056757D01*
X0218050Y0076443D02*
X0225150Y0076443D01*
X0225150Y0101757D02*
X0218050Y0101757D01*
X0218050Y0121443D02*
X0225150Y0121443D01*
X0225150Y0146757D02*
X0218050Y0146757D01*
X0218050Y0166443D02*
X0225150Y0166443D01*
X0225150Y0191757D02*
X0218050Y0191757D01*
X0218050Y0211443D02*
X0225150Y0211443D01*
X0141443Y0248050D02*
X0141443Y0255150D01*
X0121757Y0255150D02*
X0121757Y0248050D01*
X0025150Y0191443D02*
X0018050Y0191443D01*
X0018050Y0171757D02*
X0025150Y0171757D01*
X0025150Y0146443D02*
X0018050Y0146443D01*
X0018050Y0126757D02*
X0025150Y0126757D01*
X0025150Y0101443D02*
X0018050Y0101443D01*
X0018050Y0081757D02*
X0025150Y0081757D01*
D15*
X0158800Y0081600D02*
X0164400Y0081600D01*
X0164400Y0071600D02*
X0158800Y0071600D01*
X0158800Y0061600D02*
X0164400Y0061600D01*
X0164400Y0091600D02*
X0158800Y0091600D01*
X0158800Y0101600D02*
X0164400Y0101600D01*
X0164400Y0111600D02*
X0158800Y0111600D01*
X0158800Y0121600D02*
X0164400Y0121600D01*
X0164400Y0131600D02*
X0158800Y0131600D01*
M02*
