G75*
%MOIN*%
%OFA0B0*%
%FSLAX25Y25*%
%IPPOS*%
%LPD*%
%AMOC8*
5,1,8,0,0,1.08239X$1,22.5*
%
%ADD10C,0.00600*%
%ADD11C,0.07400*%
%ADD12C,0.07400*%
%ADD13C,0.05550*%
%ADD14C,0.05550*%
%ADD15C,0.07100*%
%ADD16C,0.05600*%
%ADD17C,0.01600*%
%ADD18C,0.01200*%
D10*
X0117030Y0230103D02*
X0121300Y0230103D01*
X0117030Y0230103D01*
X0121300Y0230103D01*
X0117030Y0230103D01*
X0121300Y0230103D01*
X0121300Y0235103D02*
X0117030Y0235103D01*
D11*
X0025300Y0231600D02*
X0017900Y0231600D01*
X0017900Y0221600D02*
X0025300Y0221600D01*
X0025300Y0211600D02*
X0017900Y0211600D01*
X0017900Y0241600D02*
X0025300Y0241600D01*
D12*
X0046600Y0201600D03*
X0046600Y0171600D03*
X0046600Y0151600D03*
X0046600Y0121600D03*
X0061600Y0086600D03*
X0061600Y0056600D03*
X0051600Y0056600D03*
X0071600Y0056600D03*
X0101600Y0056600D03*
X0111600Y0061600D03*
X0141600Y0061600D03*
X0141600Y0046600D03*
X0171600Y0046600D03*
X0191600Y0056600D03*
X0191600Y0086600D03*
X0191600Y0101600D03*
X0191600Y0131600D03*
X0191600Y0151600D03*
X0176600Y0176600D03*
X0191600Y0181600D03*
X0176600Y0206600D03*
X0021600Y0056600D03*
D13*
X0078825Y0096600D02*
X0084375Y0096600D01*
X0084375Y0106600D02*
X0078825Y0106600D01*
X0078825Y0116600D02*
X0084375Y0116600D01*
X0084375Y0126600D02*
X0078825Y0126600D01*
X0078825Y0136600D02*
X0084375Y0136600D01*
X0084375Y0146600D02*
X0078825Y0146600D01*
X0078825Y0156600D02*
X0084375Y0156600D01*
X0084375Y0166600D02*
X0078825Y0166600D01*
X0078825Y0176600D02*
X0084375Y0176600D01*
X0084375Y0186600D02*
X0078825Y0186600D01*
X0078825Y0196600D02*
X0084375Y0196600D01*
X0084375Y0206600D02*
X0078825Y0206600D01*
X0086600Y0213825D02*
X0086600Y0219375D01*
X0096600Y0219375D02*
X0096600Y0213825D01*
X0106600Y0213825D02*
X0106600Y0219375D01*
X0116600Y0219375D02*
X0116600Y0213825D01*
X0126600Y0213825D02*
X0126600Y0219375D01*
X0136600Y0219375D02*
X0136600Y0213825D01*
X0138825Y0206600D02*
X0144375Y0206600D01*
X0144375Y0196600D02*
X0138825Y0196600D01*
X0138825Y0186600D02*
X0144375Y0186600D01*
X0144375Y0176600D02*
X0138825Y0176600D01*
X0138825Y0166600D02*
X0144375Y0166600D01*
X0144375Y0156600D02*
X0138825Y0156600D01*
X0138825Y0146600D02*
X0144375Y0146600D01*
X0144375Y0136600D02*
X0138825Y0136600D01*
X0138825Y0126600D02*
X0144375Y0126600D01*
X0144375Y0116600D02*
X0138825Y0116600D01*
X0138825Y0106600D02*
X0144375Y0106600D01*
X0144375Y0096600D02*
X0138825Y0096600D01*
X0126600Y0099375D02*
X0126600Y0093825D01*
X0116600Y0093825D02*
X0116600Y0099375D01*
X0106600Y0099375D02*
X0106600Y0093825D01*
D14*
X0126600Y0161600D03*
X0126600Y0171600D03*
D15*
X0121757Y0248050D02*
X0121757Y0255150D01*
X0141443Y0255150D02*
X0141443Y0248050D01*
X0218050Y0211443D02*
X0225150Y0211443D01*
X0225150Y0191757D02*
X0218050Y0191757D01*
X0218050Y0166443D02*
X0225150Y0166443D01*
X0225150Y0146757D02*
X0218050Y0146757D01*
X0218050Y0121443D02*
X0225150Y0121443D01*
X0225150Y0101757D02*
X0218050Y0101757D01*
X0218050Y0076443D02*
X0225150Y0076443D01*
X0225150Y0056757D02*
X0218050Y0056757D01*
X0211757Y0025150D02*
X0211757Y0018050D01*
X0231443Y0018050D02*
X0231443Y0025150D01*
X0186443Y0025150D02*
X0186443Y0018050D01*
X0166757Y0018050D02*
X0166757Y0025150D01*
X0106443Y0025150D02*
X0106443Y0018050D01*
X0086757Y0018050D02*
X0086757Y0025150D01*
X0061443Y0025150D02*
X0061443Y0018050D01*
X0041757Y0018050D02*
X0041757Y0025150D01*
X0025150Y0081757D02*
X0018050Y0081757D01*
X0018050Y0101443D02*
X0025150Y0101443D01*
X0025150Y0126757D02*
X0018050Y0126757D01*
X0018050Y0146443D02*
X0025150Y0146443D01*
X0025150Y0171757D02*
X0018050Y0171757D01*
X0018050Y0191443D02*
X0025150Y0191443D01*
D16*
X0158800Y0131600D02*
X0164400Y0131600D01*
X0164400Y0121600D02*
X0158800Y0121600D01*
X0158800Y0111600D02*
X0164400Y0111600D01*
X0164400Y0101600D02*
X0158800Y0101600D01*
X0158800Y0091600D02*
X0164400Y0091600D01*
X0164400Y0081600D02*
X0158800Y0081600D01*
X0158800Y0071600D02*
X0164400Y0071600D01*
X0164400Y0061600D02*
X0158800Y0061600D01*
D17*
X0151600Y0046600D02*
X0171600Y0046600D01*
X0181600Y0046600D01*
X0181600Y0036600D01*
X0211600Y0036600D01*
X0211600Y0021600D01*
X0211757Y0021600D01*
X0221600Y0011600D02*
X0201600Y0011600D01*
X0201600Y0031600D01*
X0176600Y0031600D01*
X0141600Y0031600D01*
X0141600Y0046600D01*
X0151600Y0046600D02*
X0151600Y0086600D01*
X0126600Y0086600D01*
X0126600Y0096600D01*
X0116600Y0096600D02*
X0116600Y0081600D01*
X0131600Y0081600D01*
X0131600Y0061600D01*
X0141600Y0061600D01*
X0131600Y0061600D02*
X0131600Y0021600D01*
X0166757Y0021600D01*
X0176600Y0031600D02*
X0176600Y0011600D01*
X0121600Y0011600D01*
X0121600Y0036600D01*
X0121600Y0061600D01*
X0111600Y0061600D01*
X0101600Y0056600D02*
X0081600Y0056600D01*
X0081600Y0021600D01*
X0086757Y0021600D01*
X0096600Y0011600D02*
X0096600Y0036600D01*
X0121600Y0036600D01*
X0106443Y0021600D02*
X0106600Y0006600D01*
X0061600Y0006600D01*
X0061443Y0021600D01*
X0071600Y0011600D02*
X0071600Y0056600D01*
X0061600Y0056600D01*
X0051600Y0056600D02*
X0071600Y0056600D01*
X0081600Y0056600D02*
X0081600Y0081600D01*
X0101600Y0081600D01*
X0101600Y0161600D01*
X0111600Y0161600D01*
X0121600Y0161600D01*
X0126600Y0161600D01*
X0126600Y0171600D02*
X0121600Y0171600D01*
X0116600Y0171600D01*
X0096600Y0171600D01*
X0096600Y0086600D01*
X0076600Y0086600D01*
X0076600Y0066600D01*
X0021600Y0066600D01*
X0021600Y0056600D01*
X0021600Y0021600D01*
X0041757Y0021600D01*
X0061600Y0006600D02*
X0011600Y0006600D01*
X0011600Y0071600D01*
X0071600Y0071600D01*
X0071600Y0091600D01*
X0091600Y0091600D01*
X0091600Y0176600D01*
X0131600Y0176600D01*
X0131600Y0131600D01*
X0161600Y0131600D01*
X0161600Y0121600D02*
X0151600Y0121600D01*
X0151600Y0116600D01*
X0141600Y0116600D01*
X0141600Y0106600D02*
X0151600Y0106600D01*
X0151600Y0101600D01*
X0161600Y0101600D01*
X0161600Y0111600D02*
X0126600Y0111600D01*
X0126600Y0126600D01*
X0141600Y0126600D01*
X0141600Y0136600D02*
X0176600Y0136600D01*
X0176600Y0071600D01*
X0191600Y0071600D01*
X0191600Y0056600D01*
X0191600Y0056757D01*
X0221600Y0056757D01*
X0221600Y0046600D02*
X0221600Y0036600D01*
X0221600Y0011600D01*
X0231600Y0006600D02*
X0186443Y0006600D01*
X0106600Y0006600D01*
X0096600Y0011600D02*
X0071600Y0011600D01*
X0011600Y0071600D02*
X0011600Y0101443D01*
X0011600Y0146443D01*
X0011600Y0191443D01*
X0021600Y0191443D01*
X0021600Y0211600D02*
X0006600Y0211600D01*
X0006600Y0261600D01*
X0176600Y0261600D01*
X0176600Y0206600D01*
X0161600Y0206600D01*
X0161600Y0176600D01*
X0141600Y0176600D01*
X0141600Y0166600D02*
X0176600Y0166600D01*
X0176600Y0176600D01*
X0176600Y0191600D01*
X0221600Y0191757D01*
X0231600Y0201600D02*
X0231600Y0181600D01*
X0191600Y0181600D01*
X0191600Y0166600D01*
X0201600Y0166600D01*
X0201600Y0156600D01*
X0231600Y0156600D01*
X0231600Y0131600D01*
X0191600Y0131600D01*
X0191600Y0111600D01*
X0231600Y0111600D01*
X0231600Y0086600D01*
X0206600Y0086600D01*
X0206600Y0066600D01*
X0231600Y0066600D01*
X0231600Y0036600D01*
X0221600Y0036600D01*
X0221600Y0046600D02*
X0186600Y0046600D01*
X0186600Y0051600D01*
X0181600Y0051600D01*
X0181600Y0061600D01*
X0171600Y0061600D01*
X0171600Y0081600D01*
X0161600Y0081600D01*
X0161600Y0091600D02*
X0141600Y0091600D01*
X0141600Y0096600D01*
X0181600Y0101757D02*
X0191600Y0101600D01*
X0186600Y0101600D01*
X0181600Y0101757D01*
X0221600Y0101757D01*
X0206600Y0086600D02*
X0191600Y0086600D01*
X0181600Y0101757D02*
X0181600Y0146600D01*
X0141600Y0146600D01*
X0141600Y0156600D02*
X0186600Y0156600D01*
X0186600Y0151600D01*
X0191600Y0151600D01*
X0191600Y0146600D01*
X0221600Y0146600D01*
X0221600Y0146757D01*
X0221600Y0166443D02*
X0221600Y0166600D01*
X0236600Y0166600D01*
X0236600Y0121443D01*
X0236600Y0076443D01*
X0236600Y0021600D01*
X0231443Y0021600D01*
X0231600Y0006600D01*
X0186443Y0006600D02*
X0186443Y0021600D01*
X0221600Y0076443D02*
X0236600Y0076443D01*
X0236600Y0121443D02*
X0221600Y0121443D01*
X0236600Y0166600D02*
X0236600Y0211443D01*
X0221600Y0211443D01*
X0231600Y0201600D02*
X0176600Y0201600D01*
X0176600Y0206600D01*
X0141600Y0206600D02*
X0141600Y0256600D01*
X0141443Y0251600D01*
X0121757Y0251600D02*
X0121600Y0241600D01*
X0071600Y0241600D01*
X0071600Y0176600D01*
X0081600Y0176600D01*
X0091600Y0176600D01*
X0081600Y0166600D02*
X0066600Y0166600D01*
X0066600Y0231600D01*
X0021600Y0231600D01*
X0021600Y0221600D02*
X0061600Y0221600D01*
X0061600Y0156600D01*
X0081600Y0156600D01*
X0081600Y0146600D02*
X0056600Y0146600D01*
X0056600Y0201600D01*
X0046600Y0201600D01*
X0046600Y0171600D02*
X0021600Y0171600D01*
X0021600Y0171757D01*
X0021600Y0146443D02*
X0011600Y0146443D01*
X0021600Y0126757D02*
X0021600Y0121757D01*
X0046600Y0121600D01*
X0046600Y0136600D02*
X0081600Y0136600D01*
X0081600Y0126600D02*
X0061600Y0126600D01*
X0061600Y0086600D01*
X0061600Y0081757D01*
X0021600Y0081757D01*
X0021600Y0101443D02*
X0011600Y0101443D01*
X0046600Y0136600D02*
X0046600Y0151600D01*
X0021600Y0241600D02*
X0071600Y0241600D01*
X0121757Y0251600D02*
X0121757Y0256600D01*
D18*
X0003000Y0270161D02*
X0003000Y0003000D01*
X0243901Y0003000D01*
X0243901Y0270161D01*
X0003000Y0270161D01*
X0003000Y0269449D02*
X0243901Y0269449D01*
X0243901Y0268250D02*
X0003000Y0268250D01*
X0003000Y0267052D02*
X0243901Y0267052D01*
X0243901Y0265853D02*
X0003000Y0265853D01*
X0003000Y0264655D02*
X0243901Y0264655D01*
X0243901Y0263456D02*
X0177855Y0263456D01*
X0177511Y0263800D02*
X0005689Y0263800D01*
X0004400Y0262511D01*
X0004400Y0210689D01*
X0005689Y0209400D01*
X0013291Y0209400D01*
X0013576Y0208711D01*
X0015011Y0207276D01*
X0016886Y0206500D01*
X0026314Y0206500D01*
X0028189Y0207276D01*
X0029624Y0208711D01*
X0030400Y0210586D01*
X0030400Y0212614D01*
X0029624Y0214489D01*
X0028189Y0215924D01*
X0026556Y0216600D01*
X0028189Y0217276D01*
X0029624Y0218711D01*
X0029909Y0219400D01*
X0059400Y0219400D01*
X0059400Y0155689D01*
X0060689Y0154400D01*
X0075218Y0154400D01*
X0075286Y0154235D01*
X0076460Y0153061D01*
X0077995Y0152425D01*
X0085205Y0152425D01*
X0086740Y0153061D01*
X0087914Y0154235D01*
X0088550Y0155770D01*
X0088550Y0157430D01*
X0087914Y0158965D01*
X0086740Y0160139D01*
X0085205Y0160775D01*
X0077995Y0160775D01*
X0076460Y0160139D01*
X0075286Y0158965D01*
X0075218Y0158800D01*
X0063800Y0158800D01*
X0063800Y0222511D01*
X0062511Y0223800D01*
X0029909Y0223800D01*
X0029624Y0224489D01*
X0028189Y0225924D01*
X0026556Y0226600D01*
X0028189Y0227276D01*
X0029624Y0228711D01*
X0029909Y0229400D01*
X0064400Y0229400D01*
X0064400Y0165689D01*
X0065689Y0164400D01*
X0075218Y0164400D01*
X0075286Y0164235D01*
X0076460Y0163061D01*
X0077995Y0162425D01*
X0085205Y0162425D01*
X0086740Y0163061D01*
X0087914Y0164235D01*
X0088550Y0165770D01*
X0088550Y0167430D01*
X0087914Y0168965D01*
X0086740Y0170139D01*
X0085205Y0170775D01*
X0077995Y0170775D01*
X0076460Y0170139D01*
X0075286Y0168965D01*
X0075218Y0168800D01*
X0068800Y0168800D01*
X0068800Y0232511D01*
X0067511Y0233800D01*
X0029909Y0233800D01*
X0029624Y0234489D01*
X0028189Y0235924D01*
X0026779Y0236508D01*
X0027334Y0236688D01*
X0028078Y0237067D01*
X0028753Y0237557D01*
X0029343Y0238147D01*
X0029833Y0238822D01*
X0030212Y0239566D01*
X0030469Y0240359D01*
X0030587Y0241100D01*
X0022100Y0241100D01*
X0022100Y0242100D01*
X0021100Y0242100D01*
X0021100Y0246900D01*
X0017483Y0246900D01*
X0016659Y0246769D01*
X0015866Y0246512D01*
X0015122Y0246133D01*
X0014447Y0245643D01*
X0013857Y0245053D01*
X0013367Y0244378D01*
X0012988Y0243634D01*
X0012730Y0242841D01*
X0012613Y0242100D01*
X0021100Y0242100D01*
X0021100Y0241100D01*
X0012613Y0241100D01*
X0012730Y0240359D01*
X0012988Y0239566D01*
X0013367Y0238822D01*
X0013857Y0238147D01*
X0014447Y0237557D01*
X0015122Y0237067D01*
X0015866Y0236688D01*
X0016421Y0236508D01*
X0015011Y0235924D01*
X0013576Y0234489D01*
X0012800Y0232614D01*
X0012800Y0230586D01*
X0013576Y0228711D01*
X0015011Y0227276D01*
X0016644Y0226600D01*
X0015011Y0225924D01*
X0013576Y0224489D01*
X0012800Y0222614D01*
X0012800Y0220586D01*
X0013576Y0218711D01*
X0015011Y0217276D01*
X0016644Y0216600D01*
X0015011Y0215924D01*
X0013576Y0214489D01*
X0013291Y0213800D01*
X0008800Y0213800D01*
X0008800Y0259400D01*
X0118845Y0259400D01*
X0118402Y0259078D01*
X0117829Y0258505D01*
X0117353Y0257849D01*
X0116985Y0257127D01*
X0116734Y0256356D01*
X0116607Y0255555D01*
X0116607Y0252175D01*
X0121182Y0252175D01*
X0121182Y0251025D01*
X0116607Y0251025D01*
X0116607Y0247645D01*
X0116734Y0246844D01*
X0116985Y0246073D01*
X0117353Y0245351D01*
X0117829Y0244695D01*
X0118402Y0244122D01*
X0119058Y0243645D01*
X0119781Y0243277D01*
X0120552Y0243027D01*
X0121182Y0242927D01*
X0121182Y0251025D01*
X0122332Y0251025D01*
X0122332Y0242927D01*
X0122963Y0243027D01*
X0123734Y0243277D01*
X0124457Y0243645D01*
X0125112Y0244122D01*
X0125686Y0244695D01*
X0126162Y0245351D01*
X0126530Y0246073D01*
X0126781Y0246844D01*
X0126907Y0247645D01*
X0126907Y0251025D01*
X0122333Y0251025D01*
X0122333Y0252175D01*
X0126907Y0252175D01*
X0126907Y0255555D01*
X0126781Y0256356D01*
X0126530Y0257127D01*
X0126162Y0257849D01*
X0125686Y0258505D01*
X0125112Y0259078D01*
X0124670Y0259400D01*
X0138768Y0259400D01*
X0138639Y0259346D01*
X0137246Y0257954D01*
X0136493Y0256135D01*
X0136493Y0247065D01*
X0137246Y0245246D01*
X0138639Y0243854D01*
X0139400Y0243538D01*
X0139400Y0222479D01*
X0138965Y0222914D01*
X0137430Y0223550D01*
X0135770Y0223550D01*
X0134235Y0222914D01*
X0133061Y0221740D01*
X0132425Y0220205D01*
X0132425Y0212995D01*
X0133061Y0211460D01*
X0134235Y0210286D01*
X0135770Y0209650D01*
X0135972Y0209650D01*
X0135286Y0208965D01*
X0134650Y0207430D01*
X0134650Y0205770D01*
X0135286Y0204235D01*
X0136460Y0203061D01*
X0137995Y0202425D01*
X0145205Y0202425D01*
X0146740Y0203061D01*
X0147914Y0204235D01*
X0148550Y0205770D01*
X0148550Y0207430D01*
X0147914Y0208965D01*
X0146740Y0210139D01*
X0145205Y0210775D01*
X0143800Y0210775D01*
X0143800Y0243669D01*
X0144246Y0243854D01*
X0145639Y0245246D01*
X0146393Y0247065D01*
X0146393Y0256135D01*
X0145639Y0257954D01*
X0144246Y0259346D01*
X0144117Y0259400D01*
X0174400Y0259400D01*
X0174400Y0211209D01*
X0173711Y0210924D01*
X0172276Y0209489D01*
X0171991Y0208800D01*
X0160689Y0208800D01*
X0159400Y0207511D01*
X0159400Y0178800D01*
X0147982Y0178800D01*
X0147914Y0178965D01*
X0146740Y0180139D01*
X0145205Y0180775D01*
X0137995Y0180775D01*
X0136460Y0180139D01*
X0135286Y0178965D01*
X0134650Y0177430D01*
X0134650Y0175770D01*
X0135286Y0174235D01*
X0136460Y0173061D01*
X0137995Y0172425D01*
X0145205Y0172425D01*
X0146740Y0173061D01*
X0147914Y0174235D01*
X0147982Y0174400D01*
X0162511Y0174400D01*
X0163800Y0175689D01*
X0163800Y0204400D01*
X0171991Y0204400D01*
X0172276Y0203711D01*
X0173711Y0202276D01*
X0174400Y0201991D01*
X0174400Y0200689D01*
X0175689Y0199400D01*
X0229400Y0199400D01*
X0229400Y0194432D01*
X0229346Y0194561D01*
X0227954Y0195954D01*
X0226135Y0196707D01*
X0217065Y0196707D01*
X0215246Y0195954D01*
X0213854Y0194561D01*
X0213592Y0193929D01*
X0176595Y0193800D01*
X0175689Y0193800D01*
X0175686Y0193797D01*
X0175681Y0193797D01*
X0175042Y0193154D01*
X0174400Y0192511D01*
X0174400Y0192507D01*
X0174397Y0192504D01*
X0174400Y0191596D01*
X0174400Y0181209D01*
X0173711Y0180924D01*
X0172276Y0179489D01*
X0171500Y0177614D01*
X0171500Y0175586D01*
X0172276Y0173711D01*
X0173711Y0172276D01*
X0174400Y0171991D01*
X0174400Y0168800D01*
X0147982Y0168800D01*
X0147914Y0168965D01*
X0146740Y0170139D01*
X0145205Y0170775D01*
X0137995Y0170775D01*
X0136460Y0170139D01*
X0135286Y0168965D01*
X0134650Y0167430D01*
X0134650Y0165770D01*
X0135286Y0164235D01*
X0136460Y0163061D01*
X0137995Y0162425D01*
X0145205Y0162425D01*
X0146740Y0163061D01*
X0147914Y0164235D01*
X0147982Y0164400D01*
X0177511Y0164400D01*
X0178800Y0165689D01*
X0178800Y0171991D01*
X0179489Y0172276D01*
X0180924Y0173711D01*
X0181700Y0175586D01*
X0181700Y0177614D01*
X0180924Y0179489D01*
X0179489Y0180924D01*
X0178800Y0181209D01*
X0178800Y0189408D01*
X0213615Y0189530D01*
X0213854Y0188954D01*
X0215246Y0187561D01*
X0217065Y0186807D01*
X0226135Y0186807D01*
X0227954Y0187561D01*
X0229346Y0188954D01*
X0229400Y0189083D01*
X0229400Y0183800D01*
X0196209Y0183800D01*
X0195924Y0184489D01*
X0194489Y0185924D01*
X0192614Y0186700D01*
X0190586Y0186700D01*
X0188711Y0185924D01*
X0187276Y0184489D01*
X0186500Y0182614D01*
X0186500Y0180586D01*
X0187276Y0178711D01*
X0188711Y0177276D01*
X0189400Y0176991D01*
X0189400Y0165689D01*
X0190689Y0164400D01*
X0199400Y0164400D01*
X0199400Y0155689D01*
X0200689Y0154400D01*
X0229400Y0154400D01*
X0229400Y0149432D01*
X0229346Y0149561D01*
X0227954Y0150954D01*
X0226135Y0151707D01*
X0217065Y0151707D01*
X0215246Y0150954D01*
X0213854Y0149561D01*
X0213538Y0148800D01*
X0195960Y0148800D01*
X0196700Y0150586D01*
X0196700Y0152614D01*
X0195924Y0154489D01*
X0194489Y0155924D01*
X0192614Y0156700D01*
X0190586Y0156700D01*
X0188800Y0155960D01*
X0188800Y0157511D01*
X0187511Y0158800D01*
X0147982Y0158800D01*
X0147914Y0158965D01*
X0146740Y0160139D01*
X0145205Y0160775D01*
X0137995Y0160775D01*
X0136460Y0160139D01*
X0135286Y0158965D01*
X0134650Y0157430D01*
X0134650Y0155770D01*
X0135286Y0154235D01*
X0136460Y0153061D01*
X0137995Y0152425D01*
X0145205Y0152425D01*
X0146740Y0153061D01*
X0147914Y0154235D01*
X0147982Y0154400D01*
X0184400Y0154400D01*
X0184400Y0150689D01*
X0185689Y0149400D01*
X0186991Y0149400D01*
X0187276Y0148711D01*
X0188711Y0147276D01*
X0189400Y0146991D01*
X0189400Y0145689D01*
X0190689Y0144400D01*
X0213669Y0144400D01*
X0213854Y0143954D01*
X0215246Y0142561D01*
X0217065Y0141807D01*
X0226135Y0141807D01*
X0227954Y0142561D01*
X0229346Y0143954D01*
X0229400Y0144083D01*
X0229400Y0133800D01*
X0196209Y0133800D01*
X0195924Y0134489D01*
X0194489Y0135924D01*
X0192614Y0136700D01*
X0190586Y0136700D01*
X0188711Y0135924D01*
X0187276Y0134489D01*
X0186500Y0132614D01*
X0186500Y0130586D01*
X0187276Y0128711D01*
X0188711Y0127276D01*
X0189400Y0126991D01*
X0189400Y0110689D01*
X0190689Y0109400D01*
X0229400Y0109400D01*
X0229400Y0104432D01*
X0229346Y0104561D01*
X0227954Y0105954D01*
X0226135Y0106707D01*
X0217065Y0106707D01*
X0215246Y0105954D01*
X0213854Y0104561D01*
X0213603Y0103957D01*
X0196144Y0103957D01*
X0195924Y0104489D01*
X0194489Y0105924D01*
X0192614Y0106700D01*
X0190586Y0106700D01*
X0188711Y0105924D01*
X0187276Y0104489D01*
X0187056Y0103957D01*
X0183800Y0103957D01*
X0183800Y0147511D01*
X0182511Y0148800D01*
X0147982Y0148800D01*
X0147914Y0148965D01*
X0146740Y0150139D01*
X0145205Y0150775D01*
X0137995Y0150775D01*
X0136460Y0150139D01*
X0135286Y0148965D01*
X0134650Y0147430D01*
X0134650Y0145770D01*
X0135286Y0144235D01*
X0136460Y0143061D01*
X0137995Y0142425D01*
X0145205Y0142425D01*
X0146740Y0143061D01*
X0147914Y0144235D01*
X0147982Y0144400D01*
X0179400Y0144400D01*
X0179400Y0101792D01*
X0179372Y0100916D01*
X0179386Y0100901D01*
X0179386Y0100881D01*
X0179400Y0100866D01*
X0179400Y0100846D01*
X0180020Y0100226D01*
X0180620Y0099587D01*
X0180640Y0099587D01*
X0180654Y0099572D01*
X0180674Y0099572D01*
X0180689Y0099557D01*
X0181565Y0099557D01*
X0185660Y0099429D01*
X0185689Y0099400D01*
X0186565Y0099400D01*
X0186997Y0099386D01*
X0187276Y0098711D01*
X0188711Y0097276D01*
X0190586Y0096500D01*
X0192614Y0096500D01*
X0194489Y0097276D01*
X0195924Y0098711D01*
X0196274Y0099557D01*
X0213603Y0099557D01*
X0213854Y0098954D01*
X0215246Y0097561D01*
X0217065Y0096807D01*
X0226135Y0096807D01*
X0227954Y0097561D01*
X0229346Y0098954D01*
X0229400Y0099083D01*
X0229400Y0088800D01*
X0196209Y0088800D01*
X0195924Y0089489D01*
X0194489Y0090924D01*
X0192614Y0091700D01*
X0190586Y0091700D01*
X0188711Y0090924D01*
X0187276Y0089489D01*
X0186500Y0087614D01*
X0186500Y0085586D01*
X0187276Y0083711D01*
X0188711Y0082276D01*
X0190586Y0081500D01*
X0192614Y0081500D01*
X0194489Y0082276D01*
X0195924Y0083711D01*
X0196209Y0084400D01*
X0204400Y0084400D01*
X0204400Y0065689D01*
X0205689Y0064400D01*
X0229400Y0064400D01*
X0229400Y0059432D01*
X0229346Y0059561D01*
X0227954Y0060954D01*
X0226135Y0061707D01*
X0217065Y0061707D01*
X0215246Y0060954D01*
X0213854Y0059561D01*
X0213603Y0058957D01*
X0196144Y0058957D01*
X0195924Y0059489D01*
X0194489Y0060924D01*
X0193800Y0061209D01*
X0193800Y0072511D01*
X0192511Y0073800D01*
X0178800Y0073800D01*
X0178800Y0137511D01*
X0177511Y0138800D01*
X0147982Y0138800D01*
X0147914Y0138965D01*
X0146740Y0140139D01*
X0145205Y0140775D01*
X0137995Y0140775D01*
X0136460Y0140139D01*
X0135286Y0138965D01*
X0134650Y0137430D01*
X0134650Y0135770D01*
X0135286Y0134235D01*
X0136460Y0133061D01*
X0137995Y0132425D01*
X0145205Y0132425D01*
X0146740Y0133061D01*
X0147914Y0134235D01*
X0147982Y0134400D01*
X0155396Y0134400D01*
X0155037Y0133906D01*
X0154722Y0133289D01*
X0154508Y0132630D01*
X0154400Y0131946D01*
X0154400Y0131800D01*
X0161400Y0131800D01*
X0161400Y0131400D01*
X0161800Y0131400D01*
X0161800Y0131800D01*
X0168800Y0131800D01*
X0168800Y0131946D01*
X0168692Y0132630D01*
X0168478Y0133289D01*
X0168163Y0133906D01*
X0167804Y0134400D01*
X0174400Y0134400D01*
X0174400Y0070689D01*
X0175689Y0069400D01*
X0189400Y0069400D01*
X0189400Y0061209D01*
X0188711Y0060924D01*
X0187276Y0059489D01*
X0186500Y0057614D01*
X0186500Y0055586D01*
X0187240Y0053800D01*
X0183800Y0053800D01*
X0183800Y0062511D01*
X0182511Y0063800D01*
X0173800Y0063800D01*
X0173800Y0082511D01*
X0172511Y0083800D01*
X0168035Y0083800D01*
X0167961Y0083979D01*
X0166779Y0085161D01*
X0165235Y0085800D01*
X0157965Y0085800D01*
X0156421Y0085161D01*
X0155239Y0083979D01*
X0154600Y0082435D01*
X0154600Y0080765D01*
X0155239Y0079221D01*
X0156421Y0078039D01*
X0157965Y0077400D01*
X0165235Y0077400D01*
X0166779Y0078039D01*
X0167961Y0079221D01*
X0168035Y0079400D01*
X0169400Y0079400D01*
X0169400Y0060689D01*
X0170689Y0059400D01*
X0179400Y0059400D01*
X0179400Y0050689D01*
X0180689Y0049400D01*
X0184400Y0049400D01*
X0184400Y0045689D01*
X0185689Y0044400D01*
X0219400Y0044400D01*
X0219400Y0013800D01*
X0214432Y0013800D01*
X0214561Y0013854D01*
X0215954Y0015246D01*
X0216707Y0017065D01*
X0216707Y0026135D01*
X0215954Y0027954D01*
X0214561Y0029346D01*
X0213800Y0029662D01*
X0213800Y0037511D01*
X0212511Y0038800D01*
X0183800Y0038800D01*
X0183800Y0047511D01*
X0182511Y0048800D01*
X0176209Y0048800D01*
X0175924Y0049489D01*
X0174489Y0050924D01*
X0172614Y0051700D01*
X0170586Y0051700D01*
X0168711Y0050924D01*
X0167276Y0049489D01*
X0166991Y0048800D01*
X0153800Y0048800D01*
X0153800Y0087511D01*
X0152511Y0088800D01*
X0128800Y0088800D01*
X0128800Y0090218D01*
X0128965Y0090286D01*
X0130139Y0091460D01*
X0130775Y0092995D01*
X0130775Y0100205D01*
X0130139Y0101740D01*
X0128965Y0102914D01*
X0127430Y0103550D01*
X0125770Y0103550D01*
X0124235Y0102914D01*
X0123061Y0101740D01*
X0122425Y0100205D01*
X0122425Y0092995D01*
X0123061Y0091460D01*
X0124235Y0090286D01*
X0124400Y0090218D01*
X0124400Y0085689D01*
X0125689Y0084400D01*
X0149400Y0084400D01*
X0149400Y0045689D01*
X0150689Y0044400D01*
X0166991Y0044400D01*
X0167276Y0043711D01*
X0168711Y0042276D01*
X0170586Y0041500D01*
X0172614Y0041500D01*
X0174489Y0042276D01*
X0175924Y0043711D01*
X0176209Y0044400D01*
X0179400Y0044400D01*
X0179400Y0035689D01*
X0180689Y0034400D01*
X0209400Y0034400D01*
X0209400Y0029531D01*
X0208954Y0029346D01*
X0207561Y0027954D01*
X0206807Y0026135D01*
X0206807Y0017065D01*
X0207561Y0015246D01*
X0208954Y0013854D01*
X0209083Y0013800D01*
X0203800Y0013800D01*
X0203800Y0032511D01*
X0202511Y0033800D01*
X0143800Y0033800D01*
X0143800Y0041991D01*
X0144489Y0042276D01*
X0145924Y0043711D01*
X0146700Y0045586D01*
X0146700Y0047614D01*
X0145924Y0049489D01*
X0144489Y0050924D01*
X0142614Y0051700D01*
X0140586Y0051700D01*
X0138711Y0050924D01*
X0137276Y0049489D01*
X0136500Y0047614D01*
X0136500Y0045586D01*
X0137276Y0043711D01*
X0138711Y0042276D01*
X0139400Y0041991D01*
X0139400Y0030689D01*
X0140689Y0029400D01*
X0164083Y0029400D01*
X0163954Y0029346D01*
X0162561Y0027954D01*
X0161807Y0026135D01*
X0161807Y0023800D01*
X0133800Y0023800D01*
X0133800Y0059400D01*
X0136991Y0059400D01*
X0137276Y0058711D01*
X0138711Y0057276D01*
X0140586Y0056500D01*
X0142614Y0056500D01*
X0144489Y0057276D01*
X0145924Y0058711D01*
X0146700Y0060586D01*
X0146700Y0062614D01*
X0145924Y0064489D01*
X0144489Y0065924D01*
X0142614Y0066700D01*
X0140586Y0066700D01*
X0138711Y0065924D01*
X0137276Y0064489D01*
X0136991Y0063800D01*
X0133800Y0063800D01*
X0133800Y0082511D01*
X0132511Y0083800D01*
X0118800Y0083800D01*
X0118800Y0090218D01*
X0118965Y0090286D01*
X0120139Y0091460D01*
X0120775Y0092995D01*
X0120775Y0100205D01*
X0120139Y0101740D01*
X0118965Y0102914D01*
X0117430Y0103550D01*
X0115770Y0103550D01*
X0114235Y0102914D01*
X0113061Y0101740D01*
X0112425Y0100205D01*
X0112425Y0092995D01*
X0113061Y0091460D01*
X0114235Y0090286D01*
X0114400Y0090218D01*
X0114400Y0080689D01*
X0115689Y0079400D01*
X0129400Y0079400D01*
X0129400Y0020689D01*
X0130689Y0019400D01*
X0161807Y0019400D01*
X0161807Y0017065D01*
X0162561Y0015246D01*
X0163954Y0013854D01*
X0164083Y0013800D01*
X0123800Y0013800D01*
X0123800Y0062511D01*
X0122511Y0063800D01*
X0116209Y0063800D01*
X0115924Y0064489D01*
X0114489Y0065924D01*
X0112614Y0066700D01*
X0110586Y0066700D01*
X0108711Y0065924D01*
X0107276Y0064489D01*
X0106500Y0062614D01*
X0106500Y0060586D01*
X0107276Y0058711D01*
X0108711Y0057276D01*
X0110586Y0056500D01*
X0112614Y0056500D01*
X0114489Y0057276D01*
X0115924Y0058711D01*
X0116209Y0059400D01*
X0119400Y0059400D01*
X0119400Y0038800D01*
X0095689Y0038800D01*
X0094400Y0037511D01*
X0094400Y0013800D01*
X0089432Y0013800D01*
X0089561Y0013854D01*
X0090954Y0015246D01*
X0091707Y0017065D01*
X0091707Y0026135D01*
X0090954Y0027954D01*
X0089561Y0029346D01*
X0087742Y0030100D01*
X0085773Y0030100D01*
X0083954Y0029346D01*
X0083800Y0029193D01*
X0083800Y0054400D01*
X0096991Y0054400D01*
X0097276Y0053711D01*
X0098711Y0052276D01*
X0100586Y0051500D01*
X0102614Y0051500D01*
X0104489Y0052276D01*
X0105924Y0053711D01*
X0106700Y0055586D01*
X0106700Y0057614D01*
X0105924Y0059489D01*
X0104489Y0060924D01*
X0102614Y0061700D01*
X0100586Y0061700D01*
X0098711Y0060924D01*
X0097276Y0059489D01*
X0096991Y0058800D01*
X0083800Y0058800D01*
X0083800Y0079400D01*
X0102511Y0079400D01*
X0103800Y0080689D01*
X0103800Y0090721D01*
X0104235Y0090286D01*
X0105770Y0089650D01*
X0107430Y0089650D01*
X0108965Y0090286D01*
X0110139Y0091460D01*
X0110775Y0092995D01*
X0110775Y0100205D01*
X0110139Y0101740D01*
X0108965Y0102914D01*
X0107430Y0103550D01*
X0105770Y0103550D01*
X0104235Y0102914D01*
X0103800Y0102479D01*
X0103800Y0159400D01*
X0122992Y0159400D01*
X0123061Y0159235D01*
X0124235Y0158061D01*
X0125770Y0157425D01*
X0127430Y0157425D01*
X0128965Y0158061D01*
X0130139Y0159235D01*
X0130775Y0160770D01*
X0130775Y0162430D01*
X0130139Y0163965D01*
X0128965Y0165139D01*
X0127430Y0165775D01*
X0125770Y0165775D01*
X0124235Y0165139D01*
X0123061Y0163965D01*
X0122992Y0163800D01*
X0100689Y0163800D01*
X0099400Y0162511D01*
X0099400Y0083800D01*
X0080689Y0083800D01*
X0079400Y0082511D01*
X0079400Y0020689D01*
X0080689Y0019400D01*
X0081807Y0019400D01*
X0081807Y0017065D01*
X0082561Y0015246D01*
X0083954Y0013854D01*
X0084083Y0013800D01*
X0073800Y0013800D01*
X0073800Y0051991D01*
X0074489Y0052276D01*
X0075924Y0053711D01*
X0076700Y0055586D01*
X0076700Y0057614D01*
X0075924Y0059489D01*
X0074489Y0060924D01*
X0072614Y0061700D01*
X0070586Y0061700D01*
X0068711Y0060924D01*
X0067276Y0059489D01*
X0066991Y0058800D01*
X0066209Y0058800D01*
X0065924Y0059489D01*
X0064489Y0060924D01*
X0062614Y0061700D01*
X0060586Y0061700D01*
X0058711Y0060924D01*
X0057276Y0059489D01*
X0056991Y0058800D01*
X0056209Y0058800D01*
X0055924Y0059489D01*
X0054489Y0060924D01*
X0052614Y0061700D01*
X0050586Y0061700D01*
X0048711Y0060924D01*
X0047276Y0059489D01*
X0046500Y0057614D01*
X0046500Y0055586D01*
X0047276Y0053711D01*
X0048711Y0052276D01*
X0050586Y0051500D01*
X0052614Y0051500D01*
X0054489Y0052276D01*
X0055924Y0053711D01*
X0056209Y0054400D01*
X0056991Y0054400D01*
X0057276Y0053711D01*
X0058711Y0052276D01*
X0060586Y0051500D01*
X0062614Y0051500D01*
X0064489Y0052276D01*
X0065924Y0053711D01*
X0066209Y0054400D01*
X0066991Y0054400D01*
X0067276Y0053711D01*
X0068711Y0052276D01*
X0069400Y0051991D01*
X0069400Y0010689D01*
X0070689Y0009400D01*
X0097511Y0009400D01*
X0098800Y0010689D01*
X0098800Y0034400D01*
X0119400Y0034400D01*
X0119400Y0010689D01*
X0120689Y0009400D01*
X0177511Y0009400D01*
X0178800Y0010689D01*
X0178800Y0029400D01*
X0183530Y0029400D01*
X0183088Y0029078D01*
X0182514Y0028505D01*
X0182038Y0027849D01*
X0181670Y0027127D01*
X0181419Y0026356D01*
X0181293Y0025555D01*
X0181293Y0022175D01*
X0185867Y0022175D01*
X0185867Y0021025D01*
X0181293Y0021025D01*
X0181293Y0017645D01*
X0181419Y0016844D01*
X0181670Y0016073D01*
X0182038Y0015351D01*
X0182514Y0014695D01*
X0183088Y0014122D01*
X0183743Y0013645D01*
X0184466Y0013277D01*
X0185237Y0013027D01*
X0185867Y0012927D01*
X0185867Y0021025D01*
X0187018Y0021025D01*
X0187018Y0022175D01*
X0191593Y0022175D01*
X0191593Y0025555D01*
X0191466Y0026356D01*
X0191215Y0027127D01*
X0190847Y0027849D01*
X0190371Y0028505D01*
X0189798Y0029078D01*
X0189355Y0029400D01*
X0199400Y0029400D01*
X0199400Y0010689D01*
X0200689Y0009400D01*
X0222511Y0009400D01*
X0223800Y0010689D01*
X0223800Y0034400D01*
X0232511Y0034400D01*
X0233800Y0035689D01*
X0233800Y0067511D01*
X0232511Y0068800D01*
X0208800Y0068800D01*
X0208800Y0084400D01*
X0232511Y0084400D01*
X0233800Y0085689D01*
X0233800Y0112511D01*
X0232511Y0113800D01*
X0193800Y0113800D01*
X0193800Y0126991D01*
X0194489Y0127276D01*
X0195924Y0128711D01*
X0196209Y0129400D01*
X0232511Y0129400D01*
X0233800Y0130689D01*
X0233800Y0157511D01*
X0232511Y0158800D01*
X0203800Y0158800D01*
X0203800Y0167511D01*
X0202511Y0168800D01*
X0193800Y0168800D01*
X0193800Y0176991D01*
X0194489Y0177276D01*
X0195924Y0178711D01*
X0196209Y0179400D01*
X0232511Y0179400D01*
X0233800Y0180689D01*
X0233800Y0202511D01*
X0232511Y0203800D01*
X0180960Y0203800D01*
X0181700Y0205586D01*
X0181700Y0207614D01*
X0180924Y0209489D01*
X0179489Y0210924D01*
X0178800Y0211209D01*
X0178800Y0262511D01*
X0177511Y0263800D01*
X0178800Y0262258D02*
X0243901Y0262258D01*
X0243901Y0261059D02*
X0178800Y0261059D01*
X0178800Y0259861D02*
X0243901Y0259861D01*
X0243901Y0258662D02*
X0178800Y0258662D01*
X0178800Y0257464D02*
X0243901Y0257464D01*
X0243901Y0256265D02*
X0178800Y0256265D01*
X0178800Y0255067D02*
X0243901Y0255067D01*
X0243901Y0253868D02*
X0178800Y0253868D01*
X0178800Y0252670D02*
X0243901Y0252670D01*
X0243901Y0251471D02*
X0178800Y0251471D01*
X0178800Y0250272D02*
X0243901Y0250272D01*
X0243901Y0249074D02*
X0178800Y0249074D01*
X0178800Y0247875D02*
X0243901Y0247875D01*
X0243901Y0246677D02*
X0178800Y0246677D01*
X0178800Y0245478D02*
X0243901Y0245478D01*
X0243901Y0244280D02*
X0178800Y0244280D01*
X0178800Y0243081D02*
X0243901Y0243081D01*
X0243901Y0241883D02*
X0178800Y0241883D01*
X0178800Y0240684D02*
X0243901Y0240684D01*
X0243901Y0239486D02*
X0178800Y0239486D01*
X0178800Y0238287D02*
X0243901Y0238287D01*
X0243901Y0237089D02*
X0178800Y0237089D01*
X0178800Y0235890D02*
X0243901Y0235890D01*
X0243901Y0234692D02*
X0178800Y0234692D01*
X0178800Y0233493D02*
X0243901Y0233493D01*
X0243901Y0232295D02*
X0178800Y0232295D01*
X0178800Y0231096D02*
X0243901Y0231096D01*
X0243901Y0229898D02*
X0178800Y0229898D01*
X0178800Y0228699D02*
X0243901Y0228699D01*
X0243901Y0227501D02*
X0178800Y0227501D01*
X0178800Y0226302D02*
X0243901Y0226302D01*
X0243901Y0225104D02*
X0178800Y0225104D01*
X0178800Y0223905D02*
X0243901Y0223905D01*
X0243901Y0222707D02*
X0178800Y0222707D01*
X0178800Y0221508D02*
X0243901Y0221508D01*
X0243901Y0220310D02*
X0178800Y0220310D01*
X0178800Y0219111D02*
X0243901Y0219111D01*
X0243901Y0217913D02*
X0178800Y0217913D01*
X0178800Y0216714D02*
X0243901Y0216714D01*
X0243901Y0215516D02*
X0228305Y0215516D01*
X0228505Y0215371D02*
X0227849Y0215847D01*
X0227127Y0216215D01*
X0226356Y0216466D01*
X0225555Y0216593D01*
X0222175Y0216593D01*
X0222175Y0212018D01*
X0221025Y0212018D01*
X0221025Y0216593D01*
X0217645Y0216593D01*
X0216844Y0216466D01*
X0216073Y0216215D01*
X0215351Y0215847D01*
X0214695Y0215371D01*
X0214122Y0214798D01*
X0213645Y0214142D01*
X0213277Y0213419D01*
X0213027Y0212648D01*
X0212927Y0212018D01*
X0221025Y0212018D01*
X0221025Y0210867D01*
X0222175Y0210867D01*
X0222175Y0206293D01*
X0225555Y0206293D01*
X0226356Y0206419D01*
X0227127Y0206670D01*
X0227849Y0207038D01*
X0228505Y0207514D01*
X0229078Y0208088D01*
X0229555Y0208743D01*
X0229923Y0209466D01*
X0230173Y0210237D01*
X0230273Y0210867D01*
X0222175Y0210867D01*
X0222175Y0212018D01*
X0230273Y0212018D01*
X0230173Y0212648D01*
X0229923Y0213419D01*
X0229555Y0214142D01*
X0229078Y0214798D01*
X0228505Y0215371D01*
X0229427Y0214317D02*
X0243901Y0214317D01*
X0243901Y0213119D02*
X0230020Y0213119D01*
X0230250Y0210722D02*
X0243901Y0210722D01*
X0243901Y0211920D02*
X0222175Y0211920D01*
X0221025Y0211920D02*
X0178800Y0211920D01*
X0178800Y0213119D02*
X0213180Y0213119D01*
X0213773Y0214317D02*
X0178800Y0214317D01*
X0178800Y0215516D02*
X0214895Y0215516D01*
X0212927Y0210867D02*
X0213027Y0210237D01*
X0213277Y0209466D01*
X0213645Y0208743D01*
X0214122Y0208088D01*
X0214695Y0207514D01*
X0215351Y0207038D01*
X0216073Y0206670D01*
X0216844Y0206419D01*
X0217645Y0206293D01*
X0221025Y0206293D01*
X0221025Y0210867D01*
X0212927Y0210867D01*
X0212950Y0210722D02*
X0179691Y0210722D01*
X0180889Y0209523D02*
X0213259Y0209523D01*
X0213950Y0208325D02*
X0181406Y0208325D01*
X0181700Y0207126D02*
X0215229Y0207126D01*
X0221025Y0207126D02*
X0222175Y0207126D01*
X0222175Y0208325D02*
X0221025Y0208325D01*
X0221025Y0209523D02*
X0222175Y0209523D01*
X0222175Y0210722D02*
X0221025Y0210722D01*
X0221025Y0213119D02*
X0222175Y0213119D01*
X0222175Y0214317D02*
X0221025Y0214317D01*
X0221025Y0215516D02*
X0222175Y0215516D01*
X0229941Y0209523D02*
X0243901Y0209523D01*
X0243901Y0208325D02*
X0229250Y0208325D01*
X0227971Y0207126D02*
X0243901Y0207126D01*
X0243901Y0205928D02*
X0181700Y0205928D01*
X0181345Y0204729D02*
X0243901Y0204729D01*
X0243901Y0203531D02*
X0232781Y0203531D01*
X0233800Y0202332D02*
X0243901Y0202332D01*
X0243901Y0201134D02*
X0233800Y0201134D01*
X0233800Y0199935D02*
X0243901Y0199935D01*
X0243901Y0198737D02*
X0233800Y0198737D01*
X0233800Y0197538D02*
X0243901Y0197538D01*
X0243901Y0196339D02*
X0233800Y0196339D01*
X0233800Y0195141D02*
X0243901Y0195141D01*
X0243901Y0193942D02*
X0233800Y0193942D01*
X0233800Y0192744D02*
X0243901Y0192744D01*
X0243901Y0191545D02*
X0233800Y0191545D01*
X0233800Y0190347D02*
X0243901Y0190347D01*
X0243901Y0189148D02*
X0233800Y0189148D01*
X0233800Y0187950D02*
X0243901Y0187950D01*
X0243901Y0186751D02*
X0233800Y0186751D01*
X0233800Y0185553D02*
X0243901Y0185553D01*
X0243901Y0184354D02*
X0233800Y0184354D01*
X0233800Y0183156D02*
X0243901Y0183156D01*
X0243901Y0181957D02*
X0233800Y0181957D01*
X0233800Y0180759D02*
X0243901Y0180759D01*
X0243901Y0179560D02*
X0232672Y0179560D01*
X0229400Y0184354D02*
X0195979Y0184354D01*
X0194860Y0185553D02*
X0229400Y0185553D01*
X0229400Y0186751D02*
X0178800Y0186751D01*
X0178800Y0185553D02*
X0188340Y0185553D01*
X0187221Y0184354D02*
X0178800Y0184354D01*
X0178800Y0183156D02*
X0186724Y0183156D01*
X0186500Y0181957D02*
X0178800Y0181957D01*
X0179654Y0180759D02*
X0186500Y0180759D01*
X0186925Y0179560D02*
X0180852Y0179560D01*
X0181390Y0178362D02*
X0187626Y0178362D01*
X0188984Y0177163D02*
X0181700Y0177163D01*
X0181700Y0175965D02*
X0189400Y0175965D01*
X0189400Y0174766D02*
X0181361Y0174766D01*
X0180780Y0173568D02*
X0189400Y0173568D01*
X0189400Y0172369D02*
X0179582Y0172369D01*
X0178800Y0171171D02*
X0189400Y0171171D01*
X0189400Y0169972D02*
X0178800Y0169972D01*
X0178800Y0168774D02*
X0189400Y0168774D01*
X0189400Y0167575D02*
X0178800Y0167575D01*
X0178800Y0166377D02*
X0189400Y0166377D01*
X0189911Y0165178D02*
X0178289Y0165178D01*
X0174400Y0169972D02*
X0146907Y0169972D01*
X0147247Y0173568D02*
X0172420Y0173568D01*
X0171839Y0174766D02*
X0162878Y0174766D01*
X0163800Y0175965D02*
X0171500Y0175965D01*
X0171500Y0177163D02*
X0163800Y0177163D01*
X0163800Y0178362D02*
X0171810Y0178362D01*
X0172348Y0179560D02*
X0163800Y0179560D01*
X0163800Y0180759D02*
X0173546Y0180759D01*
X0174400Y0181957D02*
X0163800Y0181957D01*
X0163800Y0183156D02*
X0174400Y0183156D01*
X0174400Y0184354D02*
X0163800Y0184354D01*
X0163800Y0185553D02*
X0174400Y0185553D01*
X0174400Y0186751D02*
X0163800Y0186751D01*
X0163800Y0187950D02*
X0174400Y0187950D01*
X0174400Y0189148D02*
X0163800Y0189148D01*
X0163800Y0190347D02*
X0174400Y0190347D01*
X0174400Y0191545D02*
X0163800Y0191545D01*
X0163800Y0192744D02*
X0174633Y0192744D01*
X0178800Y0189148D02*
X0213773Y0189148D01*
X0214857Y0187950D02*
X0178800Y0187950D01*
X0175154Y0199935D02*
X0163800Y0199935D01*
X0163800Y0198737D02*
X0229400Y0198737D01*
X0229400Y0197538D02*
X0163800Y0197538D01*
X0163800Y0196339D02*
X0216177Y0196339D01*
X0214433Y0195141D02*
X0163800Y0195141D01*
X0163800Y0193942D02*
X0213597Y0193942D01*
X0227023Y0196339D02*
X0229400Y0196339D01*
X0229400Y0195141D02*
X0228767Y0195141D01*
X0228343Y0187950D02*
X0229400Y0187950D01*
X0226356Y0171466D02*
X0225555Y0171593D01*
X0222175Y0171593D01*
X0222175Y0167018D01*
X0221025Y0167018D01*
X0221025Y0171593D01*
X0217645Y0171593D01*
X0216844Y0171466D01*
X0216073Y0171215D01*
X0215351Y0170847D01*
X0214695Y0170371D01*
X0214122Y0169798D01*
X0213645Y0169142D01*
X0213277Y0168419D01*
X0213027Y0167648D01*
X0212927Y0167018D01*
X0221025Y0167018D01*
X0221025Y0165867D01*
X0222175Y0165867D01*
X0222175Y0161293D01*
X0225555Y0161293D01*
X0226356Y0161419D01*
X0227127Y0161670D01*
X0227849Y0162038D01*
X0228505Y0162514D01*
X0229078Y0163088D01*
X0229555Y0163743D01*
X0229923Y0164466D01*
X0230173Y0165237D01*
X0230273Y0165867D01*
X0222175Y0165867D01*
X0222175Y0167018D01*
X0230273Y0167018D01*
X0230173Y0167648D01*
X0229923Y0168419D01*
X0229555Y0169142D01*
X0229078Y0169798D01*
X0228505Y0170371D01*
X0227849Y0170847D01*
X0227127Y0171215D01*
X0226356Y0171466D01*
X0227214Y0171171D02*
X0243901Y0171171D01*
X0243901Y0172369D02*
X0193800Y0172369D01*
X0193800Y0171171D02*
X0215986Y0171171D01*
X0214297Y0169972D02*
X0193800Y0169972D01*
X0193800Y0173568D02*
X0243901Y0173568D01*
X0243901Y0174766D02*
X0193800Y0174766D01*
X0193800Y0175965D02*
X0243901Y0175965D01*
X0243901Y0177163D02*
X0194216Y0177163D01*
X0195574Y0178362D02*
X0243901Y0178362D01*
X0243901Y0169972D02*
X0228903Y0169972D01*
X0229742Y0168774D02*
X0243901Y0168774D01*
X0243901Y0167575D02*
X0230185Y0167575D01*
X0230154Y0165178D02*
X0243901Y0165178D01*
X0243901Y0163980D02*
X0229675Y0163980D01*
X0228772Y0162781D02*
X0243901Y0162781D01*
X0243901Y0161583D02*
X0226859Y0161583D01*
X0222175Y0161583D02*
X0221025Y0161583D01*
X0221025Y0161293D02*
X0221025Y0165867D01*
X0212927Y0165867D01*
X0213027Y0165237D01*
X0213277Y0164466D01*
X0213645Y0163743D01*
X0214122Y0163088D01*
X0214695Y0162514D01*
X0215351Y0162038D01*
X0216073Y0161670D01*
X0216844Y0161419D01*
X0217645Y0161293D01*
X0221025Y0161293D01*
X0221025Y0162781D02*
X0222175Y0162781D01*
X0222175Y0163980D02*
X0221025Y0163980D01*
X0221025Y0165178D02*
X0222175Y0165178D01*
X0222175Y0166377D02*
X0243901Y0166377D01*
X0243901Y0160384D02*
X0203800Y0160384D01*
X0203800Y0159186D02*
X0243901Y0159186D01*
X0243901Y0157987D02*
X0233324Y0157987D01*
X0233800Y0156789D02*
X0243901Y0156789D01*
X0243901Y0155590D02*
X0233800Y0155590D01*
X0233800Y0154392D02*
X0243901Y0154392D01*
X0243901Y0153193D02*
X0233800Y0153193D01*
X0233800Y0151995D02*
X0243901Y0151995D01*
X0243901Y0150796D02*
X0233800Y0150796D01*
X0233800Y0149598D02*
X0243901Y0149598D01*
X0243901Y0148399D02*
X0233800Y0148399D01*
X0233800Y0147201D02*
X0243901Y0147201D01*
X0243901Y0146002D02*
X0233800Y0146002D01*
X0233800Y0144803D02*
X0243901Y0144803D01*
X0243901Y0143605D02*
X0233800Y0143605D01*
X0233800Y0142406D02*
X0243901Y0142406D01*
X0243901Y0141208D02*
X0233800Y0141208D01*
X0233800Y0140009D02*
X0243901Y0140009D01*
X0243901Y0138811D02*
X0233800Y0138811D01*
X0233800Y0137612D02*
X0243901Y0137612D01*
X0243901Y0136414D02*
X0233800Y0136414D01*
X0233800Y0135215D02*
X0243901Y0135215D01*
X0243901Y0134017D02*
X0233800Y0134017D01*
X0233800Y0132818D02*
X0243901Y0132818D01*
X0243901Y0131620D02*
X0233800Y0131620D01*
X0233533Y0130421D02*
X0243901Y0130421D01*
X0243901Y0129223D02*
X0196136Y0129223D01*
X0195237Y0128024D02*
X0243901Y0128024D01*
X0243901Y0126826D02*
X0193800Y0126826D01*
X0193800Y0125627D02*
X0215048Y0125627D01*
X0215351Y0125847D02*
X0214695Y0125371D01*
X0214122Y0124798D01*
X0213645Y0124142D01*
X0213277Y0123419D01*
X0213027Y0122648D01*
X0212927Y0122018D01*
X0221025Y0122018D01*
X0221025Y0126593D01*
X0217645Y0126593D01*
X0216844Y0126466D01*
X0216073Y0126215D01*
X0215351Y0125847D01*
X0213854Y0124429D02*
X0193800Y0124429D01*
X0193800Y0123230D02*
X0213216Y0123230D01*
X0212929Y0122032D02*
X0193800Y0122032D01*
X0193800Y0120833D02*
X0212932Y0120833D01*
X0212927Y0120867D02*
X0213027Y0120237D01*
X0213277Y0119466D01*
X0213645Y0118743D01*
X0214122Y0118088D01*
X0214695Y0117514D01*
X0215351Y0117038D01*
X0216073Y0116670D01*
X0216844Y0116419D01*
X0217645Y0116293D01*
X0221025Y0116293D01*
X0221025Y0120867D01*
X0222175Y0120867D01*
X0222175Y0116293D01*
X0225555Y0116293D01*
X0226356Y0116419D01*
X0227127Y0116670D01*
X0227849Y0117038D01*
X0228505Y0117514D01*
X0229078Y0118088D01*
X0229555Y0118743D01*
X0229923Y0119466D01*
X0230173Y0120237D01*
X0230273Y0120867D01*
X0222175Y0120867D01*
X0222175Y0122018D01*
X0221025Y0122018D01*
X0221025Y0120867D01*
X0212927Y0120867D01*
X0213222Y0119635D02*
X0193800Y0119635D01*
X0193800Y0118436D02*
X0213868Y0118436D01*
X0215076Y0117238D02*
X0193800Y0117238D01*
X0193800Y0116039D02*
X0243901Y0116039D01*
X0243901Y0114841D02*
X0193800Y0114841D01*
X0189400Y0114841D02*
X0183800Y0114841D01*
X0183800Y0116039D02*
X0189400Y0116039D01*
X0189400Y0117238D02*
X0183800Y0117238D01*
X0183800Y0118436D02*
X0189400Y0118436D01*
X0189400Y0119635D02*
X0183800Y0119635D01*
X0183800Y0120833D02*
X0189400Y0120833D01*
X0189400Y0122032D02*
X0183800Y0122032D01*
X0183800Y0123230D02*
X0189400Y0123230D01*
X0189400Y0124429D02*
X0183800Y0124429D01*
X0183800Y0125627D02*
X0189400Y0125627D01*
X0189400Y0126826D02*
X0183800Y0126826D01*
X0183800Y0128024D02*
X0187963Y0128024D01*
X0187064Y0129223D02*
X0183800Y0129223D01*
X0183800Y0130421D02*
X0186568Y0130421D01*
X0186500Y0131620D02*
X0183800Y0131620D01*
X0183800Y0132818D02*
X0186584Y0132818D01*
X0187081Y0134017D02*
X0183800Y0134017D01*
X0183800Y0135215D02*
X0188003Y0135215D01*
X0189895Y0136414D02*
X0183800Y0136414D01*
X0183800Y0137612D02*
X0229400Y0137612D01*
X0229400Y0136414D02*
X0193305Y0136414D01*
X0195197Y0135215D02*
X0229400Y0135215D01*
X0229400Y0134017D02*
X0196119Y0134017D01*
X0190285Y0144803D02*
X0183800Y0144803D01*
X0183800Y0143605D02*
X0214202Y0143605D01*
X0215619Y0142406D02*
X0183800Y0142406D01*
X0183800Y0141208D02*
X0229400Y0141208D01*
X0229400Y0142406D02*
X0227581Y0142406D01*
X0228998Y0143605D02*
X0229400Y0143605D01*
X0229400Y0140009D02*
X0183800Y0140009D01*
X0183800Y0138811D02*
X0229400Y0138811D01*
X0229310Y0149598D02*
X0229400Y0149598D01*
X0229400Y0150796D02*
X0228112Y0150796D01*
X0229400Y0151995D02*
X0196700Y0151995D01*
X0196700Y0150796D02*
X0215088Y0150796D01*
X0213890Y0149598D02*
X0196291Y0149598D01*
X0196460Y0153193D02*
X0229400Y0153193D01*
X0229400Y0154392D02*
X0195964Y0154392D01*
X0194822Y0155590D02*
X0199499Y0155590D01*
X0199400Y0156789D02*
X0188800Y0156789D01*
X0188324Y0157987D02*
X0199400Y0157987D01*
X0199400Y0159186D02*
X0147693Y0159186D01*
X0146148Y0160384D02*
X0199400Y0160384D01*
X0199400Y0161583D02*
X0130775Y0161583D01*
X0130630Y0162781D02*
X0137135Y0162781D01*
X0135541Y0163980D02*
X0130124Y0163980D01*
X0128871Y0165178D02*
X0134895Y0165178D01*
X0134650Y0166377D02*
X0098800Y0166377D01*
X0098800Y0167575D02*
X0125407Y0167575D01*
X0125770Y0167425D02*
X0127430Y0167425D01*
X0128965Y0168061D01*
X0130139Y0169235D01*
X0130775Y0170770D01*
X0130775Y0172430D01*
X0130139Y0173965D01*
X0128965Y0175139D01*
X0127430Y0175775D01*
X0125770Y0175775D01*
X0124235Y0175139D01*
X0123061Y0173965D01*
X0122992Y0173800D01*
X0095689Y0173800D01*
X0094400Y0172511D01*
X0094400Y0088800D01*
X0075689Y0088800D01*
X0074400Y0087511D01*
X0074400Y0068800D01*
X0020689Y0068800D01*
X0019400Y0067511D01*
X0019400Y0061209D01*
X0018711Y0060924D01*
X0017276Y0059489D01*
X0016500Y0057614D01*
X0016500Y0055586D01*
X0017276Y0053711D01*
X0018711Y0052276D01*
X0019400Y0051991D01*
X0019400Y0020689D01*
X0020689Y0019400D01*
X0036807Y0019400D01*
X0036807Y0017065D01*
X0037561Y0015246D01*
X0038954Y0013854D01*
X0040773Y0013100D01*
X0042742Y0013100D01*
X0044561Y0013854D01*
X0045954Y0015246D01*
X0046707Y0017065D01*
X0046707Y0026135D01*
X0045954Y0027954D01*
X0044561Y0029346D01*
X0042742Y0030100D01*
X0040773Y0030100D01*
X0038954Y0029346D01*
X0037561Y0027954D01*
X0036807Y0026135D01*
X0036807Y0023800D01*
X0023800Y0023800D01*
X0023800Y0051991D01*
X0024489Y0052276D01*
X0025924Y0053711D01*
X0026700Y0055586D01*
X0026700Y0057614D01*
X0025924Y0059489D01*
X0024489Y0060924D01*
X0023800Y0061209D01*
X0023800Y0064400D01*
X0077511Y0064400D01*
X0078800Y0065689D01*
X0078800Y0084400D01*
X0097511Y0084400D01*
X0098800Y0085689D01*
X0098800Y0169400D01*
X0122992Y0169400D01*
X0123061Y0169235D01*
X0124235Y0168061D01*
X0125770Y0167425D01*
X0127793Y0167575D02*
X0134710Y0167575D01*
X0135207Y0168774D02*
X0129678Y0168774D01*
X0130445Y0169972D02*
X0136293Y0169972D01*
X0135953Y0173568D02*
X0130304Y0173568D01*
X0130775Y0172369D02*
X0173618Y0172369D01*
X0174400Y0171171D02*
X0130775Y0171171D01*
X0129338Y0174766D02*
X0135066Y0174766D01*
X0134650Y0175965D02*
X0088704Y0175965D01*
X0088750Y0176256D02*
X0088750Y0176413D01*
X0081787Y0176413D01*
X0081787Y0172225D01*
X0084719Y0172225D01*
X0085399Y0172333D01*
X0086054Y0172546D01*
X0086668Y0172858D01*
X0087225Y0173263D01*
X0087712Y0173750D01*
X0088116Y0174307D01*
X0088429Y0174921D01*
X0088642Y0175576D01*
X0088750Y0176256D01*
X0088750Y0176787D02*
X0088750Y0176944D01*
X0088642Y0177624D01*
X0088429Y0178279D01*
X0088116Y0178893D01*
X0087712Y0179450D01*
X0087225Y0179937D01*
X0086668Y0180342D01*
X0086054Y0180654D01*
X0085399Y0180867D01*
X0084719Y0180975D01*
X0081787Y0180975D01*
X0081787Y0176787D01*
X0081413Y0176787D01*
X0081413Y0176413D01*
X0081787Y0176413D01*
X0081787Y0176787D01*
X0088750Y0176787D01*
X0088715Y0177163D02*
X0134650Y0177163D01*
X0135036Y0178362D02*
X0088387Y0178362D01*
X0087601Y0179560D02*
X0135881Y0179560D01*
X0137956Y0180759D02*
X0085732Y0180759D01*
X0085205Y0182425D02*
X0086740Y0183061D01*
X0087914Y0184235D01*
X0088550Y0185770D01*
X0088550Y0187430D01*
X0087914Y0188965D01*
X0086740Y0190139D01*
X0085205Y0190775D01*
X0077995Y0190775D01*
X0076460Y0190139D01*
X0075286Y0188965D01*
X0074650Y0187430D01*
X0074650Y0185770D01*
X0075286Y0184235D01*
X0076460Y0183061D01*
X0077995Y0182425D01*
X0085205Y0182425D01*
X0086835Y0183156D02*
X0136365Y0183156D01*
X0136460Y0183061D02*
X0137995Y0182425D01*
X0145205Y0182425D01*
X0146740Y0183061D01*
X0147914Y0184235D01*
X0148550Y0185770D01*
X0148550Y0187430D01*
X0147914Y0188965D01*
X0146740Y0190139D01*
X0145205Y0190775D01*
X0137995Y0190775D01*
X0136460Y0190139D01*
X0135286Y0188965D01*
X0134650Y0187430D01*
X0134650Y0185770D01*
X0135286Y0184235D01*
X0136460Y0183061D01*
X0135237Y0184354D02*
X0087963Y0184354D01*
X0088460Y0185553D02*
X0134740Y0185553D01*
X0134650Y0186751D02*
X0088550Y0186751D01*
X0088334Y0187950D02*
X0134866Y0187950D01*
X0135470Y0189148D02*
X0087730Y0189148D01*
X0086238Y0190347D02*
X0136962Y0190347D01*
X0137995Y0192425D02*
X0136460Y0193061D01*
X0135286Y0194235D01*
X0134650Y0195770D01*
X0134650Y0197430D01*
X0135286Y0198965D01*
X0136460Y0200139D01*
X0137995Y0200775D01*
X0145205Y0200775D01*
X0146740Y0200139D01*
X0147914Y0198965D01*
X0148550Y0197430D01*
X0148550Y0195770D01*
X0147914Y0194235D01*
X0146740Y0193061D01*
X0145205Y0192425D01*
X0137995Y0192425D01*
X0137225Y0192744D02*
X0085975Y0192744D01*
X0086740Y0193061D02*
X0087914Y0194235D01*
X0088550Y0195770D01*
X0088550Y0197430D01*
X0087914Y0198965D01*
X0086740Y0200139D01*
X0085205Y0200775D01*
X0077995Y0200775D01*
X0076460Y0200139D01*
X0075286Y0198965D01*
X0074650Y0197430D01*
X0074650Y0195770D01*
X0075286Y0194235D01*
X0076460Y0193061D01*
X0077995Y0192425D01*
X0085205Y0192425D01*
X0086740Y0193061D01*
X0087621Y0193942D02*
X0135579Y0193942D01*
X0134911Y0195141D02*
X0088289Y0195141D01*
X0088550Y0196339D02*
X0134650Y0196339D01*
X0134695Y0197538D02*
X0088505Y0197538D01*
X0088009Y0198737D02*
X0135191Y0198737D01*
X0136256Y0199935D02*
X0086944Y0199935D01*
X0085205Y0202425D02*
X0086740Y0203061D01*
X0087914Y0204235D01*
X0088550Y0205770D01*
X0088550Y0207430D01*
X0087914Y0208965D01*
X0087228Y0209650D01*
X0087430Y0209650D01*
X0088965Y0210286D01*
X0090139Y0211460D01*
X0090775Y0212995D01*
X0090775Y0220205D01*
X0090139Y0221740D01*
X0088965Y0222914D01*
X0087430Y0223550D01*
X0085770Y0223550D01*
X0084235Y0222914D01*
X0083061Y0221740D01*
X0082425Y0220205D01*
X0082425Y0212995D01*
X0083061Y0211460D01*
X0083746Y0210775D01*
X0077995Y0210775D01*
X0076460Y0210139D01*
X0075286Y0208965D01*
X0074650Y0207430D01*
X0074650Y0205770D01*
X0075286Y0204235D01*
X0076460Y0203061D01*
X0077995Y0202425D01*
X0085205Y0202425D01*
X0087209Y0203531D02*
X0135991Y0203531D01*
X0135081Y0204729D02*
X0088119Y0204729D01*
X0088550Y0205928D02*
X0134650Y0205928D01*
X0134650Y0207126D02*
X0088550Y0207126D01*
X0088179Y0208325D02*
X0135021Y0208325D01*
X0135844Y0209523D02*
X0087356Y0209523D01*
X0089400Y0210722D02*
X0093800Y0210722D01*
X0094235Y0210286D02*
X0093061Y0211460D01*
X0092425Y0212995D01*
X0092425Y0220205D01*
X0093061Y0221740D01*
X0094235Y0222914D01*
X0095770Y0223550D01*
X0097430Y0223550D01*
X0098965Y0222914D01*
X0100139Y0221740D01*
X0100775Y0220205D01*
X0100775Y0212995D01*
X0100139Y0211460D01*
X0098965Y0210286D01*
X0097430Y0209650D01*
X0095770Y0209650D01*
X0094235Y0210286D01*
X0092870Y0211920D02*
X0090330Y0211920D01*
X0090775Y0213119D02*
X0092425Y0213119D01*
X0092425Y0214317D02*
X0090775Y0214317D01*
X0090775Y0215516D02*
X0092425Y0215516D01*
X0092425Y0216714D02*
X0090775Y0216714D01*
X0090775Y0217913D02*
X0092425Y0217913D01*
X0092425Y0219111D02*
X0090775Y0219111D01*
X0090732Y0220310D02*
X0092468Y0220310D01*
X0092965Y0221508D02*
X0090235Y0221508D01*
X0089172Y0222707D02*
X0094028Y0222707D01*
X0099172Y0222707D02*
X0104028Y0222707D01*
X0104235Y0222914D02*
X0103061Y0221740D01*
X0102425Y0220205D01*
X0102425Y0212995D01*
X0103061Y0211460D01*
X0104235Y0210286D01*
X0105770Y0209650D01*
X0107430Y0209650D01*
X0108965Y0210286D01*
X0110139Y0211460D01*
X0110775Y0212995D01*
X0110775Y0220205D01*
X0110139Y0221740D01*
X0108965Y0222914D01*
X0107430Y0223550D01*
X0105770Y0223550D01*
X0104235Y0222914D01*
X0102965Y0221508D02*
X0100235Y0221508D01*
X0100732Y0220310D02*
X0102468Y0220310D01*
X0102425Y0219111D02*
X0100775Y0219111D01*
X0100775Y0217913D02*
X0102425Y0217913D01*
X0102425Y0216714D02*
X0100775Y0216714D01*
X0100775Y0215516D02*
X0102425Y0215516D01*
X0102425Y0214317D02*
X0100775Y0214317D01*
X0100775Y0213119D02*
X0102425Y0213119D01*
X0102870Y0211920D02*
X0100330Y0211920D01*
X0099400Y0210722D02*
X0103800Y0210722D01*
X0109400Y0210722D02*
X0113800Y0210722D01*
X0114235Y0210286D02*
X0113061Y0211460D01*
X0112425Y0212995D01*
X0112425Y0220205D01*
X0113061Y0221740D01*
X0114235Y0222914D01*
X0115770Y0223550D01*
X0117430Y0223550D01*
X0118965Y0222914D01*
X0120139Y0221740D01*
X0120775Y0220205D01*
X0120775Y0212995D01*
X0120139Y0211460D01*
X0118965Y0210286D01*
X0117430Y0209650D01*
X0115770Y0209650D01*
X0114235Y0210286D01*
X0112870Y0211920D02*
X0110330Y0211920D01*
X0110775Y0213119D02*
X0112425Y0213119D01*
X0112425Y0214317D02*
X0110775Y0214317D01*
X0110775Y0215516D02*
X0112425Y0215516D01*
X0112425Y0216714D02*
X0110775Y0216714D01*
X0110775Y0217913D02*
X0112425Y0217913D01*
X0112425Y0219111D02*
X0110775Y0219111D01*
X0110732Y0220310D02*
X0112468Y0220310D01*
X0112965Y0221508D02*
X0110235Y0221508D01*
X0109172Y0222707D02*
X0114028Y0222707D01*
X0116326Y0228403D02*
X0115330Y0229399D01*
X0115330Y0230807D01*
X0116326Y0231803D01*
X0122004Y0231803D01*
X0123000Y0230807D01*
X0123000Y0229399D01*
X0122004Y0228403D01*
X0116326Y0228403D01*
X0116029Y0228699D02*
X0068800Y0228699D01*
X0068800Y0227501D02*
X0139400Y0227501D01*
X0139400Y0228699D02*
X0122301Y0228699D01*
X0123000Y0229898D02*
X0139400Y0229898D01*
X0139400Y0231096D02*
X0122711Y0231096D01*
X0122004Y0233403D02*
X0123000Y0234399D01*
X0123000Y0235807D01*
X0122004Y0236803D01*
X0116326Y0236803D01*
X0115330Y0235807D01*
X0115330Y0234399D01*
X0116326Y0233403D01*
X0122004Y0233403D01*
X0122095Y0233493D02*
X0139400Y0233493D01*
X0139400Y0232295D02*
X0068800Y0232295D01*
X0068800Y0231096D02*
X0115619Y0231096D01*
X0115330Y0229898D02*
X0068800Y0229898D01*
X0067818Y0233493D02*
X0116235Y0233493D01*
X0115330Y0234692D02*
X0029421Y0234692D01*
X0028222Y0235890D02*
X0115413Y0235890D01*
X0120383Y0243081D02*
X0030391Y0243081D01*
X0030469Y0242841D02*
X0030212Y0243634D01*
X0029833Y0244378D01*
X0029343Y0245053D01*
X0028753Y0245643D01*
X0028078Y0246133D01*
X0027334Y0246512D01*
X0026541Y0246769D01*
X0025717Y0246900D01*
X0022100Y0246900D01*
X0022100Y0242100D01*
X0030587Y0242100D01*
X0030469Y0242841D01*
X0029883Y0244280D02*
X0118244Y0244280D01*
X0117288Y0245478D02*
X0028917Y0245478D01*
X0026826Y0246677D02*
X0116789Y0246677D01*
X0116607Y0247875D02*
X0008800Y0247875D01*
X0008800Y0246677D02*
X0016374Y0246677D01*
X0014283Y0245478D02*
X0008800Y0245478D01*
X0008800Y0244280D02*
X0013317Y0244280D01*
X0012809Y0243081D02*
X0008800Y0243081D01*
X0008800Y0241883D02*
X0021100Y0241883D01*
X0022100Y0241883D02*
X0139400Y0241883D01*
X0139400Y0243081D02*
X0123132Y0243081D01*
X0122332Y0243081D02*
X0121182Y0243081D01*
X0121182Y0244280D02*
X0122332Y0244280D01*
X0122332Y0245478D02*
X0121182Y0245478D01*
X0121182Y0246677D02*
X0122332Y0246677D01*
X0122332Y0247875D02*
X0121182Y0247875D01*
X0121182Y0249074D02*
X0122332Y0249074D01*
X0122332Y0250272D02*
X0121182Y0250272D01*
X0121182Y0251471D02*
X0008800Y0251471D01*
X0008800Y0252670D02*
X0116607Y0252670D01*
X0116607Y0253868D02*
X0008800Y0253868D01*
X0008800Y0255067D02*
X0116607Y0255067D01*
X0116720Y0256265D02*
X0008800Y0256265D01*
X0008800Y0257464D02*
X0117156Y0257464D01*
X0117986Y0258662D02*
X0008800Y0258662D01*
X0004400Y0258662D02*
X0003000Y0258662D01*
X0003000Y0257464D02*
X0004400Y0257464D01*
X0004400Y0256265D02*
X0003000Y0256265D01*
X0003000Y0255067D02*
X0004400Y0255067D01*
X0004400Y0253868D02*
X0003000Y0253868D01*
X0003000Y0252670D02*
X0004400Y0252670D01*
X0004400Y0251471D02*
X0003000Y0251471D01*
X0003000Y0250272D02*
X0004400Y0250272D01*
X0004400Y0249074D02*
X0003000Y0249074D01*
X0003000Y0247875D02*
X0004400Y0247875D01*
X0004400Y0246677D02*
X0003000Y0246677D01*
X0003000Y0245478D02*
X0004400Y0245478D01*
X0004400Y0244280D02*
X0003000Y0244280D01*
X0003000Y0243081D02*
X0004400Y0243081D01*
X0004400Y0241883D02*
X0003000Y0241883D01*
X0003000Y0240684D02*
X0004400Y0240684D01*
X0004400Y0239486D02*
X0003000Y0239486D01*
X0003000Y0238287D02*
X0004400Y0238287D01*
X0004400Y0237089D02*
X0003000Y0237089D01*
X0003000Y0235890D02*
X0004400Y0235890D01*
X0004400Y0234692D02*
X0003000Y0234692D01*
X0003000Y0233493D02*
X0004400Y0233493D01*
X0004400Y0232295D02*
X0003000Y0232295D01*
X0003000Y0231096D02*
X0004400Y0231096D01*
X0004400Y0229898D02*
X0003000Y0229898D01*
X0003000Y0228699D02*
X0004400Y0228699D01*
X0004400Y0227501D02*
X0003000Y0227501D01*
X0003000Y0226302D02*
X0004400Y0226302D01*
X0004400Y0225104D02*
X0003000Y0225104D01*
X0003000Y0223905D02*
X0004400Y0223905D01*
X0004400Y0222707D02*
X0003000Y0222707D01*
X0003000Y0221508D02*
X0004400Y0221508D01*
X0004400Y0220310D02*
X0003000Y0220310D01*
X0003000Y0219111D02*
X0004400Y0219111D01*
X0004400Y0217913D02*
X0003000Y0217913D01*
X0003000Y0216714D02*
X0004400Y0216714D01*
X0004400Y0215516D02*
X0003000Y0215516D01*
X0003000Y0214317D02*
X0004400Y0214317D01*
X0004400Y0213119D02*
X0003000Y0213119D01*
X0003000Y0211920D02*
X0004400Y0211920D01*
X0004400Y0210722D02*
X0003000Y0210722D01*
X0003000Y0209523D02*
X0005566Y0209523D01*
X0003000Y0208325D02*
X0013963Y0208325D01*
X0015374Y0207126D02*
X0003000Y0207126D01*
X0003000Y0205928D02*
X0043721Y0205928D01*
X0043711Y0205924D02*
X0042276Y0204489D01*
X0041500Y0202614D01*
X0041500Y0200586D01*
X0042276Y0198711D01*
X0043711Y0197276D01*
X0045586Y0196500D01*
X0047614Y0196500D01*
X0049489Y0197276D01*
X0050924Y0198711D01*
X0051209Y0199400D01*
X0054400Y0199400D01*
X0054400Y0145689D01*
X0055689Y0144400D01*
X0075218Y0144400D01*
X0075286Y0144235D01*
X0076460Y0143061D01*
X0077995Y0142425D01*
X0085205Y0142425D01*
X0086740Y0143061D01*
X0087914Y0144235D01*
X0088550Y0145770D01*
X0088550Y0147430D01*
X0087914Y0148965D01*
X0086740Y0150139D01*
X0085205Y0150775D01*
X0077995Y0150775D01*
X0076460Y0150139D01*
X0075286Y0148965D01*
X0075218Y0148800D01*
X0058800Y0148800D01*
X0058800Y0202511D01*
X0057511Y0203800D01*
X0051209Y0203800D01*
X0050924Y0204489D01*
X0049489Y0205924D01*
X0047614Y0206700D01*
X0045586Y0206700D01*
X0043711Y0205924D01*
X0042517Y0204729D02*
X0003000Y0204729D01*
X0003000Y0203531D02*
X0041879Y0203531D01*
X0041500Y0202332D02*
X0003000Y0202332D01*
X0003000Y0201134D02*
X0041500Y0201134D01*
X0041769Y0199935D02*
X0003000Y0199935D01*
X0003000Y0198737D02*
X0042266Y0198737D01*
X0043450Y0197538D02*
X0003000Y0197538D01*
X0003000Y0196339D02*
X0016456Y0196339D01*
X0016073Y0196215D02*
X0015351Y0195847D01*
X0014695Y0195371D01*
X0014122Y0194798D01*
X0013645Y0194142D01*
X0013277Y0193419D01*
X0013027Y0192648D01*
X0012927Y0192018D01*
X0021025Y0192018D01*
X0021025Y0196593D01*
X0017645Y0196593D01*
X0016844Y0196466D01*
X0016073Y0196215D01*
X0014465Y0195141D02*
X0003000Y0195141D01*
X0003000Y0193942D02*
X0013544Y0193942D01*
X0013058Y0192744D02*
X0003000Y0192744D01*
X0003000Y0191545D02*
X0021025Y0191545D01*
X0021025Y0192018D02*
X0021025Y0190867D01*
X0022175Y0190867D01*
X0022175Y0186293D01*
X0025555Y0186293D01*
X0026356Y0186419D01*
X0027127Y0186670D01*
X0027849Y0187038D01*
X0028505Y0187514D01*
X0029078Y0188088D01*
X0029555Y0188743D01*
X0029923Y0189466D01*
X0030173Y0190237D01*
X0030273Y0190867D01*
X0022175Y0190867D01*
X0022175Y0192018D01*
X0021025Y0192018D01*
X0021025Y0192744D02*
X0022175Y0192744D01*
X0022175Y0192018D02*
X0022175Y0196593D01*
X0025555Y0196593D01*
X0026356Y0196466D01*
X0027127Y0196215D01*
X0027849Y0195847D01*
X0028505Y0195371D01*
X0029078Y0194798D01*
X0029555Y0194142D01*
X0029923Y0193419D01*
X0030173Y0192648D01*
X0030273Y0192018D01*
X0022175Y0192018D01*
X0022175Y0191545D02*
X0054400Y0191545D01*
X0054400Y0190347D02*
X0030191Y0190347D01*
X0029761Y0189148D02*
X0054400Y0189148D01*
X0054400Y0187950D02*
X0028941Y0187950D01*
X0027287Y0186751D02*
X0054400Y0186751D01*
X0054400Y0185553D02*
X0003000Y0185553D01*
X0003000Y0186751D02*
X0015913Y0186751D01*
X0016073Y0186670D02*
X0016844Y0186419D01*
X0017645Y0186293D01*
X0021025Y0186293D01*
X0021025Y0190867D01*
X0012927Y0190867D01*
X0013027Y0190237D01*
X0013277Y0189466D01*
X0013645Y0188743D01*
X0014122Y0188088D01*
X0014695Y0187514D01*
X0015351Y0187038D01*
X0016073Y0186670D01*
X0014259Y0187950D02*
X0003000Y0187950D01*
X0003000Y0189148D02*
X0013439Y0189148D01*
X0013009Y0190347D02*
X0003000Y0190347D01*
X0003000Y0184354D02*
X0054400Y0184354D01*
X0054400Y0183156D02*
X0003000Y0183156D01*
X0003000Y0181957D02*
X0054400Y0181957D01*
X0054400Y0180759D02*
X0003000Y0180759D01*
X0003000Y0179560D02*
X0054400Y0179560D01*
X0054400Y0178362D02*
X0003000Y0178362D01*
X0003000Y0177163D02*
X0054400Y0177163D01*
X0054400Y0175965D02*
X0049389Y0175965D01*
X0049489Y0175924D02*
X0047614Y0176700D01*
X0045586Y0176700D01*
X0043711Y0175924D01*
X0042276Y0174489D01*
X0041991Y0173800D01*
X0029662Y0173800D01*
X0029346Y0174561D01*
X0027954Y0175954D01*
X0026135Y0176707D01*
X0017065Y0176707D01*
X0015246Y0175954D01*
X0013854Y0174561D01*
X0013100Y0172742D01*
X0013100Y0170773D01*
X0013854Y0168954D01*
X0015246Y0167561D01*
X0017065Y0166807D01*
X0026135Y0166807D01*
X0027954Y0167561D01*
X0029346Y0168954D01*
X0029531Y0169400D01*
X0041991Y0169400D01*
X0042276Y0168711D01*
X0043711Y0167276D01*
X0045586Y0166500D01*
X0047614Y0166500D01*
X0049489Y0167276D01*
X0050924Y0168711D01*
X0051700Y0170586D01*
X0051700Y0172614D01*
X0050924Y0174489D01*
X0049489Y0175924D01*
X0050646Y0174766D02*
X0054400Y0174766D01*
X0054400Y0173568D02*
X0051305Y0173568D01*
X0051700Y0172369D02*
X0054400Y0172369D01*
X0054400Y0171171D02*
X0051700Y0171171D01*
X0051446Y0169972D02*
X0054400Y0169972D01*
X0054400Y0168774D02*
X0050950Y0168774D01*
X0049788Y0167575D02*
X0054400Y0167575D01*
X0054400Y0166377D02*
X0003000Y0166377D01*
X0003000Y0167575D02*
X0015232Y0167575D01*
X0014033Y0168774D02*
X0003000Y0168774D01*
X0003000Y0169972D02*
X0013432Y0169972D01*
X0013100Y0171171D02*
X0003000Y0171171D01*
X0003000Y0172369D02*
X0013100Y0172369D01*
X0013442Y0173568D02*
X0003000Y0173568D01*
X0003000Y0174766D02*
X0014058Y0174766D01*
X0015272Y0175965D02*
X0003000Y0175965D01*
X0003000Y0165178D02*
X0054400Y0165178D01*
X0054400Y0163980D02*
X0003000Y0163980D01*
X0003000Y0162781D02*
X0054400Y0162781D01*
X0054400Y0161583D02*
X0003000Y0161583D01*
X0003000Y0160384D02*
X0054400Y0160384D01*
X0054400Y0159186D02*
X0003000Y0159186D01*
X0003000Y0157987D02*
X0054400Y0157987D01*
X0054400Y0156789D02*
X0003000Y0156789D01*
X0003000Y0155590D02*
X0043378Y0155590D01*
X0043711Y0155924D02*
X0042276Y0154489D01*
X0041500Y0152614D01*
X0041500Y0150586D01*
X0042276Y0148711D01*
X0043711Y0147276D01*
X0044400Y0146991D01*
X0044400Y0135689D01*
X0045689Y0134400D01*
X0075218Y0134400D01*
X0075286Y0134235D01*
X0076460Y0133061D01*
X0077995Y0132425D01*
X0085205Y0132425D01*
X0086740Y0133061D01*
X0087914Y0134235D01*
X0088550Y0135770D01*
X0088550Y0137430D01*
X0087914Y0138965D01*
X0086740Y0140139D01*
X0085205Y0140775D01*
X0077995Y0140775D01*
X0076460Y0140139D01*
X0075286Y0138965D01*
X0075218Y0138800D01*
X0048800Y0138800D01*
X0048800Y0146991D01*
X0049489Y0147276D01*
X0050924Y0148711D01*
X0051700Y0150586D01*
X0051700Y0152614D01*
X0050924Y0154489D01*
X0049489Y0155924D01*
X0047614Y0156700D01*
X0045586Y0156700D01*
X0043711Y0155924D01*
X0042236Y0154392D02*
X0003000Y0154392D01*
X0003000Y0153193D02*
X0041740Y0153193D01*
X0041500Y0151995D02*
X0003000Y0151995D01*
X0003000Y0150796D02*
X0015280Y0150796D01*
X0015351Y0150847D02*
X0014695Y0150371D01*
X0014122Y0149798D01*
X0013645Y0149142D01*
X0013277Y0148419D01*
X0013027Y0147648D01*
X0012927Y0147018D01*
X0021025Y0147018D01*
X0021025Y0151593D01*
X0017645Y0151593D01*
X0016844Y0151466D01*
X0016073Y0151215D01*
X0015351Y0150847D01*
X0013977Y0149598D02*
X0003000Y0149598D01*
X0003000Y0148399D02*
X0013271Y0148399D01*
X0012956Y0147201D02*
X0003000Y0147201D01*
X0003000Y0146002D02*
X0021025Y0146002D01*
X0021025Y0145867D02*
X0012927Y0145867D01*
X0013027Y0145237D01*
X0013277Y0144466D01*
X0013645Y0143743D01*
X0014122Y0143088D01*
X0014695Y0142514D01*
X0015351Y0142038D01*
X0016073Y0141670D01*
X0016844Y0141419D01*
X0017645Y0141293D01*
X0021025Y0141293D01*
X0021025Y0145867D01*
X0022175Y0145867D01*
X0022175Y0141293D01*
X0025555Y0141293D01*
X0026356Y0141419D01*
X0027127Y0141670D01*
X0027849Y0142038D01*
X0028505Y0142514D01*
X0029078Y0143088D01*
X0029555Y0143743D01*
X0029923Y0144466D01*
X0030173Y0145237D01*
X0030273Y0145867D01*
X0022175Y0145867D01*
X0022175Y0147018D01*
X0021025Y0147018D01*
X0021025Y0145867D01*
X0021025Y0144803D02*
X0022175Y0144803D01*
X0022175Y0143605D02*
X0021025Y0143605D01*
X0021025Y0142406D02*
X0022175Y0142406D01*
X0022175Y0146002D02*
X0044400Y0146002D01*
X0044400Y0144803D02*
X0030032Y0144803D01*
X0029454Y0143605D02*
X0044400Y0143605D01*
X0044400Y0142406D02*
X0028357Y0142406D01*
X0030273Y0147018D02*
X0030173Y0147648D01*
X0029923Y0148419D01*
X0029555Y0149142D01*
X0029078Y0149798D01*
X0028505Y0150371D01*
X0027849Y0150847D01*
X0027127Y0151215D01*
X0026356Y0151466D01*
X0025555Y0151593D01*
X0022175Y0151593D01*
X0022175Y0147018D01*
X0030273Y0147018D01*
X0030244Y0147201D02*
X0043894Y0147201D01*
X0042588Y0148399D02*
X0029929Y0148399D01*
X0029223Y0149598D02*
X0041909Y0149598D01*
X0041500Y0150796D02*
X0027920Y0150796D01*
X0022175Y0150796D02*
X0021025Y0150796D01*
X0021025Y0149598D02*
X0022175Y0149598D01*
X0022175Y0148399D02*
X0021025Y0148399D01*
X0021025Y0147201D02*
X0022175Y0147201D01*
X0014843Y0142406D02*
X0003000Y0142406D01*
X0003000Y0141208D02*
X0044400Y0141208D01*
X0044400Y0140009D02*
X0003000Y0140009D01*
X0003000Y0138811D02*
X0044400Y0138811D01*
X0044400Y0137612D02*
X0003000Y0137612D01*
X0003000Y0136414D02*
X0044400Y0136414D01*
X0044873Y0135215D02*
X0003000Y0135215D01*
X0003000Y0134017D02*
X0075504Y0134017D01*
X0077046Y0132818D02*
X0003000Y0132818D01*
X0003000Y0131620D02*
X0016854Y0131620D01*
X0017065Y0131707D02*
X0015246Y0130954D01*
X0013854Y0129561D01*
X0013100Y0127742D01*
X0013100Y0125773D01*
X0013854Y0123954D01*
X0015246Y0122561D01*
X0017065Y0121807D01*
X0019400Y0121807D01*
X0019400Y0121765D01*
X0019394Y0120860D01*
X0019400Y0120854D01*
X0019400Y0120846D01*
X0020039Y0120207D01*
X0020675Y0119563D01*
X0020683Y0119563D01*
X0020689Y0119557D01*
X0021593Y0119557D01*
X0041979Y0119429D01*
X0042276Y0118711D01*
X0043711Y0117276D01*
X0045586Y0116500D01*
X0047614Y0116500D01*
X0049489Y0117276D01*
X0050924Y0118711D01*
X0051700Y0120586D01*
X0051700Y0122614D01*
X0050924Y0124489D01*
X0049489Y0125924D01*
X0047614Y0126700D01*
X0045586Y0126700D01*
X0043711Y0125924D01*
X0042276Y0124489D01*
X0042003Y0123829D01*
X0029302Y0123909D01*
X0029346Y0123954D01*
X0030100Y0125773D01*
X0030100Y0127742D01*
X0029346Y0129561D01*
X0027954Y0130954D01*
X0026135Y0131707D01*
X0017065Y0131707D01*
X0014714Y0130421D02*
X0003000Y0130421D01*
X0003000Y0129223D02*
X0013713Y0129223D01*
X0013217Y0128024D02*
X0003000Y0128024D01*
X0003000Y0126826D02*
X0013100Y0126826D01*
X0013160Y0125627D02*
X0003000Y0125627D01*
X0003000Y0124429D02*
X0013657Y0124429D01*
X0014577Y0123230D02*
X0003000Y0123230D01*
X0003000Y0122032D02*
X0016524Y0122032D01*
X0019413Y0120833D02*
X0003000Y0120833D01*
X0003000Y0119635D02*
X0020604Y0119635D01*
X0029543Y0124429D02*
X0042252Y0124429D01*
X0043415Y0125627D02*
X0030040Y0125627D01*
X0030100Y0126826D02*
X0059400Y0126826D01*
X0059400Y0127511D02*
X0059400Y0091209D01*
X0058711Y0090924D01*
X0057276Y0089489D01*
X0056500Y0087614D01*
X0056500Y0085586D01*
X0057174Y0083957D01*
X0029597Y0083957D01*
X0029346Y0084561D01*
X0027954Y0085954D01*
X0026135Y0086707D01*
X0017065Y0086707D01*
X0015246Y0085954D01*
X0013854Y0084561D01*
X0013100Y0082742D01*
X0013100Y0080773D01*
X0013854Y0078954D01*
X0015246Y0077561D01*
X0017065Y0076807D01*
X0026135Y0076807D01*
X0027954Y0077561D01*
X0029346Y0078954D01*
X0029597Y0079557D01*
X0062511Y0079557D01*
X0063800Y0080846D01*
X0063800Y0081991D01*
X0064489Y0082276D01*
X0065924Y0083711D01*
X0066700Y0085586D01*
X0066700Y0087614D01*
X0065924Y0089489D01*
X0064489Y0090924D01*
X0063800Y0091209D01*
X0063800Y0124400D01*
X0075218Y0124400D01*
X0075286Y0124235D01*
X0076460Y0123061D01*
X0077995Y0122425D01*
X0085205Y0122425D01*
X0086740Y0123061D01*
X0087914Y0124235D01*
X0088550Y0125770D01*
X0088550Y0127430D01*
X0087914Y0128965D01*
X0086740Y0130139D01*
X0085205Y0130775D01*
X0077995Y0130775D01*
X0076460Y0130139D01*
X0075286Y0128965D01*
X0075218Y0128800D01*
X0060689Y0128800D01*
X0059400Y0127511D01*
X0059913Y0128024D02*
X0029983Y0128024D01*
X0029487Y0129223D02*
X0075544Y0129223D01*
X0077142Y0130421D02*
X0028486Y0130421D01*
X0026346Y0131620D02*
X0094400Y0131620D01*
X0094400Y0132818D02*
X0086154Y0132818D01*
X0087696Y0134017D02*
X0094400Y0134017D01*
X0094400Y0135215D02*
X0088320Y0135215D01*
X0088550Y0136414D02*
X0094400Y0136414D01*
X0094400Y0137612D02*
X0088474Y0137612D01*
X0087978Y0138811D02*
X0094400Y0138811D01*
X0094400Y0140009D02*
X0086869Y0140009D01*
X0087284Y0143605D02*
X0094400Y0143605D01*
X0094400Y0144803D02*
X0088149Y0144803D01*
X0088550Y0146002D02*
X0094400Y0146002D01*
X0094400Y0147201D02*
X0088550Y0147201D01*
X0088148Y0148399D02*
X0094400Y0148399D01*
X0094400Y0149598D02*
X0087281Y0149598D01*
X0086872Y0153193D02*
X0094400Y0153193D01*
X0094400Y0151995D02*
X0058800Y0151995D01*
X0058800Y0153193D02*
X0076328Y0153193D01*
X0075221Y0154392D02*
X0058800Y0154392D01*
X0058800Y0155590D02*
X0059499Y0155590D01*
X0059400Y0156789D02*
X0058800Y0156789D01*
X0058800Y0157987D02*
X0059400Y0157987D01*
X0059400Y0159186D02*
X0058800Y0159186D01*
X0058800Y0160384D02*
X0059400Y0160384D01*
X0059400Y0161583D02*
X0058800Y0161583D01*
X0058800Y0162781D02*
X0059400Y0162781D01*
X0059400Y0163980D02*
X0058800Y0163980D01*
X0058800Y0165178D02*
X0059400Y0165178D01*
X0059400Y0166377D02*
X0058800Y0166377D01*
X0058800Y0167575D02*
X0059400Y0167575D01*
X0059400Y0168774D02*
X0058800Y0168774D01*
X0058800Y0169972D02*
X0059400Y0169972D01*
X0059400Y0171171D02*
X0058800Y0171171D01*
X0058800Y0172369D02*
X0059400Y0172369D01*
X0059400Y0173568D02*
X0058800Y0173568D01*
X0058800Y0174766D02*
X0059400Y0174766D01*
X0059400Y0175965D02*
X0058800Y0175965D01*
X0058800Y0177163D02*
X0059400Y0177163D01*
X0059400Y0178362D02*
X0058800Y0178362D01*
X0058800Y0179560D02*
X0059400Y0179560D01*
X0059400Y0180759D02*
X0058800Y0180759D01*
X0058800Y0181957D02*
X0059400Y0181957D01*
X0059400Y0183156D02*
X0058800Y0183156D01*
X0058800Y0184354D02*
X0059400Y0184354D01*
X0059400Y0185553D02*
X0058800Y0185553D01*
X0058800Y0186751D02*
X0059400Y0186751D01*
X0059400Y0187950D02*
X0058800Y0187950D01*
X0058800Y0189148D02*
X0059400Y0189148D01*
X0059400Y0190347D02*
X0058800Y0190347D01*
X0058800Y0191545D02*
X0059400Y0191545D01*
X0059400Y0192744D02*
X0058800Y0192744D01*
X0058800Y0193942D02*
X0059400Y0193942D01*
X0059400Y0195141D02*
X0058800Y0195141D01*
X0058800Y0196339D02*
X0059400Y0196339D01*
X0059400Y0197538D02*
X0058800Y0197538D01*
X0058800Y0198737D02*
X0059400Y0198737D01*
X0059400Y0199935D02*
X0058800Y0199935D01*
X0058800Y0201134D02*
X0059400Y0201134D01*
X0059400Y0202332D02*
X0058800Y0202332D01*
X0059400Y0203531D02*
X0057781Y0203531D01*
X0059400Y0204729D02*
X0050683Y0204729D01*
X0049479Y0205928D02*
X0059400Y0205928D01*
X0059400Y0207126D02*
X0027826Y0207126D01*
X0029237Y0208325D02*
X0059400Y0208325D01*
X0059400Y0209523D02*
X0029960Y0209523D01*
X0030400Y0210722D02*
X0059400Y0210722D01*
X0059400Y0211920D02*
X0030400Y0211920D01*
X0030191Y0213119D02*
X0059400Y0213119D01*
X0059400Y0214317D02*
X0029695Y0214317D01*
X0028597Y0215516D02*
X0059400Y0215516D01*
X0059400Y0216714D02*
X0026832Y0216714D01*
X0028825Y0217913D02*
X0059400Y0217913D01*
X0059400Y0219111D02*
X0029789Y0219111D01*
X0029865Y0223905D02*
X0064400Y0223905D01*
X0064400Y0222707D02*
X0063605Y0222707D01*
X0063800Y0221508D02*
X0064400Y0221508D01*
X0064400Y0220310D02*
X0063800Y0220310D01*
X0063800Y0219111D02*
X0064400Y0219111D01*
X0064400Y0217913D02*
X0063800Y0217913D01*
X0063800Y0216714D02*
X0064400Y0216714D01*
X0064400Y0215516D02*
X0063800Y0215516D01*
X0063800Y0214317D02*
X0064400Y0214317D01*
X0064400Y0213119D02*
X0063800Y0213119D01*
X0063800Y0211920D02*
X0064400Y0211920D01*
X0064400Y0210722D02*
X0063800Y0210722D01*
X0063800Y0209523D02*
X0064400Y0209523D01*
X0064400Y0208325D02*
X0063800Y0208325D01*
X0063800Y0207126D02*
X0064400Y0207126D01*
X0064400Y0205928D02*
X0063800Y0205928D01*
X0063800Y0204729D02*
X0064400Y0204729D01*
X0064400Y0203531D02*
X0063800Y0203531D01*
X0063800Y0202332D02*
X0064400Y0202332D01*
X0064400Y0201134D02*
X0063800Y0201134D01*
X0063800Y0199935D02*
X0064400Y0199935D01*
X0064400Y0198737D02*
X0063800Y0198737D01*
X0063800Y0197538D02*
X0064400Y0197538D01*
X0064400Y0196339D02*
X0063800Y0196339D01*
X0063800Y0195141D02*
X0064400Y0195141D01*
X0064400Y0193942D02*
X0063800Y0193942D01*
X0063800Y0192744D02*
X0064400Y0192744D01*
X0064400Y0191545D02*
X0063800Y0191545D01*
X0063800Y0190347D02*
X0064400Y0190347D01*
X0064400Y0189148D02*
X0063800Y0189148D01*
X0063800Y0187950D02*
X0064400Y0187950D01*
X0064400Y0186751D02*
X0063800Y0186751D01*
X0063800Y0185553D02*
X0064400Y0185553D01*
X0064400Y0184354D02*
X0063800Y0184354D01*
X0063800Y0183156D02*
X0064400Y0183156D01*
X0064400Y0181957D02*
X0063800Y0181957D01*
X0063800Y0180759D02*
X0064400Y0180759D01*
X0064400Y0179560D02*
X0063800Y0179560D01*
X0063800Y0178362D02*
X0064400Y0178362D01*
X0064400Y0177163D02*
X0063800Y0177163D01*
X0063800Y0175965D02*
X0064400Y0175965D01*
X0064400Y0174766D02*
X0063800Y0174766D01*
X0063800Y0173568D02*
X0064400Y0173568D01*
X0064400Y0172369D02*
X0063800Y0172369D01*
X0063800Y0171171D02*
X0064400Y0171171D01*
X0064400Y0169972D02*
X0063800Y0169972D01*
X0063800Y0168774D02*
X0064400Y0168774D01*
X0064400Y0167575D02*
X0063800Y0167575D01*
X0063800Y0166377D02*
X0064400Y0166377D01*
X0064911Y0165178D02*
X0063800Y0165178D01*
X0063800Y0163980D02*
X0075541Y0163980D01*
X0077135Y0162781D02*
X0063800Y0162781D01*
X0063800Y0161583D02*
X0094400Y0161583D01*
X0094400Y0162781D02*
X0086065Y0162781D01*
X0087659Y0163980D02*
X0094400Y0163980D01*
X0094400Y0165178D02*
X0088305Y0165178D01*
X0088550Y0166377D02*
X0094400Y0166377D01*
X0094400Y0167575D02*
X0088490Y0167575D01*
X0087993Y0168774D02*
X0094400Y0168774D01*
X0094400Y0169972D02*
X0086907Y0169972D01*
X0085511Y0172369D02*
X0094400Y0172369D01*
X0094400Y0171171D02*
X0068800Y0171171D01*
X0068800Y0172369D02*
X0077689Y0172369D01*
X0077801Y0172333D02*
X0078481Y0172225D01*
X0081413Y0172225D01*
X0081413Y0176413D01*
X0074450Y0176413D01*
X0074450Y0176256D01*
X0074558Y0175576D01*
X0074771Y0174921D01*
X0075084Y0174307D01*
X0075488Y0173750D01*
X0075975Y0173263D01*
X0076532Y0172858D01*
X0077146Y0172546D01*
X0077801Y0172333D01*
X0075671Y0173568D02*
X0068800Y0173568D01*
X0068800Y0174766D02*
X0074850Y0174766D01*
X0074496Y0175965D02*
X0068800Y0175965D01*
X0068800Y0177163D02*
X0074485Y0177163D01*
X0074450Y0176944D02*
X0074558Y0177624D01*
X0074771Y0178279D01*
X0075084Y0178893D01*
X0075488Y0179450D01*
X0075975Y0179937D01*
X0076532Y0180342D01*
X0077146Y0180654D01*
X0077801Y0180867D01*
X0078481Y0180975D01*
X0081413Y0180975D01*
X0081413Y0176787D01*
X0074450Y0176787D01*
X0074450Y0176944D01*
X0074813Y0178362D02*
X0068800Y0178362D01*
X0068800Y0179560D02*
X0075599Y0179560D01*
X0077468Y0180759D02*
X0068800Y0180759D01*
X0068800Y0181957D02*
X0159400Y0181957D01*
X0159400Y0180759D02*
X0145244Y0180759D01*
X0147319Y0179560D02*
X0159400Y0179560D01*
X0159400Y0183156D02*
X0146835Y0183156D01*
X0147963Y0184354D02*
X0159400Y0184354D01*
X0159400Y0185553D02*
X0148460Y0185553D01*
X0148550Y0186751D02*
X0159400Y0186751D01*
X0159400Y0187950D02*
X0148334Y0187950D01*
X0147730Y0189148D02*
X0159400Y0189148D01*
X0159400Y0190347D02*
X0146238Y0190347D01*
X0145975Y0192744D02*
X0159400Y0192744D01*
X0159400Y0193942D02*
X0147621Y0193942D01*
X0148289Y0195141D02*
X0159400Y0195141D01*
X0159400Y0196339D02*
X0148550Y0196339D01*
X0148505Y0197538D02*
X0159400Y0197538D01*
X0159400Y0198737D02*
X0148009Y0198737D01*
X0146944Y0199935D02*
X0159400Y0199935D01*
X0159400Y0201134D02*
X0068800Y0201134D01*
X0068800Y0202332D02*
X0159400Y0202332D01*
X0159400Y0203531D02*
X0147209Y0203531D01*
X0148119Y0204729D02*
X0159400Y0204729D01*
X0159400Y0205928D02*
X0148550Y0205928D01*
X0148550Y0207126D02*
X0159400Y0207126D01*
X0160213Y0208325D02*
X0148179Y0208325D01*
X0147356Y0209523D02*
X0172311Y0209523D01*
X0173509Y0210722D02*
X0145334Y0210722D01*
X0143800Y0211920D02*
X0174400Y0211920D01*
X0174400Y0213119D02*
X0143800Y0213119D01*
X0143800Y0214317D02*
X0174400Y0214317D01*
X0174400Y0215516D02*
X0143800Y0215516D01*
X0143800Y0216714D02*
X0174400Y0216714D01*
X0174400Y0217913D02*
X0143800Y0217913D01*
X0143800Y0219111D02*
X0174400Y0219111D01*
X0174400Y0220310D02*
X0143800Y0220310D01*
X0143800Y0221508D02*
X0174400Y0221508D01*
X0174400Y0222707D02*
X0143800Y0222707D01*
X0143800Y0223905D02*
X0174400Y0223905D01*
X0174400Y0225104D02*
X0143800Y0225104D01*
X0143800Y0226302D02*
X0174400Y0226302D01*
X0174400Y0227501D02*
X0143800Y0227501D01*
X0143800Y0228699D02*
X0174400Y0228699D01*
X0174400Y0229898D02*
X0143800Y0229898D01*
X0143800Y0231096D02*
X0174400Y0231096D01*
X0174400Y0232295D02*
X0143800Y0232295D01*
X0143800Y0233493D02*
X0174400Y0233493D01*
X0174400Y0234692D02*
X0143800Y0234692D01*
X0143800Y0235890D02*
X0174400Y0235890D01*
X0174400Y0237089D02*
X0143800Y0237089D01*
X0143800Y0238287D02*
X0174400Y0238287D01*
X0174400Y0239486D02*
X0143800Y0239486D01*
X0143800Y0240684D02*
X0174400Y0240684D01*
X0174400Y0241883D02*
X0143800Y0241883D01*
X0143800Y0243081D02*
X0174400Y0243081D01*
X0174400Y0244280D02*
X0144673Y0244280D01*
X0145735Y0245478D02*
X0174400Y0245478D01*
X0174400Y0246677D02*
X0146232Y0246677D01*
X0146393Y0247875D02*
X0174400Y0247875D01*
X0174400Y0249074D02*
X0146393Y0249074D01*
X0146393Y0250272D02*
X0174400Y0250272D01*
X0174400Y0251471D02*
X0146393Y0251471D01*
X0146393Y0252670D02*
X0174400Y0252670D01*
X0174400Y0253868D02*
X0146393Y0253868D01*
X0146393Y0255067D02*
X0174400Y0255067D01*
X0174400Y0256265D02*
X0146338Y0256265D01*
X0145842Y0257464D02*
X0174400Y0257464D01*
X0174400Y0258662D02*
X0144931Y0258662D01*
X0137954Y0258662D02*
X0125529Y0258662D01*
X0126359Y0257464D02*
X0137043Y0257464D01*
X0136547Y0256265D02*
X0126795Y0256265D01*
X0126907Y0255067D02*
X0136493Y0255067D01*
X0136493Y0253868D02*
X0126907Y0253868D01*
X0126907Y0252670D02*
X0136493Y0252670D01*
X0136493Y0251471D02*
X0122333Y0251471D01*
X0122332Y0252175D02*
X0122332Y0259400D01*
X0121182Y0259400D01*
X0121182Y0252175D01*
X0122332Y0252175D01*
X0122332Y0252670D02*
X0121182Y0252670D01*
X0121182Y0253868D02*
X0122332Y0253868D01*
X0122332Y0255067D02*
X0121182Y0255067D01*
X0121182Y0256265D02*
X0122332Y0256265D01*
X0122332Y0257464D02*
X0121182Y0257464D01*
X0121182Y0258662D02*
X0122332Y0258662D01*
X0126907Y0250272D02*
X0136493Y0250272D01*
X0136493Y0249074D02*
X0126907Y0249074D01*
X0126907Y0247875D02*
X0136493Y0247875D01*
X0136653Y0246677D02*
X0126726Y0246677D01*
X0126227Y0245478D02*
X0137150Y0245478D01*
X0138212Y0244280D02*
X0125271Y0244280D01*
X0122917Y0235890D02*
X0139400Y0235890D01*
X0139400Y0234692D02*
X0123000Y0234692D01*
X0125770Y0223550D02*
X0124235Y0222914D01*
X0123061Y0221740D01*
X0122425Y0220205D01*
X0122425Y0212995D01*
X0123061Y0211460D01*
X0124235Y0210286D01*
X0125770Y0209650D01*
X0127430Y0209650D01*
X0128965Y0210286D01*
X0130139Y0211460D01*
X0130775Y0212995D01*
X0130775Y0220205D01*
X0130139Y0221740D01*
X0128965Y0222914D01*
X0127430Y0223550D01*
X0125770Y0223550D01*
X0124028Y0222707D02*
X0119172Y0222707D01*
X0120235Y0221508D02*
X0122965Y0221508D01*
X0122468Y0220310D02*
X0120732Y0220310D01*
X0120775Y0219111D02*
X0122425Y0219111D01*
X0122425Y0217913D02*
X0120775Y0217913D01*
X0120775Y0216714D02*
X0122425Y0216714D01*
X0122425Y0215516D02*
X0120775Y0215516D01*
X0120775Y0214317D02*
X0122425Y0214317D01*
X0122425Y0213119D02*
X0120775Y0213119D01*
X0120330Y0211920D02*
X0122870Y0211920D01*
X0123800Y0210722D02*
X0119400Y0210722D01*
X0129400Y0210722D02*
X0133800Y0210722D01*
X0132870Y0211920D02*
X0130330Y0211920D01*
X0130775Y0213119D02*
X0132425Y0213119D01*
X0132425Y0214317D02*
X0130775Y0214317D01*
X0130775Y0215516D02*
X0132425Y0215516D01*
X0132425Y0216714D02*
X0130775Y0216714D01*
X0130775Y0217913D02*
X0132425Y0217913D01*
X0132425Y0219111D02*
X0130775Y0219111D01*
X0130732Y0220310D02*
X0132468Y0220310D01*
X0132965Y0221508D02*
X0130235Y0221508D01*
X0129172Y0222707D02*
X0134028Y0222707D01*
X0139172Y0222707D02*
X0139400Y0222707D01*
X0139400Y0223905D02*
X0068800Y0223905D01*
X0068800Y0222707D02*
X0084028Y0222707D01*
X0082965Y0221508D02*
X0068800Y0221508D01*
X0068800Y0220310D02*
X0082468Y0220310D01*
X0082425Y0219111D02*
X0068800Y0219111D01*
X0068800Y0217913D02*
X0082425Y0217913D01*
X0082425Y0216714D02*
X0068800Y0216714D01*
X0068800Y0215516D02*
X0082425Y0215516D01*
X0082425Y0214317D02*
X0068800Y0214317D01*
X0068800Y0213119D02*
X0082425Y0213119D01*
X0082870Y0211920D02*
X0068800Y0211920D01*
X0068800Y0210722D02*
X0077866Y0210722D01*
X0075844Y0209523D02*
X0068800Y0209523D01*
X0068800Y0208325D02*
X0075021Y0208325D01*
X0074650Y0207126D02*
X0068800Y0207126D01*
X0068800Y0205928D02*
X0074650Y0205928D01*
X0075081Y0204729D02*
X0068800Y0204729D01*
X0068800Y0203531D02*
X0075991Y0203531D01*
X0076256Y0199935D02*
X0068800Y0199935D01*
X0068800Y0198737D02*
X0075191Y0198737D01*
X0074695Y0197538D02*
X0068800Y0197538D01*
X0068800Y0196339D02*
X0074650Y0196339D01*
X0074911Y0195141D02*
X0068800Y0195141D01*
X0068800Y0193942D02*
X0075579Y0193942D01*
X0077225Y0192744D02*
X0068800Y0192744D01*
X0068800Y0191545D02*
X0159400Y0191545D01*
X0163800Y0201134D02*
X0174400Y0201134D01*
X0173655Y0202332D02*
X0163800Y0202332D01*
X0163800Y0203531D02*
X0172457Y0203531D01*
X0139400Y0225104D02*
X0068800Y0225104D01*
X0068800Y0226302D02*
X0139400Y0226302D01*
X0139400Y0237089D02*
X0028108Y0237089D01*
X0029444Y0238287D02*
X0139400Y0238287D01*
X0139400Y0239486D02*
X0030171Y0239486D01*
X0030521Y0240684D02*
X0139400Y0240684D01*
X0116607Y0249074D02*
X0008800Y0249074D01*
X0008800Y0250272D02*
X0116607Y0250272D01*
X0064400Y0228699D02*
X0029612Y0228699D01*
X0028413Y0227501D02*
X0064400Y0227501D01*
X0064400Y0226302D02*
X0027275Y0226302D01*
X0029009Y0225104D02*
X0064400Y0225104D01*
X0054400Y0198737D02*
X0050934Y0198737D01*
X0049750Y0197538D02*
X0054400Y0197538D01*
X0054400Y0196339D02*
X0026744Y0196339D01*
X0028735Y0195141D02*
X0054400Y0195141D01*
X0054400Y0193942D02*
X0029656Y0193942D01*
X0030142Y0192744D02*
X0054400Y0192744D01*
X0068800Y0190347D02*
X0076962Y0190347D01*
X0075470Y0189148D02*
X0068800Y0189148D01*
X0068800Y0187950D02*
X0074866Y0187950D01*
X0074650Y0186751D02*
X0068800Y0186751D01*
X0068800Y0185553D02*
X0074740Y0185553D01*
X0075237Y0184354D02*
X0068800Y0184354D01*
X0068800Y0183156D02*
X0076365Y0183156D01*
X0081413Y0180759D02*
X0081787Y0180759D01*
X0081787Y0179560D02*
X0081413Y0179560D01*
X0081413Y0178362D02*
X0081787Y0178362D01*
X0081787Y0177163D02*
X0081413Y0177163D01*
X0081413Y0175965D02*
X0081787Y0175965D01*
X0081787Y0174766D02*
X0081413Y0174766D01*
X0081413Y0173568D02*
X0081787Y0173568D01*
X0081787Y0172369D02*
X0081413Y0172369D01*
X0076293Y0169972D02*
X0068800Y0169972D01*
X0063800Y0160384D02*
X0077052Y0160384D01*
X0075507Y0159186D02*
X0063800Y0159186D01*
X0058800Y0150796D02*
X0094400Y0150796D01*
X0094400Y0154392D02*
X0087979Y0154392D01*
X0088475Y0155590D02*
X0094400Y0155590D01*
X0094400Y0156789D02*
X0088550Y0156789D01*
X0088319Y0157987D02*
X0094400Y0157987D01*
X0094400Y0159186D02*
X0087693Y0159186D01*
X0086148Y0160384D02*
X0094400Y0160384D01*
X0098800Y0160384D02*
X0099400Y0160384D01*
X0099400Y0159186D02*
X0098800Y0159186D01*
X0098800Y0157987D02*
X0099400Y0157987D01*
X0099400Y0156789D02*
X0098800Y0156789D01*
X0098800Y0155590D02*
X0099400Y0155590D01*
X0099400Y0154392D02*
X0098800Y0154392D01*
X0098800Y0153193D02*
X0099400Y0153193D01*
X0099400Y0151995D02*
X0098800Y0151995D01*
X0098800Y0150796D02*
X0099400Y0150796D01*
X0099400Y0149598D02*
X0098800Y0149598D01*
X0098800Y0148399D02*
X0099400Y0148399D01*
X0099400Y0147201D02*
X0098800Y0147201D01*
X0098800Y0146002D02*
X0099400Y0146002D01*
X0099400Y0144803D02*
X0098800Y0144803D01*
X0098800Y0143605D02*
X0099400Y0143605D01*
X0099400Y0142406D02*
X0098800Y0142406D01*
X0098800Y0141208D02*
X0099400Y0141208D01*
X0099400Y0140009D02*
X0098800Y0140009D01*
X0098800Y0138811D02*
X0099400Y0138811D01*
X0099400Y0137612D02*
X0098800Y0137612D01*
X0098800Y0136414D02*
X0099400Y0136414D01*
X0099400Y0135215D02*
X0098800Y0135215D01*
X0098800Y0134017D02*
X0099400Y0134017D01*
X0099400Y0132818D02*
X0098800Y0132818D01*
X0098800Y0131620D02*
X0099400Y0131620D01*
X0099400Y0130421D02*
X0098800Y0130421D01*
X0098800Y0129223D02*
X0099400Y0129223D01*
X0099400Y0128024D02*
X0098800Y0128024D01*
X0098800Y0126826D02*
X0099400Y0126826D01*
X0099400Y0125627D02*
X0098800Y0125627D01*
X0098800Y0124429D02*
X0099400Y0124429D01*
X0099400Y0123230D02*
X0098800Y0123230D01*
X0098800Y0122032D02*
X0099400Y0122032D01*
X0099400Y0120833D02*
X0098800Y0120833D01*
X0098800Y0119635D02*
X0099400Y0119635D01*
X0099400Y0118436D02*
X0098800Y0118436D01*
X0098800Y0117238D02*
X0099400Y0117238D01*
X0099400Y0116039D02*
X0098800Y0116039D01*
X0098800Y0114841D02*
X0099400Y0114841D01*
X0099400Y0113642D02*
X0098800Y0113642D01*
X0098800Y0112444D02*
X0099400Y0112444D01*
X0099400Y0111245D02*
X0098800Y0111245D01*
X0098800Y0110047D02*
X0099400Y0110047D01*
X0099400Y0108848D02*
X0098800Y0108848D01*
X0098800Y0107650D02*
X0099400Y0107650D01*
X0099400Y0106451D02*
X0098800Y0106451D01*
X0098800Y0105253D02*
X0099400Y0105253D01*
X0099400Y0104054D02*
X0098800Y0104054D01*
X0098800Y0102856D02*
X0099400Y0102856D01*
X0099400Y0101657D02*
X0098800Y0101657D01*
X0098800Y0100459D02*
X0099400Y0100459D01*
X0099400Y0099260D02*
X0098800Y0099260D01*
X0098800Y0098062D02*
X0099400Y0098062D01*
X0099400Y0096863D02*
X0098800Y0096863D01*
X0098800Y0095665D02*
X0099400Y0095665D01*
X0099400Y0094466D02*
X0098800Y0094466D01*
X0098800Y0093268D02*
X0099400Y0093268D01*
X0099400Y0092069D02*
X0098800Y0092069D01*
X0098800Y0090870D02*
X0099400Y0090870D01*
X0099400Y0089672D02*
X0098800Y0089672D01*
X0098800Y0088473D02*
X0099400Y0088473D01*
X0099400Y0087275D02*
X0098800Y0087275D01*
X0098800Y0086076D02*
X0099400Y0086076D01*
X0099400Y0084878D02*
X0097989Y0084878D01*
X0094400Y0089672D02*
X0065741Y0089672D01*
X0066344Y0088473D02*
X0075362Y0088473D01*
X0074400Y0087275D02*
X0066700Y0087275D01*
X0066700Y0086076D02*
X0074400Y0086076D01*
X0074400Y0084878D02*
X0066407Y0084878D01*
X0065892Y0083679D02*
X0074400Y0083679D01*
X0074400Y0082481D02*
X0064693Y0082481D01*
X0063800Y0081282D02*
X0074400Y0081282D01*
X0074400Y0080084D02*
X0063038Y0080084D01*
X0056793Y0084878D02*
X0029030Y0084878D01*
X0027658Y0086076D02*
X0056500Y0086076D01*
X0056500Y0087275D02*
X0003000Y0087275D01*
X0003000Y0088473D02*
X0056856Y0088473D01*
X0057459Y0089672D02*
X0003000Y0089672D01*
X0003000Y0090870D02*
X0058658Y0090870D01*
X0059400Y0092069D02*
X0003000Y0092069D01*
X0003000Y0093268D02*
X0059400Y0093268D01*
X0059400Y0094466D02*
X0003000Y0094466D01*
X0003000Y0095665D02*
X0059400Y0095665D01*
X0059400Y0096863D02*
X0027506Y0096863D01*
X0027849Y0097038D02*
X0028505Y0097514D01*
X0029078Y0098088D01*
X0029555Y0098743D01*
X0029923Y0099466D01*
X0030173Y0100237D01*
X0030273Y0100867D01*
X0022175Y0100867D01*
X0022175Y0096293D01*
X0025555Y0096293D01*
X0026356Y0096419D01*
X0027127Y0096670D01*
X0027849Y0097038D01*
X0029052Y0098062D02*
X0059400Y0098062D01*
X0059400Y0099260D02*
X0029818Y0099260D01*
X0030208Y0100459D02*
X0059400Y0100459D01*
X0059400Y0101657D02*
X0022175Y0101657D01*
X0022175Y0102018D02*
X0030273Y0102018D01*
X0030173Y0102648D01*
X0029923Y0103419D01*
X0029555Y0104142D01*
X0029078Y0104798D01*
X0028505Y0105371D01*
X0027849Y0105847D01*
X0027127Y0106215D01*
X0026356Y0106466D01*
X0025555Y0106593D01*
X0022175Y0106593D01*
X0022175Y0102018D01*
X0021025Y0102018D01*
X0021025Y0106593D01*
X0017645Y0106593D01*
X0016844Y0106466D01*
X0016073Y0106215D01*
X0015351Y0105847D01*
X0014695Y0105371D01*
X0014122Y0104798D01*
X0013645Y0104142D01*
X0013277Y0103419D01*
X0013027Y0102648D01*
X0012927Y0102018D01*
X0021025Y0102018D01*
X0021025Y0100867D01*
X0022175Y0100867D01*
X0022175Y0102018D01*
X0022175Y0102856D02*
X0021025Y0102856D01*
X0021025Y0104054D02*
X0022175Y0104054D01*
X0022175Y0105253D02*
X0021025Y0105253D01*
X0021025Y0106451D02*
X0022175Y0106451D01*
X0021025Y0101657D02*
X0003000Y0101657D01*
X0003000Y0100459D02*
X0012992Y0100459D01*
X0013027Y0100237D02*
X0013277Y0099466D01*
X0013645Y0098743D01*
X0014122Y0098088D01*
X0014695Y0097514D01*
X0015351Y0097038D01*
X0016073Y0096670D01*
X0016844Y0096419D01*
X0017645Y0096293D01*
X0021025Y0096293D01*
X0021025Y0100867D01*
X0012927Y0100867D01*
X0013027Y0100237D01*
X0013382Y0099260D02*
X0003000Y0099260D01*
X0003000Y0098062D02*
X0014148Y0098062D01*
X0015694Y0096863D02*
X0003000Y0096863D01*
X0003000Y0102856D02*
X0013094Y0102856D01*
X0013601Y0104054D02*
X0003000Y0104054D01*
X0003000Y0105253D02*
X0014577Y0105253D01*
X0016799Y0106451D02*
X0003000Y0106451D01*
X0003000Y0107650D02*
X0059400Y0107650D01*
X0059400Y0108848D02*
X0003000Y0108848D01*
X0003000Y0110047D02*
X0059400Y0110047D01*
X0059400Y0111245D02*
X0003000Y0111245D01*
X0003000Y0112444D02*
X0059400Y0112444D01*
X0059400Y0113642D02*
X0003000Y0113642D01*
X0003000Y0114841D02*
X0059400Y0114841D01*
X0059400Y0116039D02*
X0003000Y0116039D01*
X0003000Y0117238D02*
X0043804Y0117238D01*
X0042551Y0118436D02*
X0003000Y0118436D01*
X0021025Y0100459D02*
X0022175Y0100459D01*
X0022175Y0099260D02*
X0021025Y0099260D01*
X0021025Y0098062D02*
X0022175Y0098062D01*
X0022175Y0096863D02*
X0021025Y0096863D01*
X0026401Y0106451D02*
X0059400Y0106451D01*
X0059400Y0105253D02*
X0028623Y0105253D01*
X0029599Y0104054D02*
X0059400Y0104054D01*
X0059400Y0102856D02*
X0030106Y0102856D01*
X0015542Y0086076D02*
X0003000Y0086076D01*
X0003000Y0084878D02*
X0014170Y0084878D01*
X0013488Y0083679D02*
X0003000Y0083679D01*
X0003000Y0082481D02*
X0013100Y0082481D01*
X0013100Y0081282D02*
X0003000Y0081282D01*
X0003000Y0080084D02*
X0013385Y0080084D01*
X0013922Y0078885D02*
X0003000Y0078885D01*
X0003000Y0077687D02*
X0015120Y0077687D01*
X0019988Y0068099D02*
X0003000Y0068099D01*
X0003000Y0069297D02*
X0074400Y0069297D01*
X0074400Y0070496D02*
X0003000Y0070496D01*
X0003000Y0071694D02*
X0074400Y0071694D01*
X0074400Y0072893D02*
X0003000Y0072893D01*
X0003000Y0074091D02*
X0074400Y0074091D01*
X0074400Y0075290D02*
X0003000Y0075290D01*
X0003000Y0076488D02*
X0074400Y0076488D01*
X0074400Y0077687D02*
X0028080Y0077687D01*
X0029278Y0078885D02*
X0074400Y0078885D01*
X0078800Y0078885D02*
X0079400Y0078885D01*
X0079400Y0077687D02*
X0078800Y0077687D01*
X0078800Y0076488D02*
X0079400Y0076488D01*
X0079400Y0075290D02*
X0078800Y0075290D01*
X0078800Y0074091D02*
X0079400Y0074091D01*
X0079400Y0072893D02*
X0078800Y0072893D01*
X0078800Y0071694D02*
X0079400Y0071694D01*
X0079400Y0070496D02*
X0078800Y0070496D01*
X0078800Y0069297D02*
X0079400Y0069297D01*
X0079400Y0068099D02*
X0078800Y0068099D01*
X0078800Y0066900D02*
X0079400Y0066900D01*
X0079400Y0065702D02*
X0078800Y0065702D01*
X0079400Y0064503D02*
X0077615Y0064503D01*
X0079400Y0063305D02*
X0023800Y0063305D01*
X0023800Y0062106D02*
X0079400Y0062106D01*
X0079400Y0060908D02*
X0074505Y0060908D01*
X0075703Y0059709D02*
X0079400Y0059709D01*
X0079400Y0058511D02*
X0076329Y0058511D01*
X0076700Y0057312D02*
X0079400Y0057312D01*
X0079400Y0056114D02*
X0076700Y0056114D01*
X0076422Y0054915D02*
X0079400Y0054915D01*
X0079400Y0053717D02*
X0075926Y0053717D01*
X0074731Y0052518D02*
X0079400Y0052518D01*
X0079400Y0051320D02*
X0073800Y0051320D01*
X0073800Y0050121D02*
X0079400Y0050121D01*
X0079400Y0048923D02*
X0073800Y0048923D01*
X0073800Y0047724D02*
X0079400Y0047724D01*
X0079400Y0046526D02*
X0073800Y0046526D01*
X0073800Y0045327D02*
X0079400Y0045327D01*
X0079400Y0044129D02*
X0073800Y0044129D01*
X0073800Y0042930D02*
X0079400Y0042930D01*
X0079400Y0041732D02*
X0073800Y0041732D01*
X0073800Y0040533D02*
X0079400Y0040533D01*
X0079400Y0039334D02*
X0073800Y0039334D01*
X0073800Y0038136D02*
X0079400Y0038136D01*
X0079400Y0036937D02*
X0073800Y0036937D01*
X0073800Y0035739D02*
X0079400Y0035739D01*
X0079400Y0034540D02*
X0073800Y0034540D01*
X0073800Y0033342D02*
X0079400Y0033342D01*
X0079400Y0032143D02*
X0073800Y0032143D01*
X0073800Y0030945D02*
X0079400Y0030945D01*
X0079400Y0029746D02*
X0073800Y0029746D01*
X0073800Y0028548D02*
X0079400Y0028548D01*
X0079400Y0027349D02*
X0073800Y0027349D01*
X0073800Y0026151D02*
X0079400Y0026151D01*
X0079400Y0024952D02*
X0073800Y0024952D01*
X0073800Y0023754D02*
X0079400Y0023754D01*
X0079400Y0022555D02*
X0073800Y0022555D01*
X0073800Y0021357D02*
X0079400Y0021357D01*
X0079930Y0020158D02*
X0073800Y0020158D01*
X0073800Y0018960D02*
X0081807Y0018960D01*
X0081807Y0017761D02*
X0073800Y0017761D01*
X0073800Y0016563D02*
X0082016Y0016563D01*
X0082512Y0015364D02*
X0073800Y0015364D01*
X0073800Y0014166D02*
X0083641Y0014166D01*
X0089874Y0014166D02*
X0094400Y0014166D01*
X0094400Y0015364D02*
X0091003Y0015364D01*
X0091499Y0016563D02*
X0094400Y0016563D01*
X0094400Y0017761D02*
X0091707Y0017761D01*
X0091707Y0018960D02*
X0094400Y0018960D01*
X0094400Y0020158D02*
X0091707Y0020158D01*
X0091707Y0021357D02*
X0094400Y0021357D01*
X0094400Y0022555D02*
X0091707Y0022555D01*
X0091707Y0023754D02*
X0094400Y0023754D01*
X0094400Y0024952D02*
X0091707Y0024952D01*
X0091701Y0026151D02*
X0094400Y0026151D01*
X0094400Y0027349D02*
X0091204Y0027349D01*
X0090360Y0028548D02*
X0094400Y0028548D01*
X0094400Y0029746D02*
X0088596Y0029746D01*
X0084919Y0029746D02*
X0083800Y0029746D01*
X0083800Y0030945D02*
X0094400Y0030945D01*
X0094400Y0032143D02*
X0083800Y0032143D01*
X0083800Y0033342D02*
X0094400Y0033342D01*
X0094400Y0034540D02*
X0083800Y0034540D01*
X0083800Y0035739D02*
X0094400Y0035739D01*
X0094400Y0036937D02*
X0083800Y0036937D01*
X0083800Y0038136D02*
X0095025Y0038136D01*
X0098800Y0033342D02*
X0119400Y0033342D01*
X0119400Y0032143D02*
X0098800Y0032143D01*
X0098800Y0030945D02*
X0119400Y0030945D01*
X0119400Y0029746D02*
X0108765Y0029746D01*
X0108419Y0029923D02*
X0107648Y0030173D01*
X0107018Y0030273D01*
X0107018Y0022175D01*
X0111593Y0022175D01*
X0111593Y0025555D01*
X0111466Y0026356D01*
X0111215Y0027127D01*
X0110847Y0027849D01*
X0110371Y0028505D01*
X0109798Y0029078D01*
X0109142Y0029555D01*
X0108419Y0029923D01*
X0107018Y0029746D02*
X0105867Y0029746D01*
X0105867Y0030273D02*
X0105237Y0030173D01*
X0104466Y0029923D01*
X0103743Y0029555D01*
X0103088Y0029078D01*
X0102514Y0028505D01*
X0102038Y0027849D01*
X0101670Y0027127D01*
X0101419Y0026356D01*
X0101293Y0025555D01*
X0101293Y0022175D01*
X0105867Y0022175D01*
X0105867Y0021025D01*
X0101293Y0021025D01*
X0101293Y0017645D01*
X0101419Y0016844D01*
X0101670Y0016073D01*
X0102038Y0015351D01*
X0102514Y0014695D01*
X0103088Y0014122D01*
X0103743Y0013645D01*
X0104466Y0013277D01*
X0105237Y0013027D01*
X0105867Y0012927D01*
X0105867Y0021025D01*
X0107018Y0021025D01*
X0107018Y0022175D01*
X0105867Y0022175D01*
X0105867Y0030273D01*
X0105867Y0028548D02*
X0107018Y0028548D01*
X0107018Y0027349D02*
X0105867Y0027349D01*
X0105867Y0026151D02*
X0107018Y0026151D01*
X0107018Y0024952D02*
X0105867Y0024952D01*
X0105867Y0023754D02*
X0107018Y0023754D01*
X0107018Y0022555D02*
X0105867Y0022555D01*
X0105867Y0021357D02*
X0098800Y0021357D01*
X0098800Y0022555D02*
X0101293Y0022555D01*
X0101293Y0023754D02*
X0098800Y0023754D01*
X0098800Y0024952D02*
X0101293Y0024952D01*
X0101387Y0026151D02*
X0098800Y0026151D01*
X0098800Y0027349D02*
X0101783Y0027349D01*
X0102557Y0028548D02*
X0098800Y0028548D01*
X0098800Y0029746D02*
X0104120Y0029746D01*
X0110328Y0028548D02*
X0119400Y0028548D01*
X0119400Y0027349D02*
X0111102Y0027349D01*
X0111498Y0026151D02*
X0119400Y0026151D01*
X0119400Y0024952D02*
X0111593Y0024952D01*
X0111593Y0023754D02*
X0119400Y0023754D01*
X0119400Y0022555D02*
X0111593Y0022555D01*
X0111593Y0021025D02*
X0107018Y0021025D01*
X0107018Y0012927D01*
X0107648Y0013027D01*
X0108419Y0013277D01*
X0109142Y0013645D01*
X0109798Y0014122D01*
X0110371Y0014695D01*
X0110847Y0015351D01*
X0111215Y0016073D01*
X0111466Y0016844D01*
X0111593Y0017645D01*
X0111593Y0021025D01*
X0111593Y0020158D02*
X0119400Y0020158D01*
X0119400Y0018960D02*
X0111593Y0018960D01*
X0111593Y0017761D02*
X0119400Y0017761D01*
X0119400Y0016563D02*
X0111374Y0016563D01*
X0110854Y0015364D02*
X0119400Y0015364D01*
X0119400Y0014166D02*
X0109841Y0014166D01*
X0107018Y0014166D02*
X0105867Y0014166D01*
X0105867Y0015364D02*
X0107018Y0015364D01*
X0107018Y0016563D02*
X0105867Y0016563D01*
X0105867Y0017761D02*
X0107018Y0017761D01*
X0107018Y0018960D02*
X0105867Y0018960D01*
X0105867Y0020158D02*
X0107018Y0020158D01*
X0107018Y0021357D02*
X0119400Y0021357D01*
X0123800Y0021357D02*
X0129400Y0021357D01*
X0129400Y0022555D02*
X0123800Y0022555D01*
X0123800Y0023754D02*
X0129400Y0023754D01*
X0129400Y0024952D02*
X0123800Y0024952D01*
X0123800Y0026151D02*
X0129400Y0026151D01*
X0129400Y0027349D02*
X0123800Y0027349D01*
X0123800Y0028548D02*
X0129400Y0028548D01*
X0129400Y0029746D02*
X0123800Y0029746D01*
X0123800Y0030945D02*
X0129400Y0030945D01*
X0129400Y0032143D02*
X0123800Y0032143D01*
X0123800Y0033342D02*
X0129400Y0033342D01*
X0129400Y0034540D02*
X0123800Y0034540D01*
X0123800Y0035739D02*
X0129400Y0035739D01*
X0129400Y0036937D02*
X0123800Y0036937D01*
X0123800Y0038136D02*
X0129400Y0038136D01*
X0129400Y0039334D02*
X0123800Y0039334D01*
X0123800Y0040533D02*
X0129400Y0040533D01*
X0129400Y0041732D02*
X0123800Y0041732D01*
X0123800Y0042930D02*
X0129400Y0042930D01*
X0129400Y0044129D02*
X0123800Y0044129D01*
X0123800Y0045327D02*
X0129400Y0045327D01*
X0129400Y0046526D02*
X0123800Y0046526D01*
X0123800Y0047724D02*
X0129400Y0047724D01*
X0129400Y0048923D02*
X0123800Y0048923D01*
X0123800Y0050121D02*
X0129400Y0050121D01*
X0129400Y0051320D02*
X0123800Y0051320D01*
X0123800Y0052518D02*
X0129400Y0052518D01*
X0129400Y0053717D02*
X0123800Y0053717D01*
X0123800Y0054915D02*
X0129400Y0054915D01*
X0129400Y0056114D02*
X0123800Y0056114D01*
X0123800Y0057312D02*
X0129400Y0057312D01*
X0129400Y0058511D02*
X0123800Y0058511D01*
X0123800Y0059709D02*
X0129400Y0059709D01*
X0129400Y0060908D02*
X0123800Y0060908D01*
X0123800Y0062106D02*
X0129400Y0062106D01*
X0129400Y0063305D02*
X0123007Y0063305D01*
X0119400Y0058511D02*
X0115723Y0058511D01*
X0114525Y0057312D02*
X0119400Y0057312D01*
X0119400Y0056114D02*
X0106700Y0056114D01*
X0106700Y0057312D02*
X0108675Y0057312D01*
X0107477Y0058511D02*
X0106329Y0058511D01*
X0106863Y0059709D02*
X0105703Y0059709D01*
X0106500Y0060908D02*
X0104505Y0060908D01*
X0106500Y0062106D02*
X0083800Y0062106D01*
X0083800Y0060908D02*
X0098695Y0060908D01*
X0097497Y0059709D02*
X0083800Y0059709D01*
X0083800Y0063305D02*
X0106786Y0063305D01*
X0107291Y0064503D02*
X0083800Y0064503D01*
X0083800Y0065702D02*
X0108489Y0065702D01*
X0114711Y0065702D02*
X0129400Y0065702D01*
X0129400Y0066900D02*
X0083800Y0066900D01*
X0083800Y0068099D02*
X0129400Y0068099D01*
X0129400Y0069297D02*
X0083800Y0069297D01*
X0083800Y0070496D02*
X0129400Y0070496D01*
X0129400Y0071694D02*
X0083800Y0071694D01*
X0083800Y0072893D02*
X0129400Y0072893D01*
X0129400Y0074091D02*
X0083800Y0074091D01*
X0083800Y0075290D02*
X0129400Y0075290D01*
X0129400Y0076488D02*
X0083800Y0076488D01*
X0083800Y0077687D02*
X0129400Y0077687D01*
X0129400Y0078885D02*
X0083800Y0078885D01*
X0079400Y0080084D02*
X0078800Y0080084D01*
X0078800Y0081282D02*
X0079400Y0081282D01*
X0079400Y0082481D02*
X0078800Y0082481D01*
X0078800Y0083679D02*
X0080568Y0083679D01*
X0077995Y0092425D02*
X0076460Y0093061D01*
X0075286Y0094235D01*
X0074650Y0095770D01*
X0074650Y0097430D01*
X0075286Y0098965D01*
X0076460Y0100139D01*
X0077995Y0100775D01*
X0085205Y0100775D01*
X0086740Y0100139D01*
X0087914Y0098965D01*
X0088550Y0097430D01*
X0088550Y0095770D01*
X0087914Y0094235D01*
X0086740Y0093061D01*
X0085205Y0092425D01*
X0077995Y0092425D01*
X0076254Y0093268D02*
X0063800Y0093268D01*
X0063800Y0094466D02*
X0075190Y0094466D01*
X0074694Y0095665D02*
X0063800Y0095665D01*
X0063800Y0096863D02*
X0074650Y0096863D01*
X0074912Y0098062D02*
X0063800Y0098062D01*
X0063800Y0099260D02*
X0075581Y0099260D01*
X0077231Y0100459D02*
X0063800Y0100459D01*
X0063800Y0101657D02*
X0094400Y0101657D01*
X0094400Y0100459D02*
X0085969Y0100459D01*
X0087619Y0099260D02*
X0094400Y0099260D01*
X0094400Y0098062D02*
X0088288Y0098062D01*
X0088550Y0096863D02*
X0094400Y0096863D01*
X0094400Y0095665D02*
X0088506Y0095665D01*
X0088010Y0094466D02*
X0094400Y0094466D01*
X0094400Y0093268D02*
X0086946Y0093268D01*
X0094400Y0092069D02*
X0063800Y0092069D01*
X0064542Y0090870D02*
X0094400Y0090870D01*
X0103800Y0089672D02*
X0105717Y0089672D01*
X0107483Y0089672D02*
X0114400Y0089672D01*
X0114400Y0088473D02*
X0103800Y0088473D01*
X0103800Y0087275D02*
X0114400Y0087275D01*
X0114400Y0086076D02*
X0103800Y0086076D01*
X0103800Y0084878D02*
X0114400Y0084878D01*
X0114400Y0083679D02*
X0103800Y0083679D01*
X0103800Y0082481D02*
X0114400Y0082481D01*
X0114400Y0081282D02*
X0103800Y0081282D01*
X0103195Y0080084D02*
X0115005Y0080084D01*
X0118800Y0084878D02*
X0125211Y0084878D01*
X0124400Y0086076D02*
X0118800Y0086076D01*
X0118800Y0087275D02*
X0124400Y0087275D01*
X0124400Y0088473D02*
X0118800Y0088473D01*
X0118800Y0089672D02*
X0124400Y0089672D01*
X0123651Y0090870D02*
X0119549Y0090870D01*
X0120391Y0092069D02*
X0122809Y0092069D01*
X0122425Y0093268D02*
X0120775Y0093268D01*
X0120775Y0094466D02*
X0122425Y0094466D01*
X0122425Y0095665D02*
X0120775Y0095665D01*
X0120775Y0096863D02*
X0122425Y0096863D01*
X0122425Y0098062D02*
X0120775Y0098062D01*
X0120775Y0099260D02*
X0122425Y0099260D01*
X0122530Y0100459D02*
X0120670Y0100459D01*
X0120173Y0101657D02*
X0123027Y0101657D01*
X0124177Y0102856D02*
X0119023Y0102856D01*
X0114177Y0102856D02*
X0109023Y0102856D01*
X0110173Y0101657D02*
X0113027Y0101657D01*
X0112530Y0100459D02*
X0110670Y0100459D01*
X0110775Y0099260D02*
X0112425Y0099260D01*
X0112425Y0098062D02*
X0110775Y0098062D01*
X0110775Y0096863D02*
X0112425Y0096863D01*
X0112425Y0095665D02*
X0110775Y0095665D01*
X0110775Y0094466D02*
X0112425Y0094466D01*
X0112425Y0093268D02*
X0110775Y0093268D01*
X0110391Y0092069D02*
X0112809Y0092069D01*
X0113651Y0090870D02*
X0109549Y0090870D01*
X0104177Y0102856D02*
X0103800Y0102856D01*
X0103800Y0104054D02*
X0135467Y0104054D01*
X0135286Y0104235D02*
X0136460Y0103061D01*
X0137995Y0102425D01*
X0145205Y0102425D01*
X0146740Y0103061D01*
X0147914Y0104235D01*
X0147982Y0104400D01*
X0149400Y0104400D01*
X0149400Y0100689D01*
X0150689Y0099400D01*
X0155165Y0099400D01*
X0155239Y0099221D01*
X0156421Y0098039D01*
X0157965Y0097400D01*
X0165235Y0097400D01*
X0166779Y0098039D01*
X0167961Y0099221D01*
X0168600Y0100765D01*
X0168600Y0102435D01*
X0167961Y0103979D01*
X0166779Y0105161D01*
X0165235Y0105800D01*
X0157965Y0105800D01*
X0156421Y0105161D01*
X0155239Y0103979D01*
X0155165Y0103800D01*
X0153800Y0103800D01*
X0153800Y0107511D01*
X0152511Y0108800D01*
X0147982Y0108800D01*
X0147914Y0108965D01*
X0147479Y0109400D01*
X0155165Y0109400D01*
X0155239Y0109221D01*
X0156421Y0108039D01*
X0157965Y0107400D01*
X0165235Y0107400D01*
X0166779Y0108039D01*
X0167961Y0109221D01*
X0168600Y0110765D01*
X0168600Y0112435D01*
X0167961Y0113979D01*
X0166779Y0115161D01*
X0165235Y0115800D01*
X0157965Y0115800D01*
X0156421Y0115161D01*
X0155239Y0113979D01*
X0155165Y0113800D01*
X0147479Y0113800D01*
X0147914Y0114235D01*
X0147982Y0114400D01*
X0152511Y0114400D01*
X0153800Y0115689D01*
X0153800Y0119400D01*
X0155165Y0119400D01*
X0155239Y0119221D01*
X0156421Y0118039D01*
X0157965Y0117400D01*
X0165235Y0117400D01*
X0166779Y0118039D01*
X0167961Y0119221D01*
X0168600Y0120765D01*
X0168600Y0122435D01*
X0167961Y0123979D01*
X0166779Y0125161D01*
X0165235Y0125800D01*
X0157965Y0125800D01*
X0156421Y0125161D01*
X0155239Y0123979D01*
X0155165Y0123800D01*
X0150689Y0123800D01*
X0149400Y0122511D01*
X0149400Y0118800D01*
X0147982Y0118800D01*
X0147914Y0118965D01*
X0146740Y0120139D01*
X0145205Y0120775D01*
X0137995Y0120775D01*
X0136460Y0120139D01*
X0135286Y0118965D01*
X0134650Y0117430D01*
X0134650Y0115770D01*
X0135286Y0114235D01*
X0135721Y0113800D01*
X0128800Y0113800D01*
X0128800Y0124400D01*
X0135218Y0124400D01*
X0135286Y0124235D01*
X0136460Y0123061D01*
X0137995Y0122425D01*
X0145205Y0122425D01*
X0146740Y0123061D01*
X0147914Y0124235D01*
X0148550Y0125770D01*
X0148550Y0127430D01*
X0147914Y0128965D01*
X0146740Y0130139D01*
X0145205Y0130775D01*
X0137995Y0130775D01*
X0136460Y0130139D01*
X0135286Y0128965D01*
X0135218Y0128800D01*
X0125689Y0128800D01*
X0124400Y0127511D01*
X0124400Y0110689D01*
X0125689Y0109400D01*
X0135721Y0109400D01*
X0135286Y0108965D01*
X0134650Y0107430D01*
X0134650Y0105770D01*
X0135286Y0104235D01*
X0134865Y0105253D02*
X0103800Y0105253D01*
X0103800Y0106451D02*
X0134650Y0106451D01*
X0134741Y0107650D02*
X0103800Y0107650D01*
X0103800Y0108848D02*
X0135238Y0108848D01*
X0136956Y0102856D02*
X0129023Y0102856D01*
X0130173Y0101657D02*
X0149400Y0101657D01*
X0149400Y0102856D02*
X0146244Y0102856D01*
X0147733Y0104054D02*
X0149400Y0104054D01*
X0153800Y0104054D02*
X0155314Y0104054D01*
X0156643Y0105253D02*
X0153800Y0105253D01*
X0153800Y0106451D02*
X0174400Y0106451D01*
X0174400Y0105253D02*
X0166557Y0105253D01*
X0167886Y0104054D02*
X0174400Y0104054D01*
X0174400Y0102856D02*
X0168426Y0102856D01*
X0168600Y0101657D02*
X0174400Y0101657D01*
X0174400Y0100459D02*
X0168473Y0100459D01*
X0167977Y0099260D02*
X0174400Y0099260D01*
X0174400Y0098062D02*
X0166801Y0098062D01*
X0165562Y0095665D02*
X0174400Y0095665D01*
X0174400Y0096863D02*
X0148550Y0096863D01*
X0148550Y0097430D02*
X0147914Y0098965D01*
X0146740Y0100139D01*
X0145205Y0100775D01*
X0137995Y0100775D01*
X0136460Y0100139D01*
X0135286Y0098965D01*
X0134650Y0097430D01*
X0134650Y0095770D01*
X0135286Y0094235D01*
X0136460Y0093061D01*
X0137995Y0092425D01*
X0139400Y0092425D01*
X0139400Y0090689D01*
X0140689Y0089400D01*
X0155165Y0089400D01*
X0155239Y0089221D01*
X0156421Y0088039D01*
X0157965Y0087400D01*
X0165235Y0087400D01*
X0166779Y0088039D01*
X0167961Y0089221D01*
X0168600Y0090765D01*
X0168600Y0092435D01*
X0167961Y0093979D01*
X0166779Y0095161D01*
X0165235Y0095800D01*
X0157965Y0095800D01*
X0156421Y0095161D01*
X0155239Y0093979D01*
X0155165Y0093800D01*
X0147479Y0093800D01*
X0147914Y0094235D01*
X0148550Y0095770D01*
X0148550Y0097430D01*
X0148288Y0098062D02*
X0156399Y0098062D01*
X0155223Y0099260D02*
X0147619Y0099260D01*
X0145969Y0100459D02*
X0149630Y0100459D01*
X0148506Y0095665D02*
X0157638Y0095665D01*
X0155726Y0094466D02*
X0148010Y0094466D01*
X0152838Y0088473D02*
X0155987Y0088473D01*
X0153800Y0087275D02*
X0174400Y0087275D01*
X0174400Y0088473D02*
X0167213Y0088473D01*
X0168147Y0089672D02*
X0174400Y0089672D01*
X0174400Y0090870D02*
X0168600Y0090870D01*
X0168600Y0092069D02*
X0174400Y0092069D01*
X0174400Y0093268D02*
X0168255Y0093268D01*
X0167474Y0094466D02*
X0174400Y0094466D01*
X0178800Y0094466D02*
X0229400Y0094466D01*
X0229400Y0093268D02*
X0178800Y0093268D01*
X0178800Y0092069D02*
X0229400Y0092069D01*
X0229400Y0090870D02*
X0194542Y0090870D01*
X0195741Y0089672D02*
X0229400Y0089672D01*
X0232989Y0084878D02*
X0243901Y0084878D01*
X0243901Y0086076D02*
X0233800Y0086076D01*
X0233800Y0087275D02*
X0243901Y0087275D01*
X0243901Y0088473D02*
X0233800Y0088473D01*
X0233800Y0089672D02*
X0243901Y0089672D01*
X0243901Y0090870D02*
X0233800Y0090870D01*
X0233800Y0092069D02*
X0243901Y0092069D01*
X0243901Y0093268D02*
X0233800Y0093268D01*
X0233800Y0094466D02*
X0243901Y0094466D01*
X0243901Y0095665D02*
X0233800Y0095665D01*
X0233800Y0096863D02*
X0243901Y0096863D01*
X0243901Y0098062D02*
X0233800Y0098062D01*
X0233800Y0099260D02*
X0243901Y0099260D01*
X0243901Y0100459D02*
X0233800Y0100459D01*
X0233800Y0101657D02*
X0243901Y0101657D01*
X0243901Y0102856D02*
X0233800Y0102856D01*
X0233800Y0104054D02*
X0243901Y0104054D01*
X0243901Y0105253D02*
X0233800Y0105253D01*
X0233800Y0106451D02*
X0243901Y0106451D01*
X0243901Y0107650D02*
X0233800Y0107650D01*
X0233800Y0108848D02*
X0243901Y0108848D01*
X0243901Y0110047D02*
X0233800Y0110047D01*
X0233800Y0111245D02*
X0243901Y0111245D01*
X0243901Y0112444D02*
X0233800Y0112444D01*
X0232669Y0113642D02*
X0243901Y0113642D01*
X0243901Y0117238D02*
X0228124Y0117238D01*
X0229332Y0118436D02*
X0243901Y0118436D01*
X0243901Y0119635D02*
X0229978Y0119635D01*
X0230268Y0120833D02*
X0243901Y0120833D01*
X0243901Y0122032D02*
X0230271Y0122032D01*
X0230273Y0122018D02*
X0230173Y0122648D01*
X0229923Y0123419D01*
X0229555Y0124142D01*
X0229078Y0124798D01*
X0228505Y0125371D01*
X0227849Y0125847D01*
X0227127Y0126215D01*
X0226356Y0126466D01*
X0225555Y0126593D01*
X0222175Y0126593D01*
X0222175Y0122018D01*
X0230273Y0122018D01*
X0229984Y0123230D02*
X0243901Y0123230D01*
X0243901Y0124429D02*
X0229346Y0124429D01*
X0228152Y0125627D02*
X0243901Y0125627D01*
X0229400Y0108848D02*
X0183800Y0108848D01*
X0183800Y0107650D02*
X0229400Y0107650D01*
X0229400Y0106451D02*
X0226753Y0106451D01*
X0228655Y0105253D02*
X0229400Y0105253D01*
X0229400Y0098062D02*
X0228454Y0098062D01*
X0229400Y0096863D02*
X0226269Y0096863D01*
X0229400Y0095665D02*
X0178800Y0095665D01*
X0178800Y0096863D02*
X0189709Y0096863D01*
X0187926Y0098062D02*
X0178800Y0098062D01*
X0178800Y0099260D02*
X0187049Y0099260D01*
X0187096Y0104054D02*
X0183800Y0104054D01*
X0183800Y0105253D02*
X0188040Y0105253D01*
X0189985Y0106451D02*
X0183800Y0106451D01*
X0183800Y0110047D02*
X0190042Y0110047D01*
X0189400Y0111245D02*
X0183800Y0111245D01*
X0183800Y0112444D02*
X0189400Y0112444D01*
X0189400Y0113642D02*
X0183800Y0113642D01*
X0179400Y0113642D02*
X0178800Y0113642D01*
X0178800Y0112444D02*
X0179400Y0112444D01*
X0179400Y0111245D02*
X0178800Y0111245D01*
X0178800Y0110047D02*
X0179400Y0110047D01*
X0179400Y0108848D02*
X0178800Y0108848D01*
X0178800Y0107650D02*
X0179400Y0107650D01*
X0179400Y0106451D02*
X0178800Y0106451D01*
X0178800Y0105253D02*
X0179400Y0105253D01*
X0179400Y0104054D02*
X0178800Y0104054D01*
X0178800Y0102856D02*
X0179400Y0102856D01*
X0179396Y0101657D02*
X0178800Y0101657D01*
X0178800Y0100459D02*
X0179788Y0100459D01*
X0174400Y0107650D02*
X0165838Y0107650D01*
X0167588Y0108848D02*
X0174400Y0108848D01*
X0174400Y0110047D02*
X0168303Y0110047D01*
X0168600Y0111245D02*
X0174400Y0111245D01*
X0174400Y0112444D02*
X0168597Y0112444D01*
X0168100Y0113642D02*
X0174400Y0113642D01*
X0174400Y0114841D02*
X0167099Y0114841D01*
X0167176Y0118436D02*
X0174400Y0118436D01*
X0174400Y0117238D02*
X0153800Y0117238D01*
X0153800Y0118436D02*
X0156024Y0118436D01*
X0153800Y0116039D02*
X0174400Y0116039D01*
X0174400Y0119635D02*
X0168132Y0119635D01*
X0168600Y0120833D02*
X0174400Y0120833D01*
X0174400Y0122032D02*
X0168600Y0122032D01*
X0168271Y0123230D02*
X0174400Y0123230D01*
X0174400Y0124429D02*
X0167511Y0124429D01*
X0165652Y0125627D02*
X0174400Y0125627D01*
X0174400Y0126826D02*
X0148550Y0126826D01*
X0148491Y0125627D02*
X0157548Y0125627D01*
X0157770Y0127308D02*
X0158454Y0127200D01*
X0161400Y0127200D01*
X0161400Y0131400D01*
X0154400Y0131400D01*
X0154400Y0131254D01*
X0154508Y0130570D01*
X0154722Y0129911D01*
X0155037Y0129294D01*
X0155444Y0128734D01*
X0155934Y0128244D01*
X0156494Y0127837D01*
X0157111Y0127522D01*
X0157770Y0127308D01*
X0156236Y0128024D02*
X0148304Y0128024D01*
X0147656Y0129223D02*
X0155088Y0129223D01*
X0154557Y0130421D02*
X0146058Y0130421D01*
X0146154Y0132818D02*
X0154569Y0132818D01*
X0155117Y0134017D02*
X0147696Y0134017D01*
X0147978Y0138811D02*
X0179400Y0138811D01*
X0179400Y0140009D02*
X0146869Y0140009D01*
X0147284Y0143605D02*
X0179400Y0143605D01*
X0179400Y0142406D02*
X0103800Y0142406D01*
X0103800Y0141208D02*
X0179400Y0141208D01*
X0179400Y0137612D02*
X0178699Y0137612D01*
X0178800Y0136414D02*
X0179400Y0136414D01*
X0179400Y0135215D02*
X0178800Y0135215D01*
X0178800Y0134017D02*
X0179400Y0134017D01*
X0179400Y0132818D02*
X0178800Y0132818D01*
X0178800Y0131620D02*
X0179400Y0131620D01*
X0179400Y0130421D02*
X0178800Y0130421D01*
X0178800Y0129223D02*
X0179400Y0129223D01*
X0179400Y0128024D02*
X0178800Y0128024D01*
X0178800Y0126826D02*
X0179400Y0126826D01*
X0179400Y0125627D02*
X0178800Y0125627D01*
X0178800Y0124429D02*
X0179400Y0124429D01*
X0179400Y0123230D02*
X0178800Y0123230D01*
X0178800Y0122032D02*
X0179400Y0122032D01*
X0179400Y0120833D02*
X0178800Y0120833D01*
X0178800Y0119635D02*
X0179400Y0119635D01*
X0179400Y0118436D02*
X0178800Y0118436D01*
X0178800Y0117238D02*
X0179400Y0117238D01*
X0179400Y0116039D02*
X0178800Y0116039D01*
X0178800Y0114841D02*
X0179400Y0114841D01*
X0174400Y0128024D02*
X0166964Y0128024D01*
X0166706Y0127837D02*
X0167266Y0128244D01*
X0167756Y0128734D01*
X0168163Y0129294D01*
X0168478Y0129911D01*
X0168692Y0130570D01*
X0168800Y0131254D01*
X0168800Y0131400D01*
X0161800Y0131400D01*
X0161800Y0127200D01*
X0164746Y0127200D01*
X0165430Y0127308D01*
X0166089Y0127522D01*
X0166706Y0127837D01*
X0168112Y0129223D02*
X0174400Y0129223D01*
X0174400Y0130421D02*
X0168643Y0130421D01*
X0168631Y0132818D02*
X0174400Y0132818D01*
X0174400Y0131620D02*
X0161800Y0131620D01*
X0161400Y0131620D02*
X0103800Y0131620D01*
X0103800Y0132818D02*
X0137046Y0132818D01*
X0135504Y0134017D02*
X0103800Y0134017D01*
X0103800Y0135215D02*
X0134880Y0135215D01*
X0134650Y0136414D02*
X0103800Y0136414D01*
X0103800Y0137612D02*
X0134726Y0137612D01*
X0135222Y0138811D02*
X0103800Y0138811D01*
X0103800Y0140009D02*
X0136331Y0140009D01*
X0135916Y0143605D02*
X0103800Y0143605D01*
X0103800Y0144803D02*
X0135051Y0144803D01*
X0134650Y0146002D02*
X0103800Y0146002D01*
X0103800Y0147201D02*
X0134650Y0147201D01*
X0135052Y0148399D02*
X0103800Y0148399D01*
X0103800Y0149598D02*
X0135919Y0149598D01*
X0136328Y0153193D02*
X0103800Y0153193D01*
X0103800Y0151995D02*
X0184400Y0151995D01*
X0184400Y0153193D02*
X0146872Y0153193D01*
X0147979Y0154392D02*
X0184400Y0154392D01*
X0184400Y0150796D02*
X0103800Y0150796D01*
X0103800Y0154392D02*
X0135221Y0154392D01*
X0134725Y0155590D02*
X0103800Y0155590D01*
X0103800Y0156789D02*
X0134650Y0156789D01*
X0134881Y0157987D02*
X0128787Y0157987D01*
X0130090Y0159186D02*
X0135507Y0159186D01*
X0137052Y0160384D02*
X0130615Y0160384D01*
X0124413Y0157987D02*
X0103800Y0157987D01*
X0103800Y0159186D02*
X0123110Y0159186D01*
X0123076Y0163980D02*
X0098800Y0163980D01*
X0098800Y0165178D02*
X0124329Y0165178D01*
X0123522Y0168774D02*
X0098800Y0168774D01*
X0095456Y0173568D02*
X0087529Y0173568D01*
X0088350Y0174766D02*
X0123862Y0174766D01*
X0146065Y0162781D02*
X0199400Y0162781D01*
X0199400Y0163980D02*
X0147659Y0163980D01*
X0147281Y0149598D02*
X0185491Y0149598D01*
X0187588Y0148399D02*
X0182912Y0148399D01*
X0183800Y0147201D02*
X0188894Y0147201D01*
X0189400Y0146002D02*
X0183800Y0146002D01*
X0174400Y0134017D02*
X0168083Y0134017D01*
X0161800Y0130421D02*
X0161400Y0130421D01*
X0161400Y0129223D02*
X0161800Y0129223D01*
X0161800Y0128024D02*
X0161400Y0128024D01*
X0155689Y0124429D02*
X0147994Y0124429D01*
X0146909Y0123230D02*
X0150119Y0123230D01*
X0149400Y0122032D02*
X0128800Y0122032D01*
X0128800Y0123230D02*
X0136291Y0123230D01*
X0135956Y0119635D02*
X0128800Y0119635D01*
X0128800Y0120833D02*
X0149400Y0120833D01*
X0149400Y0119635D02*
X0147244Y0119635D01*
X0152952Y0114841D02*
X0156101Y0114841D01*
X0155612Y0108848D02*
X0147962Y0108848D01*
X0153662Y0107650D02*
X0157362Y0107650D01*
X0139400Y0092069D02*
X0130391Y0092069D01*
X0130775Y0093268D02*
X0136254Y0093268D01*
X0135190Y0094466D02*
X0130775Y0094466D01*
X0130775Y0095665D02*
X0134694Y0095665D01*
X0134650Y0096863D02*
X0130775Y0096863D01*
X0130775Y0098062D02*
X0134912Y0098062D01*
X0135581Y0099260D02*
X0130775Y0099260D01*
X0130670Y0100459D02*
X0137231Y0100459D01*
X0139400Y0090870D02*
X0129549Y0090870D01*
X0128800Y0089672D02*
X0140417Y0089672D01*
X0133800Y0082481D02*
X0149400Y0082481D01*
X0149400Y0083679D02*
X0132632Y0083679D01*
X0133800Y0081282D02*
X0149400Y0081282D01*
X0149400Y0080084D02*
X0133800Y0080084D01*
X0133800Y0078885D02*
X0149400Y0078885D01*
X0149400Y0077687D02*
X0133800Y0077687D01*
X0133800Y0076488D02*
X0149400Y0076488D01*
X0149400Y0075290D02*
X0133800Y0075290D01*
X0133800Y0074091D02*
X0149400Y0074091D01*
X0149400Y0072893D02*
X0133800Y0072893D01*
X0133800Y0071694D02*
X0149400Y0071694D01*
X0149400Y0070496D02*
X0133800Y0070496D01*
X0133800Y0069297D02*
X0149400Y0069297D01*
X0149400Y0068099D02*
X0133800Y0068099D01*
X0133800Y0066900D02*
X0149400Y0066900D01*
X0149400Y0065702D02*
X0144711Y0065702D01*
X0145909Y0064503D02*
X0149400Y0064503D01*
X0149400Y0063305D02*
X0146414Y0063305D01*
X0146700Y0062106D02*
X0149400Y0062106D01*
X0149400Y0060908D02*
X0146700Y0060908D01*
X0146337Y0059709D02*
X0149400Y0059709D01*
X0149400Y0058511D02*
X0145723Y0058511D01*
X0144525Y0057312D02*
X0149400Y0057312D01*
X0149400Y0056114D02*
X0133800Y0056114D01*
X0133800Y0057312D02*
X0138675Y0057312D01*
X0137477Y0058511D02*
X0133800Y0058511D01*
X0133800Y0054915D02*
X0149400Y0054915D01*
X0149400Y0053717D02*
X0133800Y0053717D01*
X0133800Y0052518D02*
X0149400Y0052518D01*
X0149400Y0051320D02*
X0143533Y0051320D01*
X0145291Y0050121D02*
X0149400Y0050121D01*
X0149400Y0048923D02*
X0146158Y0048923D01*
X0146655Y0047724D02*
X0149400Y0047724D01*
X0149400Y0046526D02*
X0146700Y0046526D01*
X0146593Y0045327D02*
X0149762Y0045327D01*
X0153800Y0048923D02*
X0167042Y0048923D01*
X0167909Y0050121D02*
X0153800Y0050121D01*
X0153800Y0051320D02*
X0169667Y0051320D01*
X0173533Y0051320D02*
X0179400Y0051320D01*
X0179400Y0052518D02*
X0153800Y0052518D01*
X0153800Y0053717D02*
X0179400Y0053717D01*
X0179400Y0054915D02*
X0153800Y0054915D01*
X0153800Y0056114D02*
X0179400Y0056114D01*
X0179400Y0057312D02*
X0153800Y0057312D01*
X0153800Y0058511D02*
X0155950Y0058511D01*
X0156421Y0058039D02*
X0155239Y0059221D01*
X0154600Y0060765D01*
X0154600Y0062435D01*
X0155239Y0063979D01*
X0156421Y0065161D01*
X0157965Y0065800D01*
X0165235Y0065800D01*
X0166779Y0065161D01*
X0167961Y0063979D01*
X0168600Y0062435D01*
X0168600Y0060765D01*
X0167961Y0059221D01*
X0166779Y0058039D01*
X0165235Y0057400D01*
X0157965Y0057400D01*
X0156421Y0058039D01*
X0155037Y0059709D02*
X0153800Y0059709D01*
X0153800Y0060908D02*
X0154600Y0060908D01*
X0154600Y0062106D02*
X0153800Y0062106D01*
X0153800Y0063305D02*
X0154960Y0063305D01*
X0155764Y0064503D02*
X0153800Y0064503D01*
X0153800Y0065702D02*
X0157727Y0065702D01*
X0157965Y0067400D02*
X0165235Y0067400D01*
X0166779Y0068039D01*
X0167961Y0069221D01*
X0168600Y0070765D01*
X0168600Y0072435D01*
X0167961Y0073979D01*
X0166779Y0075161D01*
X0165235Y0075800D01*
X0157965Y0075800D01*
X0156421Y0075161D01*
X0155239Y0073979D01*
X0154600Y0072435D01*
X0154600Y0070765D01*
X0155239Y0069221D01*
X0156421Y0068039D01*
X0157965Y0067400D01*
X0156362Y0068099D02*
X0153800Y0068099D01*
X0153800Y0069297D02*
X0155208Y0069297D01*
X0154711Y0070496D02*
X0153800Y0070496D01*
X0153800Y0071694D02*
X0154600Y0071694D01*
X0154789Y0072893D02*
X0153800Y0072893D01*
X0153800Y0074091D02*
X0155352Y0074091D01*
X0156733Y0075290D02*
X0153800Y0075290D01*
X0153800Y0076488D02*
X0169400Y0076488D01*
X0169400Y0075290D02*
X0166467Y0075290D01*
X0167848Y0074091D02*
X0169400Y0074091D01*
X0169400Y0072893D02*
X0168411Y0072893D01*
X0168600Y0071694D02*
X0169400Y0071694D01*
X0169400Y0070496D02*
X0168489Y0070496D01*
X0167992Y0069297D02*
X0169400Y0069297D01*
X0169400Y0068099D02*
X0166838Y0068099D01*
X0165473Y0065702D02*
X0169400Y0065702D01*
X0169400Y0066900D02*
X0153800Y0066900D01*
X0153800Y0077687D02*
X0157272Y0077687D01*
X0155575Y0078885D02*
X0153800Y0078885D01*
X0153800Y0080084D02*
X0154882Y0080084D01*
X0154600Y0081282D02*
X0153800Y0081282D01*
X0153800Y0082481D02*
X0154619Y0082481D01*
X0155115Y0083679D02*
X0153800Y0083679D01*
X0153800Y0084878D02*
X0156138Y0084878D01*
X0153800Y0086076D02*
X0174400Y0086076D01*
X0174400Y0084878D02*
X0167062Y0084878D01*
X0172632Y0083679D02*
X0174400Y0083679D01*
X0174400Y0082481D02*
X0173800Y0082481D01*
X0173800Y0081282D02*
X0174400Y0081282D01*
X0174400Y0080084D02*
X0173800Y0080084D01*
X0173800Y0078885D02*
X0174400Y0078885D01*
X0174400Y0077687D02*
X0173800Y0077687D01*
X0173800Y0076488D02*
X0174400Y0076488D01*
X0174400Y0075290D02*
X0173800Y0075290D01*
X0173800Y0074091D02*
X0174400Y0074091D01*
X0174400Y0072893D02*
X0173800Y0072893D01*
X0173800Y0071694D02*
X0174400Y0071694D01*
X0174593Y0070496D02*
X0173800Y0070496D01*
X0173800Y0069297D02*
X0189400Y0069297D01*
X0189400Y0068099D02*
X0173800Y0068099D01*
X0173800Y0066900D02*
X0189400Y0066900D01*
X0189400Y0065702D02*
X0173800Y0065702D01*
X0173800Y0064503D02*
X0189400Y0064503D01*
X0189400Y0063305D02*
X0183007Y0063305D01*
X0183800Y0062106D02*
X0189400Y0062106D01*
X0188695Y0060908D02*
X0183800Y0060908D01*
X0183800Y0059709D02*
X0187497Y0059709D01*
X0186871Y0058511D02*
X0183800Y0058511D01*
X0183800Y0057312D02*
X0186500Y0057312D01*
X0186500Y0056114D02*
X0183800Y0056114D01*
X0183800Y0054915D02*
X0186778Y0054915D01*
X0184400Y0048923D02*
X0176158Y0048923D01*
X0175291Y0050121D02*
X0179968Y0050121D01*
X0183587Y0047724D02*
X0184400Y0047724D01*
X0184400Y0046526D02*
X0183800Y0046526D01*
X0183800Y0045327D02*
X0184762Y0045327D01*
X0183800Y0044129D02*
X0219400Y0044129D01*
X0219400Y0042930D02*
X0183800Y0042930D01*
X0183800Y0041732D02*
X0219400Y0041732D01*
X0219400Y0040533D02*
X0183800Y0040533D01*
X0183800Y0039334D02*
X0219400Y0039334D01*
X0219400Y0038136D02*
X0213175Y0038136D01*
X0213800Y0036937D02*
X0219400Y0036937D01*
X0219400Y0035739D02*
X0213800Y0035739D01*
X0213800Y0034540D02*
X0219400Y0034540D01*
X0219400Y0033342D02*
X0213800Y0033342D01*
X0213800Y0032143D02*
X0219400Y0032143D01*
X0219400Y0030945D02*
X0213800Y0030945D01*
X0213800Y0029746D02*
X0219400Y0029746D01*
X0219400Y0028548D02*
X0215360Y0028548D01*
X0216204Y0027349D02*
X0219400Y0027349D01*
X0219400Y0026151D02*
X0216701Y0026151D01*
X0216707Y0024952D02*
X0219400Y0024952D01*
X0219400Y0023754D02*
X0216707Y0023754D01*
X0216707Y0022555D02*
X0219400Y0022555D01*
X0219400Y0021357D02*
X0216707Y0021357D01*
X0216707Y0020158D02*
X0219400Y0020158D01*
X0219400Y0018960D02*
X0216707Y0018960D01*
X0216707Y0017761D02*
X0219400Y0017761D01*
X0219400Y0016563D02*
X0216499Y0016563D01*
X0216003Y0015364D02*
X0219400Y0015364D01*
X0219400Y0014166D02*
X0214874Y0014166D01*
X0208641Y0014166D02*
X0203800Y0014166D01*
X0203800Y0015364D02*
X0207512Y0015364D01*
X0207016Y0016563D02*
X0203800Y0016563D01*
X0203800Y0017761D02*
X0206807Y0017761D01*
X0206807Y0018960D02*
X0203800Y0018960D01*
X0203800Y0020158D02*
X0206807Y0020158D01*
X0206807Y0021357D02*
X0203800Y0021357D01*
X0203800Y0022555D02*
X0206807Y0022555D01*
X0206807Y0023754D02*
X0203800Y0023754D01*
X0203800Y0024952D02*
X0206807Y0024952D01*
X0206814Y0026151D02*
X0203800Y0026151D01*
X0203800Y0027349D02*
X0207311Y0027349D01*
X0208155Y0028548D02*
X0203800Y0028548D01*
X0203800Y0029746D02*
X0209400Y0029746D01*
X0209400Y0030945D02*
X0203800Y0030945D01*
X0203800Y0032143D02*
X0209400Y0032143D01*
X0209400Y0033342D02*
X0202969Y0033342D01*
X0199400Y0028548D02*
X0190328Y0028548D01*
X0191102Y0027349D02*
X0199400Y0027349D01*
X0199400Y0026151D02*
X0191498Y0026151D01*
X0191593Y0024952D02*
X0199400Y0024952D01*
X0199400Y0023754D02*
X0191593Y0023754D01*
X0191593Y0022555D02*
X0199400Y0022555D01*
X0199400Y0021357D02*
X0187018Y0021357D01*
X0187018Y0021025D02*
X0191593Y0021025D01*
X0191593Y0017645D01*
X0191466Y0016844D01*
X0191215Y0016073D01*
X0190847Y0015351D01*
X0190371Y0014695D01*
X0189798Y0014122D01*
X0189142Y0013645D01*
X0188419Y0013277D01*
X0187648Y0013027D01*
X0187018Y0012927D01*
X0187018Y0021025D01*
X0187018Y0020158D02*
X0185867Y0020158D01*
X0185867Y0018960D02*
X0187018Y0018960D01*
X0187018Y0017761D02*
X0185867Y0017761D01*
X0185867Y0016563D02*
X0187018Y0016563D01*
X0187018Y0015364D02*
X0185867Y0015364D01*
X0185867Y0014166D02*
X0187018Y0014166D01*
X0187018Y0012967D02*
X0185867Y0012967D01*
X0185613Y0012967D02*
X0178800Y0012967D01*
X0178800Y0011769D02*
X0199400Y0011769D01*
X0199400Y0012967D02*
X0187272Y0012967D01*
X0189841Y0014166D02*
X0199400Y0014166D01*
X0199400Y0015364D02*
X0190854Y0015364D01*
X0191374Y0016563D02*
X0199400Y0016563D01*
X0199400Y0017761D02*
X0191593Y0017761D01*
X0191593Y0018960D02*
X0199400Y0018960D01*
X0199400Y0020158D02*
X0191593Y0020158D01*
X0185867Y0021357D02*
X0178800Y0021357D01*
X0178800Y0022555D02*
X0181293Y0022555D01*
X0181293Y0023754D02*
X0178800Y0023754D01*
X0178800Y0024952D02*
X0181293Y0024952D01*
X0181387Y0026151D02*
X0178800Y0026151D01*
X0178800Y0027349D02*
X0181783Y0027349D01*
X0182557Y0028548D02*
X0178800Y0028548D01*
X0180548Y0034540D02*
X0143800Y0034540D01*
X0143800Y0035739D02*
X0179400Y0035739D01*
X0179400Y0036937D02*
X0143800Y0036937D01*
X0143800Y0038136D02*
X0179400Y0038136D01*
X0179400Y0039334D02*
X0143800Y0039334D01*
X0143800Y0040533D02*
X0179400Y0040533D01*
X0179400Y0041732D02*
X0173173Y0041732D01*
X0175143Y0042930D02*
X0179400Y0042930D01*
X0179400Y0044129D02*
X0176096Y0044129D01*
X0170027Y0041732D02*
X0143800Y0041732D01*
X0145143Y0042930D02*
X0168057Y0042930D01*
X0167104Y0044129D02*
X0146096Y0044129D01*
X0139400Y0041732D02*
X0133800Y0041732D01*
X0133800Y0042930D02*
X0138057Y0042930D01*
X0137103Y0044129D02*
X0133800Y0044129D01*
X0133800Y0045327D02*
X0136607Y0045327D01*
X0136500Y0046526D02*
X0133800Y0046526D01*
X0133800Y0047724D02*
X0136545Y0047724D01*
X0137042Y0048923D02*
X0133800Y0048923D01*
X0133800Y0050121D02*
X0137909Y0050121D01*
X0139667Y0051320D02*
X0133800Y0051320D01*
X0133800Y0040533D02*
X0139400Y0040533D01*
X0139400Y0039334D02*
X0133800Y0039334D01*
X0133800Y0038136D02*
X0139400Y0038136D01*
X0139400Y0036937D02*
X0133800Y0036937D01*
X0133800Y0035739D02*
X0139400Y0035739D01*
X0139400Y0034540D02*
X0133800Y0034540D01*
X0133800Y0033342D02*
X0139400Y0033342D01*
X0139400Y0032143D02*
X0133800Y0032143D01*
X0133800Y0030945D02*
X0139400Y0030945D01*
X0140342Y0029746D02*
X0133800Y0029746D01*
X0133800Y0028548D02*
X0163155Y0028548D01*
X0162311Y0027349D02*
X0133800Y0027349D01*
X0133800Y0026151D02*
X0161814Y0026151D01*
X0161807Y0024952D02*
X0133800Y0024952D01*
X0129930Y0020158D02*
X0123800Y0020158D01*
X0123800Y0018960D02*
X0161807Y0018960D01*
X0161807Y0017761D02*
X0123800Y0017761D01*
X0123800Y0016563D02*
X0162016Y0016563D01*
X0162512Y0015364D02*
X0123800Y0015364D01*
X0123800Y0014166D02*
X0163641Y0014166D01*
X0178681Y0010570D02*
X0199518Y0010570D01*
X0183044Y0014166D02*
X0178800Y0014166D01*
X0178800Y0015364D02*
X0182031Y0015364D01*
X0181511Y0016563D02*
X0178800Y0016563D01*
X0178800Y0017761D02*
X0181293Y0017761D01*
X0181293Y0018960D02*
X0178800Y0018960D01*
X0178800Y0020158D02*
X0181293Y0020158D01*
X0179400Y0058511D02*
X0167250Y0058511D01*
X0168163Y0059709D02*
X0170380Y0059709D01*
X0169400Y0060908D02*
X0168600Y0060908D01*
X0168600Y0062106D02*
X0169400Y0062106D01*
X0169400Y0063305D02*
X0168240Y0063305D01*
X0167436Y0064503D02*
X0169400Y0064503D01*
X0178800Y0074091D02*
X0204400Y0074091D01*
X0204400Y0072893D02*
X0193418Y0072893D01*
X0193800Y0071694D02*
X0204400Y0071694D01*
X0204400Y0070496D02*
X0193800Y0070496D01*
X0193800Y0069297D02*
X0204400Y0069297D01*
X0204400Y0068099D02*
X0193800Y0068099D01*
X0193800Y0066900D02*
X0204400Y0066900D01*
X0204400Y0065702D02*
X0193800Y0065702D01*
X0193800Y0064503D02*
X0205585Y0064503D01*
X0208800Y0069297D02*
X0243901Y0069297D01*
X0243901Y0068099D02*
X0233212Y0068099D01*
X0233800Y0066900D02*
X0243901Y0066900D01*
X0243901Y0065702D02*
X0233800Y0065702D01*
X0233800Y0064503D02*
X0243901Y0064503D01*
X0243901Y0063305D02*
X0233800Y0063305D01*
X0233800Y0062106D02*
X0243901Y0062106D01*
X0243901Y0060908D02*
X0233800Y0060908D01*
X0233800Y0059709D02*
X0243901Y0059709D01*
X0243901Y0058511D02*
X0233800Y0058511D01*
X0233800Y0057312D02*
X0243901Y0057312D01*
X0243901Y0056114D02*
X0233800Y0056114D01*
X0233800Y0054915D02*
X0243901Y0054915D01*
X0243901Y0053717D02*
X0233800Y0053717D01*
X0233800Y0052518D02*
X0243901Y0052518D01*
X0243901Y0051320D02*
X0233800Y0051320D01*
X0233800Y0050121D02*
X0243901Y0050121D01*
X0243901Y0048923D02*
X0233800Y0048923D01*
X0233800Y0047724D02*
X0243901Y0047724D01*
X0243901Y0046526D02*
X0233800Y0046526D01*
X0233800Y0045327D02*
X0243901Y0045327D01*
X0243901Y0044129D02*
X0233800Y0044129D01*
X0233800Y0042930D02*
X0243901Y0042930D01*
X0243901Y0041732D02*
X0233800Y0041732D01*
X0233800Y0040533D02*
X0243901Y0040533D01*
X0243901Y0039334D02*
X0233800Y0039334D01*
X0233800Y0038136D02*
X0243901Y0038136D01*
X0243901Y0036937D02*
X0233800Y0036937D01*
X0233800Y0035739D02*
X0243901Y0035739D01*
X0243901Y0034540D02*
X0232652Y0034540D01*
X0232018Y0030273D02*
X0232018Y0022175D01*
X0236593Y0022175D01*
X0236593Y0025555D01*
X0236466Y0026356D01*
X0236215Y0027127D01*
X0235847Y0027849D01*
X0235371Y0028505D01*
X0234798Y0029078D01*
X0234142Y0029555D01*
X0233419Y0029923D01*
X0232648Y0030173D01*
X0232018Y0030273D01*
X0232018Y0029746D02*
X0230867Y0029746D01*
X0230867Y0030273D02*
X0230237Y0030173D01*
X0229466Y0029923D01*
X0228743Y0029555D01*
X0228088Y0029078D01*
X0227514Y0028505D01*
X0227038Y0027849D01*
X0226670Y0027127D01*
X0226419Y0026356D01*
X0226293Y0025555D01*
X0226293Y0022175D01*
X0230867Y0022175D01*
X0230867Y0021025D01*
X0226293Y0021025D01*
X0226293Y0017645D01*
X0226419Y0016844D01*
X0226670Y0016073D01*
X0227038Y0015351D01*
X0227514Y0014695D01*
X0228088Y0014122D01*
X0228743Y0013645D01*
X0229466Y0013277D01*
X0230237Y0013027D01*
X0230867Y0012927D01*
X0230867Y0021025D01*
X0232018Y0021025D01*
X0232018Y0022175D01*
X0230867Y0022175D01*
X0230867Y0030273D01*
X0230867Y0028548D02*
X0232018Y0028548D01*
X0232018Y0027349D02*
X0230867Y0027349D01*
X0230867Y0026151D02*
X0232018Y0026151D01*
X0232018Y0024952D02*
X0230867Y0024952D01*
X0230867Y0023754D02*
X0232018Y0023754D01*
X0232018Y0022555D02*
X0230867Y0022555D01*
X0230867Y0021357D02*
X0223800Y0021357D01*
X0223800Y0022555D02*
X0226293Y0022555D01*
X0226293Y0023754D02*
X0223800Y0023754D01*
X0223800Y0024952D02*
X0226293Y0024952D01*
X0226387Y0026151D02*
X0223800Y0026151D01*
X0223800Y0027349D02*
X0226783Y0027349D01*
X0227557Y0028548D02*
X0223800Y0028548D01*
X0223800Y0029746D02*
X0229120Y0029746D01*
X0233765Y0029746D02*
X0243901Y0029746D01*
X0243901Y0028548D02*
X0235328Y0028548D01*
X0236102Y0027349D02*
X0243901Y0027349D01*
X0243901Y0026151D02*
X0236498Y0026151D01*
X0236593Y0024952D02*
X0243901Y0024952D01*
X0243901Y0023754D02*
X0236593Y0023754D01*
X0236593Y0022555D02*
X0243901Y0022555D01*
X0243901Y0021357D02*
X0232018Y0021357D01*
X0232018Y0021025D02*
X0236593Y0021025D01*
X0236593Y0017645D01*
X0236466Y0016844D01*
X0236215Y0016073D01*
X0235847Y0015351D01*
X0235371Y0014695D01*
X0234798Y0014122D01*
X0234142Y0013645D01*
X0233419Y0013277D01*
X0232648Y0013027D01*
X0232018Y0012927D01*
X0232018Y0021025D01*
X0232018Y0020158D02*
X0230867Y0020158D01*
X0230867Y0018960D02*
X0232018Y0018960D01*
X0232018Y0017761D02*
X0230867Y0017761D01*
X0230867Y0016563D02*
X0232018Y0016563D01*
X0232018Y0015364D02*
X0230867Y0015364D01*
X0230867Y0014166D02*
X0232018Y0014166D01*
X0232018Y0012967D02*
X0230867Y0012967D01*
X0230613Y0012967D02*
X0223800Y0012967D01*
X0223800Y0011769D02*
X0243901Y0011769D01*
X0243901Y0012967D02*
X0232272Y0012967D01*
X0234841Y0014166D02*
X0243901Y0014166D01*
X0243901Y0015364D02*
X0235854Y0015364D01*
X0236374Y0016563D02*
X0243901Y0016563D01*
X0243901Y0017761D02*
X0236593Y0017761D01*
X0236593Y0018960D02*
X0243901Y0018960D01*
X0243901Y0020158D02*
X0236593Y0020158D01*
X0226293Y0020158D02*
X0223800Y0020158D01*
X0223800Y0018960D02*
X0226293Y0018960D01*
X0226293Y0017761D02*
X0223800Y0017761D01*
X0223800Y0016563D02*
X0226511Y0016563D01*
X0227031Y0015364D02*
X0223800Y0015364D01*
X0223800Y0014166D02*
X0228044Y0014166D01*
X0223681Y0010570D02*
X0243901Y0010570D01*
X0243901Y0009372D02*
X0003000Y0009372D01*
X0003000Y0010570D02*
X0069518Y0010570D01*
X0069400Y0011769D02*
X0003000Y0011769D01*
X0003000Y0012967D02*
X0060613Y0012967D01*
X0060867Y0012967D02*
X0062018Y0012967D01*
X0062018Y0012927D02*
X0062648Y0013027D01*
X0063419Y0013277D01*
X0064142Y0013645D01*
X0064798Y0014122D01*
X0065371Y0014695D01*
X0065847Y0015351D01*
X0066215Y0016073D01*
X0066466Y0016844D01*
X0066593Y0017645D01*
X0066593Y0021025D01*
X0062018Y0021025D01*
X0062018Y0022175D01*
X0066593Y0022175D01*
X0066593Y0025555D01*
X0066466Y0026356D01*
X0066215Y0027127D01*
X0065847Y0027849D01*
X0065371Y0028505D01*
X0064798Y0029078D01*
X0064142Y0029555D01*
X0063419Y0029923D01*
X0062648Y0030173D01*
X0062018Y0030273D01*
X0062018Y0022175D01*
X0060867Y0022175D01*
X0060867Y0021025D01*
X0056293Y0021025D01*
X0056293Y0017645D01*
X0056419Y0016844D01*
X0056670Y0016073D01*
X0057038Y0015351D01*
X0057514Y0014695D01*
X0058088Y0014122D01*
X0058743Y0013645D01*
X0059466Y0013277D01*
X0060237Y0013027D01*
X0060867Y0012927D01*
X0060867Y0021025D01*
X0062018Y0021025D01*
X0062018Y0012927D01*
X0062272Y0012967D02*
X0069400Y0012967D01*
X0069400Y0014166D02*
X0064841Y0014166D01*
X0065854Y0015364D02*
X0069400Y0015364D01*
X0069400Y0016563D02*
X0066374Y0016563D01*
X0066593Y0017761D02*
X0069400Y0017761D01*
X0069400Y0018960D02*
X0066593Y0018960D01*
X0066593Y0020158D02*
X0069400Y0020158D01*
X0069400Y0021357D02*
X0062018Y0021357D01*
X0060867Y0021357D02*
X0046707Y0021357D01*
X0046707Y0022555D02*
X0056293Y0022555D01*
X0056293Y0022175D02*
X0060867Y0022175D01*
X0060867Y0030273D01*
X0060237Y0030173D01*
X0059466Y0029923D01*
X0058743Y0029555D01*
X0058088Y0029078D01*
X0057514Y0028505D01*
X0057038Y0027849D01*
X0056670Y0027127D01*
X0056419Y0026356D01*
X0056293Y0025555D01*
X0056293Y0022175D01*
X0056293Y0023754D02*
X0046707Y0023754D01*
X0046707Y0024952D02*
X0056293Y0024952D01*
X0056387Y0026151D02*
X0046701Y0026151D01*
X0046204Y0027349D02*
X0056783Y0027349D01*
X0057557Y0028548D02*
X0045360Y0028548D01*
X0043596Y0029746D02*
X0059120Y0029746D01*
X0060867Y0029746D02*
X0062018Y0029746D01*
X0062018Y0028548D02*
X0060867Y0028548D01*
X0060867Y0027349D02*
X0062018Y0027349D01*
X0062018Y0026151D02*
X0060867Y0026151D01*
X0060867Y0024952D02*
X0062018Y0024952D01*
X0062018Y0023754D02*
X0060867Y0023754D01*
X0060867Y0022555D02*
X0062018Y0022555D01*
X0062018Y0020158D02*
X0060867Y0020158D01*
X0060867Y0018960D02*
X0062018Y0018960D01*
X0062018Y0017761D02*
X0060867Y0017761D01*
X0060867Y0016563D02*
X0062018Y0016563D01*
X0062018Y0015364D02*
X0060867Y0015364D01*
X0060867Y0014166D02*
X0062018Y0014166D01*
X0058044Y0014166D02*
X0044874Y0014166D01*
X0046003Y0015364D02*
X0057031Y0015364D01*
X0056511Y0016563D02*
X0046499Y0016563D01*
X0046707Y0017761D02*
X0056293Y0017761D01*
X0056293Y0018960D02*
X0046707Y0018960D01*
X0046707Y0020158D02*
X0056293Y0020158D01*
X0063765Y0029746D02*
X0069400Y0029746D01*
X0069400Y0028548D02*
X0065328Y0028548D01*
X0066102Y0027349D02*
X0069400Y0027349D01*
X0069400Y0026151D02*
X0066498Y0026151D01*
X0066593Y0024952D02*
X0069400Y0024952D01*
X0069400Y0023754D02*
X0066593Y0023754D01*
X0066593Y0022555D02*
X0069400Y0022555D01*
X0069400Y0030945D02*
X0023800Y0030945D01*
X0023800Y0032143D02*
X0069400Y0032143D01*
X0069400Y0033342D02*
X0023800Y0033342D01*
X0023800Y0034540D02*
X0069400Y0034540D01*
X0069400Y0035739D02*
X0023800Y0035739D01*
X0023800Y0036937D02*
X0069400Y0036937D01*
X0069400Y0038136D02*
X0023800Y0038136D01*
X0023800Y0039334D02*
X0069400Y0039334D01*
X0069400Y0040533D02*
X0023800Y0040533D01*
X0023800Y0041732D02*
X0069400Y0041732D01*
X0069400Y0042930D02*
X0023800Y0042930D01*
X0023800Y0044129D02*
X0069400Y0044129D01*
X0069400Y0045327D02*
X0023800Y0045327D01*
X0023800Y0046526D02*
X0069400Y0046526D01*
X0069400Y0047724D02*
X0023800Y0047724D01*
X0023800Y0048923D02*
X0069400Y0048923D01*
X0069400Y0050121D02*
X0023800Y0050121D01*
X0023800Y0051320D02*
X0069400Y0051320D01*
X0068469Y0052518D02*
X0064731Y0052518D01*
X0065926Y0053717D02*
X0067274Y0053717D01*
X0067497Y0059709D02*
X0065703Y0059709D01*
X0064505Y0060908D02*
X0068695Y0060908D01*
X0058695Y0060908D02*
X0054505Y0060908D01*
X0055703Y0059709D02*
X0057497Y0059709D01*
X0057274Y0053717D02*
X0055926Y0053717D01*
X0054731Y0052518D02*
X0058469Y0052518D01*
X0048469Y0052518D02*
X0024731Y0052518D01*
X0025926Y0053717D02*
X0047274Y0053717D01*
X0046778Y0054915D02*
X0026422Y0054915D01*
X0026700Y0056114D02*
X0046500Y0056114D01*
X0046500Y0057312D02*
X0026700Y0057312D01*
X0026329Y0058511D02*
X0046871Y0058511D01*
X0047497Y0059709D02*
X0025703Y0059709D01*
X0024505Y0060908D02*
X0048695Y0060908D01*
X0019400Y0062106D02*
X0003000Y0062106D01*
X0003000Y0060908D02*
X0018695Y0060908D01*
X0017497Y0059709D02*
X0003000Y0059709D01*
X0003000Y0058511D02*
X0016871Y0058511D01*
X0016500Y0057312D02*
X0003000Y0057312D01*
X0003000Y0056114D02*
X0016500Y0056114D01*
X0016778Y0054915D02*
X0003000Y0054915D01*
X0003000Y0053717D02*
X0017274Y0053717D01*
X0018469Y0052518D02*
X0003000Y0052518D01*
X0003000Y0051320D02*
X0019400Y0051320D01*
X0019400Y0050121D02*
X0003000Y0050121D01*
X0003000Y0048923D02*
X0019400Y0048923D01*
X0019400Y0047724D02*
X0003000Y0047724D01*
X0003000Y0046526D02*
X0019400Y0046526D01*
X0019400Y0045327D02*
X0003000Y0045327D01*
X0003000Y0044129D02*
X0019400Y0044129D01*
X0019400Y0042930D02*
X0003000Y0042930D01*
X0003000Y0041732D02*
X0019400Y0041732D01*
X0019400Y0040533D02*
X0003000Y0040533D01*
X0003000Y0039334D02*
X0019400Y0039334D01*
X0019400Y0038136D02*
X0003000Y0038136D01*
X0003000Y0036937D02*
X0019400Y0036937D01*
X0019400Y0035739D02*
X0003000Y0035739D01*
X0003000Y0034540D02*
X0019400Y0034540D01*
X0019400Y0033342D02*
X0003000Y0033342D01*
X0003000Y0032143D02*
X0019400Y0032143D01*
X0019400Y0030945D02*
X0003000Y0030945D01*
X0003000Y0029746D02*
X0019400Y0029746D01*
X0019400Y0028548D02*
X0003000Y0028548D01*
X0003000Y0027349D02*
X0019400Y0027349D01*
X0019400Y0026151D02*
X0003000Y0026151D01*
X0003000Y0024952D02*
X0019400Y0024952D01*
X0019400Y0023754D02*
X0003000Y0023754D01*
X0003000Y0022555D02*
X0019400Y0022555D01*
X0019400Y0021357D02*
X0003000Y0021357D01*
X0003000Y0020158D02*
X0019930Y0020158D01*
X0023800Y0024952D02*
X0036807Y0024952D01*
X0036814Y0026151D02*
X0023800Y0026151D01*
X0023800Y0027349D02*
X0037311Y0027349D01*
X0038155Y0028548D02*
X0023800Y0028548D01*
X0023800Y0029746D02*
X0039919Y0029746D01*
X0036807Y0018960D02*
X0003000Y0018960D01*
X0003000Y0017761D02*
X0036807Y0017761D01*
X0037016Y0016563D02*
X0003000Y0016563D01*
X0003000Y0015364D02*
X0037512Y0015364D01*
X0038641Y0014166D02*
X0003000Y0014166D01*
X0003000Y0008173D02*
X0243901Y0008173D01*
X0243901Y0006975D02*
X0003000Y0006975D01*
X0003000Y0005776D02*
X0243901Y0005776D01*
X0243901Y0004578D02*
X0003000Y0004578D01*
X0003000Y0003379D02*
X0243901Y0003379D01*
X0243901Y0030945D02*
X0223800Y0030945D01*
X0223800Y0032143D02*
X0243901Y0032143D01*
X0243901Y0033342D02*
X0223800Y0033342D01*
X0229199Y0059709D02*
X0229400Y0059709D01*
X0229400Y0060908D02*
X0228000Y0060908D01*
X0229400Y0062106D02*
X0193800Y0062106D01*
X0193800Y0063305D02*
X0229400Y0063305D01*
X0226356Y0071419D02*
X0225555Y0071293D01*
X0222175Y0071293D01*
X0222175Y0075867D01*
X0221025Y0075867D01*
X0221025Y0071293D01*
X0217645Y0071293D01*
X0216844Y0071419D01*
X0216073Y0071670D01*
X0215351Y0072038D01*
X0214695Y0072514D01*
X0214122Y0073088D01*
X0213645Y0073743D01*
X0213277Y0074466D01*
X0213027Y0075237D01*
X0212927Y0075867D01*
X0221025Y0075867D01*
X0221025Y0077018D01*
X0221025Y0081593D01*
X0217645Y0081593D01*
X0216844Y0081466D01*
X0216073Y0081215D01*
X0215351Y0080847D01*
X0214695Y0080371D01*
X0214122Y0079798D01*
X0213645Y0079142D01*
X0213277Y0078419D01*
X0213027Y0077648D01*
X0212927Y0077018D01*
X0221025Y0077018D01*
X0222175Y0077018D01*
X0222175Y0081593D01*
X0225555Y0081593D01*
X0226356Y0081466D01*
X0227127Y0081215D01*
X0227849Y0080847D01*
X0228505Y0080371D01*
X0229078Y0079798D01*
X0229555Y0079142D01*
X0229923Y0078419D01*
X0230173Y0077648D01*
X0230273Y0077018D01*
X0222175Y0077018D01*
X0222175Y0075867D01*
X0230273Y0075867D01*
X0230173Y0075237D01*
X0229923Y0074466D01*
X0229555Y0073743D01*
X0229078Y0073088D01*
X0228505Y0072514D01*
X0227849Y0072038D01*
X0227127Y0071670D01*
X0226356Y0071419D01*
X0227175Y0071694D02*
X0243901Y0071694D01*
X0243901Y0070496D02*
X0208800Y0070496D01*
X0208800Y0071694D02*
X0216025Y0071694D01*
X0214316Y0072893D02*
X0208800Y0072893D01*
X0208800Y0074091D02*
X0213468Y0074091D01*
X0213018Y0075290D02*
X0208800Y0075290D01*
X0208800Y0076488D02*
X0221025Y0076488D01*
X0222175Y0076488D02*
X0243901Y0076488D01*
X0243901Y0075290D02*
X0230182Y0075290D01*
X0229732Y0074091D02*
X0243901Y0074091D01*
X0243901Y0072893D02*
X0228883Y0072893D01*
X0230161Y0077687D02*
X0243901Y0077687D01*
X0243901Y0078885D02*
X0229685Y0078885D01*
X0228792Y0080084D02*
X0243901Y0080084D01*
X0243901Y0081282D02*
X0226920Y0081282D01*
X0222175Y0081282D02*
X0221025Y0081282D01*
X0221025Y0080084D02*
X0222175Y0080084D01*
X0222175Y0078885D02*
X0221025Y0078885D01*
X0221025Y0077687D02*
X0222175Y0077687D01*
X0222175Y0075290D02*
X0221025Y0075290D01*
X0221025Y0074091D02*
X0222175Y0074091D01*
X0222175Y0072893D02*
X0221025Y0072893D01*
X0221025Y0071694D02*
X0222175Y0071694D01*
X0216280Y0081282D02*
X0208800Y0081282D01*
X0208800Y0080084D02*
X0214408Y0080084D01*
X0213515Y0078885D02*
X0208800Y0078885D01*
X0208800Y0077687D02*
X0213039Y0077687D01*
X0208800Y0082481D02*
X0243901Y0082481D01*
X0243901Y0083679D02*
X0208800Y0083679D01*
X0204400Y0083679D02*
X0195892Y0083679D01*
X0194693Y0082481D02*
X0204400Y0082481D01*
X0204400Y0081282D02*
X0178800Y0081282D01*
X0178800Y0080084D02*
X0204400Y0080084D01*
X0204400Y0078885D02*
X0178800Y0078885D01*
X0178800Y0077687D02*
X0204400Y0077687D01*
X0204400Y0076488D02*
X0178800Y0076488D01*
X0178800Y0075290D02*
X0204400Y0075290D01*
X0194505Y0060908D02*
X0215200Y0060908D01*
X0214001Y0059709D02*
X0195703Y0059709D01*
X0188507Y0082481D02*
X0178800Y0082481D01*
X0178800Y0083679D02*
X0187308Y0083679D01*
X0186793Y0084878D02*
X0178800Y0084878D01*
X0178800Y0086076D02*
X0186500Y0086076D01*
X0186500Y0087275D02*
X0178800Y0087275D01*
X0178800Y0088473D02*
X0186856Y0088473D01*
X0187459Y0089672D02*
X0178800Y0089672D01*
X0178800Y0090870D02*
X0188658Y0090870D01*
X0193491Y0096863D02*
X0216931Y0096863D01*
X0214746Y0098062D02*
X0195274Y0098062D01*
X0196151Y0099260D02*
X0213727Y0099260D01*
X0213643Y0104054D02*
X0196104Y0104054D01*
X0195160Y0105253D02*
X0214545Y0105253D01*
X0216447Y0106451D02*
X0193215Y0106451D01*
X0169400Y0078885D02*
X0167625Y0078885D01*
X0165928Y0077687D02*
X0169400Y0077687D01*
X0138489Y0065702D02*
X0133800Y0065702D01*
X0133800Y0064503D02*
X0137291Y0064503D01*
X0129400Y0064503D02*
X0115909Y0064503D01*
X0119400Y0054915D02*
X0106422Y0054915D01*
X0105926Y0053717D02*
X0119400Y0053717D01*
X0119400Y0052518D02*
X0104731Y0052518D01*
X0098469Y0052518D02*
X0083800Y0052518D01*
X0083800Y0051320D02*
X0119400Y0051320D01*
X0119400Y0050121D02*
X0083800Y0050121D01*
X0083800Y0048923D02*
X0119400Y0048923D01*
X0119400Y0047724D02*
X0083800Y0047724D01*
X0083800Y0046526D02*
X0119400Y0046526D01*
X0119400Y0045327D02*
X0083800Y0045327D01*
X0083800Y0044129D02*
X0119400Y0044129D01*
X0119400Y0042930D02*
X0083800Y0042930D01*
X0083800Y0041732D02*
X0119400Y0041732D01*
X0119400Y0040533D02*
X0083800Y0040533D01*
X0083800Y0039334D02*
X0119400Y0039334D01*
X0101293Y0020158D02*
X0098800Y0020158D01*
X0098800Y0018960D02*
X0101293Y0018960D01*
X0101293Y0017761D02*
X0098800Y0017761D01*
X0098800Y0016563D02*
X0101511Y0016563D01*
X0102031Y0015364D02*
X0098800Y0015364D01*
X0098800Y0014166D02*
X0103044Y0014166D01*
X0105613Y0012967D02*
X0098800Y0012967D01*
X0098800Y0011769D02*
X0119400Y0011769D01*
X0119400Y0012967D02*
X0107272Y0012967D01*
X0107018Y0012967D02*
X0105867Y0012967D01*
X0098681Y0010570D02*
X0119518Y0010570D01*
X0097274Y0053717D02*
X0083800Y0053717D01*
X0085205Y0102425D02*
X0077995Y0102425D01*
X0076460Y0103061D01*
X0075286Y0104235D01*
X0074650Y0105770D01*
X0074650Y0107430D01*
X0075286Y0108965D01*
X0076460Y0110139D01*
X0077995Y0110775D01*
X0085205Y0110775D01*
X0086740Y0110139D01*
X0087914Y0108965D01*
X0088550Y0107430D01*
X0088550Y0105770D01*
X0087914Y0104235D01*
X0086740Y0103061D01*
X0085205Y0102425D01*
X0086244Y0102856D02*
X0094400Y0102856D01*
X0094400Y0104054D02*
X0087733Y0104054D01*
X0088335Y0105253D02*
X0094400Y0105253D01*
X0094400Y0106451D02*
X0088550Y0106451D01*
X0088459Y0107650D02*
X0094400Y0107650D01*
X0094400Y0108848D02*
X0087962Y0108848D01*
X0086832Y0110047D02*
X0094400Y0110047D01*
X0094400Y0111245D02*
X0063800Y0111245D01*
X0063800Y0110047D02*
X0076368Y0110047D01*
X0075238Y0108848D02*
X0063800Y0108848D01*
X0063800Y0107650D02*
X0074741Y0107650D01*
X0074650Y0106451D02*
X0063800Y0106451D01*
X0063800Y0105253D02*
X0074865Y0105253D01*
X0075467Y0104054D02*
X0063800Y0104054D01*
X0063800Y0102856D02*
X0076956Y0102856D01*
X0077995Y0112425D02*
X0076460Y0113061D01*
X0075286Y0114235D01*
X0074650Y0115770D01*
X0074650Y0117430D01*
X0075286Y0118965D01*
X0076460Y0120139D01*
X0077995Y0120775D01*
X0085205Y0120775D01*
X0086740Y0120139D01*
X0087914Y0118965D01*
X0088550Y0117430D01*
X0088550Y0115770D01*
X0087914Y0114235D01*
X0086740Y0113061D01*
X0085205Y0112425D01*
X0077995Y0112425D01*
X0077950Y0112444D02*
X0063800Y0112444D01*
X0063800Y0113642D02*
X0075879Y0113642D01*
X0075035Y0114841D02*
X0063800Y0114841D01*
X0063800Y0116039D02*
X0074650Y0116039D01*
X0074650Y0117238D02*
X0063800Y0117238D01*
X0063800Y0118436D02*
X0075067Y0118436D01*
X0075956Y0119635D02*
X0063800Y0119635D01*
X0063800Y0120833D02*
X0094400Y0120833D01*
X0094400Y0119635D02*
X0087244Y0119635D01*
X0088133Y0118436D02*
X0094400Y0118436D01*
X0094400Y0117238D02*
X0088550Y0117238D01*
X0088550Y0116039D02*
X0094400Y0116039D01*
X0094400Y0114841D02*
X0088165Y0114841D01*
X0087321Y0113642D02*
X0094400Y0113642D01*
X0094400Y0112444D02*
X0085250Y0112444D01*
X0086909Y0123230D02*
X0094400Y0123230D01*
X0094400Y0122032D02*
X0063800Y0122032D01*
X0063800Y0123230D02*
X0076291Y0123230D01*
X0086058Y0130421D02*
X0094400Y0130421D01*
X0094400Y0129223D02*
X0087656Y0129223D01*
X0088304Y0128024D02*
X0094400Y0128024D01*
X0094400Y0126826D02*
X0088550Y0126826D01*
X0088491Y0125627D02*
X0094400Y0125627D01*
X0094400Y0124429D02*
X0087994Y0124429D01*
X0075222Y0138811D02*
X0048800Y0138811D01*
X0048800Y0140009D02*
X0076331Y0140009D01*
X0075916Y0143605D02*
X0048800Y0143605D01*
X0048800Y0144803D02*
X0055285Y0144803D01*
X0054400Y0146002D02*
X0048800Y0146002D01*
X0049306Y0147201D02*
X0054400Y0147201D01*
X0054400Y0148399D02*
X0050612Y0148399D01*
X0051291Y0149598D02*
X0054400Y0149598D01*
X0054400Y0150796D02*
X0051700Y0150796D01*
X0051700Y0151995D02*
X0054400Y0151995D01*
X0054400Y0153193D02*
X0051460Y0153193D01*
X0050964Y0154392D02*
X0054400Y0154392D01*
X0054400Y0155590D02*
X0049822Y0155590D01*
X0058800Y0149598D02*
X0075919Y0149598D01*
X0094400Y0142406D02*
X0048800Y0142406D01*
X0048800Y0141208D02*
X0094400Y0141208D01*
X0103800Y0130421D02*
X0137142Y0130421D01*
X0135544Y0129223D02*
X0103800Y0129223D01*
X0103800Y0128024D02*
X0124913Y0128024D01*
X0124400Y0126826D02*
X0103800Y0126826D01*
X0103800Y0125627D02*
X0124400Y0125627D01*
X0124400Y0124429D02*
X0103800Y0124429D01*
X0103800Y0123230D02*
X0124400Y0123230D01*
X0124400Y0122032D02*
X0103800Y0122032D01*
X0103800Y0120833D02*
X0124400Y0120833D01*
X0124400Y0119635D02*
X0103800Y0119635D01*
X0103800Y0118436D02*
X0124400Y0118436D01*
X0124400Y0117238D02*
X0103800Y0117238D01*
X0103800Y0116039D02*
X0124400Y0116039D01*
X0124400Y0114841D02*
X0103800Y0114841D01*
X0103800Y0113642D02*
X0124400Y0113642D01*
X0124400Y0112444D02*
X0103800Y0112444D01*
X0103800Y0111245D02*
X0124400Y0111245D01*
X0125042Y0110047D02*
X0103800Y0110047D01*
X0128800Y0114841D02*
X0135035Y0114841D01*
X0134650Y0116039D02*
X0128800Y0116039D01*
X0128800Y0117238D02*
X0134650Y0117238D01*
X0135067Y0118436D02*
X0128800Y0118436D01*
X0099400Y0161583D02*
X0098800Y0161583D01*
X0098800Y0162781D02*
X0099670Y0162781D01*
X0059400Y0125627D02*
X0049785Y0125627D01*
X0050948Y0124429D02*
X0059400Y0124429D01*
X0059400Y0123230D02*
X0051445Y0123230D01*
X0051700Y0122032D02*
X0059400Y0122032D01*
X0059400Y0120833D02*
X0051700Y0120833D01*
X0051306Y0119635D02*
X0059400Y0119635D01*
X0059400Y0118436D02*
X0050649Y0118436D01*
X0049395Y0117238D02*
X0059400Y0117238D01*
X0013746Y0143605D02*
X0003000Y0143605D01*
X0003000Y0144803D02*
X0013168Y0144803D01*
X0027968Y0167575D02*
X0043412Y0167575D01*
X0042250Y0168774D02*
X0029167Y0168774D01*
X0029142Y0174766D02*
X0042554Y0174766D01*
X0043811Y0175965D02*
X0027928Y0175965D01*
X0022175Y0186751D02*
X0021025Y0186751D01*
X0021025Y0187950D02*
X0022175Y0187950D01*
X0022175Y0189148D02*
X0021025Y0189148D01*
X0021025Y0190347D02*
X0022175Y0190347D01*
X0022175Y0193942D02*
X0021025Y0193942D01*
X0021025Y0195141D02*
X0022175Y0195141D01*
X0022175Y0196339D02*
X0021025Y0196339D01*
X0013505Y0214317D02*
X0008800Y0214317D01*
X0008800Y0215516D02*
X0014603Y0215516D01*
X0016368Y0216714D02*
X0008800Y0216714D01*
X0008800Y0217913D02*
X0014375Y0217913D01*
X0013411Y0219111D02*
X0008800Y0219111D01*
X0008800Y0220310D02*
X0012914Y0220310D01*
X0012800Y0221508D02*
X0008800Y0221508D01*
X0008800Y0222707D02*
X0012838Y0222707D01*
X0013335Y0223905D02*
X0008800Y0223905D01*
X0008800Y0225104D02*
X0014191Y0225104D01*
X0015925Y0226302D02*
X0008800Y0226302D01*
X0008800Y0227501D02*
X0014787Y0227501D01*
X0013588Y0228699D02*
X0008800Y0228699D01*
X0008800Y0229898D02*
X0013085Y0229898D01*
X0012800Y0231096D02*
X0008800Y0231096D01*
X0008800Y0232295D02*
X0012800Y0232295D01*
X0013164Y0233493D02*
X0008800Y0233493D01*
X0008800Y0234692D02*
X0013779Y0234692D01*
X0014978Y0235890D02*
X0008800Y0235890D01*
X0008800Y0237089D02*
X0015092Y0237089D01*
X0013756Y0238287D02*
X0008800Y0238287D01*
X0008800Y0239486D02*
X0013029Y0239486D01*
X0012679Y0240684D02*
X0008800Y0240684D01*
X0021100Y0243081D02*
X0022100Y0243081D01*
X0022100Y0244280D02*
X0021100Y0244280D01*
X0021100Y0245478D02*
X0022100Y0245478D01*
X0022100Y0246677D02*
X0021100Y0246677D01*
X0005345Y0263456D02*
X0003000Y0263456D01*
X0003000Y0262258D02*
X0004400Y0262258D01*
X0004400Y0261059D02*
X0003000Y0261059D01*
X0003000Y0259861D02*
X0004400Y0259861D01*
X0003000Y0066900D02*
X0019400Y0066900D01*
X0019400Y0065702D02*
X0003000Y0065702D01*
X0003000Y0064503D02*
X0019400Y0064503D01*
X0019400Y0063305D02*
X0003000Y0063305D01*
X0202538Y0168774D02*
X0213458Y0168774D01*
X0213015Y0167575D02*
X0203736Y0167575D01*
X0203800Y0166377D02*
X0221025Y0166377D01*
X0221025Y0167575D02*
X0222175Y0167575D01*
X0222175Y0168774D02*
X0221025Y0168774D01*
X0221025Y0169972D02*
X0222175Y0169972D01*
X0222175Y0171171D02*
X0221025Y0171171D01*
X0213525Y0163980D02*
X0203800Y0163980D01*
X0203800Y0165178D02*
X0213046Y0165178D01*
X0214428Y0162781D02*
X0203800Y0162781D01*
X0203800Y0161583D02*
X0216341Y0161583D01*
X0221025Y0125627D02*
X0222175Y0125627D01*
X0222175Y0124429D02*
X0221025Y0124429D01*
X0221025Y0123230D02*
X0222175Y0123230D01*
X0222175Y0122032D02*
X0221025Y0122032D01*
X0221025Y0120833D02*
X0222175Y0120833D01*
X0222175Y0119635D02*
X0221025Y0119635D01*
X0221025Y0118436D02*
X0222175Y0118436D01*
X0222175Y0117238D02*
X0221025Y0117238D01*
M02*
