%
M48
M72
T01C0.03150
T02C0.03200
T03C0.03543
T04C0.04400
T05C0.04700
%
T01
X81600Y96600
X81600Y106600
X81600Y116600
X81600Y126600
X81600Y136600
X81600Y146600
X81600Y156600
X81600Y166600
X81600Y176600
X81600Y186600
X81600Y196600
X81600Y206600
X86600Y216600
X96600Y216600
X106600Y216600
X116600Y216600
X126600Y216600
X136600Y216600
X141600Y206600
X141600Y196600
X141600Y186600
X141600Y176600
X141600Y166600
X141600Y156600
X141600Y146600
X141600Y136600
X141600Y126600
X141600Y116600
X141600Y106600
X141600Y96600
X126600Y96600
X116600Y96600
X106600Y96600
X126600Y161600
X126600Y171600
T02
X161600Y131600
X161600Y121600
X161600Y111600
X161600Y101600
X161600Y91600
X161600Y81600
X161600Y71600
X161600Y61600
T03
X171600Y46600
X191600Y56600
X191600Y86600
X191600Y101600
X191600Y131600
X191600Y151600
X176600Y176600
X191600Y181600
X176600Y206600
X61600Y86600
X61600Y56600
X51600Y56600
X71600Y56600
X101600Y56600
X111600Y61600
X141600Y61600
X141600Y46600
X46600Y121600
X46600Y151600
X46600Y171600
X46600Y201600
X21600Y56600
T04
X21600Y211600
X21600Y221600
X21600Y231600
X21600Y241600
T05
X41757Y21600
X61443Y21600
X86757Y21600
X106443Y21600
X166757Y21600
X186443Y21600
X211757Y21600
X231443Y21600
X221600Y56757
X221600Y76443
X221600Y101757
X221600Y121443
X221600Y146757
X221600Y166443
X221600Y191757
X221600Y211443
X141443Y251600
X121757Y251600
X21600Y191443
X21600Y171757
X21600Y146443
X21600Y126757
X21600Y101443
X21600Y81757
M30
